SplineFontDB: 3.0
FontName: RibeyeMarrow-Regular
FullName: Ribeye Marrow
FamilyName: Ribeye Marrow
Weight: Book
Copyright: Copyright (c) 2011 by Brian J. Bonislawsky DBA Astigmatic (AOETI) (astigma@astigmatic.com), with Reserved\nFont Name "Ribeye Marrow"
Version: 1.000
ItalicAngle: 0
UnderlinePosition: -232
UnderlineWidth: 41
Ascent: 1638
Descent: 410
sfntRevision: 0x00010000
LayerCount: 2
Layer: 0 1 "Back"  1
Layer: 1 1 "Fore"  0
XUID: [1021 288 713564382 11603721]
FSType: 0
OS2Version: 3
OS2_WeightWidthSlopeOnly: 0
OS2_UseTypoMetrics: 1
CreationTime: 1321708380
ModificationTime: 1321893797
PfmFamily: 17
TTFWeight: 400
TTFWidth: 5
LineGap: 0
VLineGap: 0
Panose: 2 15 5 5 0 0 0 2 0 4
OS2TypoAscent: 492
OS2TypoAOffset: 1
OS2TypoDescent: -258
OS2TypoDOffset: 1
OS2TypoLinegap: 0
OS2WinAscent: 0
OS2WinAOffset: 1
OS2WinDescent: 0
OS2WinDOffset: 1
HheadAscent: 0
HheadAOffset: 1
HheadDescent: 0
HheadDOffset: 1
OS2SubXSize: 1434
OS2SubYSize: 1331
OS2SubXOff: 0
OS2SubYOff: 287
OS2SupXSize: 1434
OS2SupYSize: 1331
OS2SupXOff: 0
OS2SupYOff: 977
OS2StrikeYSize: 102
OS2StrikeYPos: 512
OS2Vendor: 'AOEF'
OS2CodePages: 00000093.00000000
OS2UnicodeRanges: a00000ef.4000004a.00000000.00000000
Lookup: 1 0 0 "'aalt' Access All Alternates in Latin lookup 0"  {"'aalt' Access All Alternates in Latin lookup 0 subtable"  } ['aalt' ('latn' <'dflt' > ) ]
Lookup: 1 0 0 "'sups' Superscript in Latin lookup 1"  {"'sups' Superscript in Latin lookup 1 subtable" ("superior" ) } ['sups' ('latn' <'dflt' > ) ]
Lookup: 4 0 1 "'liga' Standard Ligatures in Latin lookup 2"  {"'liga' Standard Ligatures in Latin lookup 2 subtable"  } ['liga' ('latn' <'dflt' > ) ]
Lookup: 6 0 0 "'ordn' Ordinals in Latin lookup 3"  {"'ordn' Ordinals in Latin lookup 3 subtable"  } ['ordn' ('latn' <'dflt' > ) ]

StartChar: lslash
Encoding: 322 322 4
Width: 752
Flags: HW
LayerCount: 2
Fore
SplineSet
453 1329 m 1,0,1
 388 1323 388 1323 315 1323 c 2,2,-1
 307 1323 l 1,3,-1
 307 135 l 1,4,-1
 453 135 l 1,5,-1
 453 1329 l 1,0,1
203 1325 m 1,6,-1
 49 1339 l 1,7,8
 29 1342 29 1342 16.5 1357 c 128,-1,9
 4 1372 4 1372 4 1394.5 c 128,-1,10
 4 1417 4 1417 22 1430.5 c 128,-1,11
 40 1444 40 1444 57 1444 c 2,12,-1
 63 1444 l 2,13,14
 64 1444 64 1444 86 1441.5 c 128,-1,15
 108 1439 108 1439 143.5 1435.5 c 0,16,17
 229.714285714 1427 229.714285714 1427 317 1427 c 256,18,19
 422.875 1427 422.875 1427 460.4375 1435.5 c 128,-1,20
 498 1444 498 1444 513.5 1444 c 128,-1,21
 529 1444 529 1444 544 1427.5 c 128,-1,22
 559 1411 559 1411 559 1391 c 2,23,-1
 559 874 l 1,24,25
 582 896 582 896 603 916 c 128,-1,26
 624 936 624 936 637.5 950 c 0,27,28
 659.678571429 973 659.678571429 973 682.339285714 973 c 128,-1,29
 705 973 705 973 720 956.5 c 128,-1,30
 735 940 735 940 735 919.5 c 128,-1,31
 735 899 735 899 708 870.5 c 0,32,33
 647.83248731 806.989847716 647.83248731 806.989847716 559 741 c 1,34,-1
 557 125 l 1,35,36
 591 120 591 120 624 115.5 c 128,-1,37
 657 111 657 111 684 105 c 0,38,39
 735 93.6666666667 735 93.6666666667 735 53 c 0,40,41
 735 30 735 30 718.5 15 c 128,-1,42
 702 0 702 0 682 0 c 2,43,-1
 672 0 l 1,44,45
 504.6 31 504.6 31 377 31 c 256,46,47
 249.333333333 31 249.333333333 31 84 0 c 1,48,-1
 74 0 l 2,49,50
 49 0 49 0 36 16 c 128,-1,51
 23 32 23 32 23 52 c 0,52,53
 23 92.8888888889 23 92.8888888889 63 104 c 1,54,55
 153.096774194 120.596774194 153.096774194 120.596774194 203 125 c 1,56,-1
 203 514 l 1,57,58
 105.153846154 461 105.153846154 461 96 461 c 1,59,60
 84 455 84 455 66.5 455 c 128,-1,61
 49 455 49 455 36 471.5 c 128,-1,62
 23 488 23 488 23 505.5 c 0,63,64
 23 543 23 543 53 555 c 1,65,66
 71 565 71 565 93 575.5 c 0,67,68
 152.230769231 603.769230769 152.230769231 603.769230769 203 633 c 1,69,-1
 203 1325 l 1,6,-1
EndSplineSet
EndChar

StartChar: Thorn
Encoding: 222 222 5
Width: 1487
Flags: HW
LayerCount: 2
Fore
SplineSet
588 1350 m 1,0,1
 562 1348 562 1348 537 1348 c 0,2,3
 489.5 1348 489.5 1348 442 1348 c 1,4,-1
 420 102 l 1,5,-1
 553 102 l 1,6,-1
 588 1350 l 1,0,1
666 365 m 1,7,8
 731 360 731 360 801.5 360 c 128,-1,9
 872 360 872 360 967 377.5 c 128,-1,10
 1062 395 1062 395 1137.5 431.5 c 0,11,12
 1333 526.013245033 1333 526.013245033 1333 733 c 0,13,14
 1333 1002.03496503 1333 1002.03496503 995.5 1087 c 0,15,16
 864.416666667 1120 864.416666667 1120 688 1120 c 2,17,-1
 686 1120 l 1,18,-1
 666 365 l 1,7,8
176 1468 m 1,19,20
 332 1452 332 1452 488.5 1452 c 128,-1,21
 645 1452 645 1452 807 1468 c 1,22,-1
 811 1468 l 1,23,24
 834 1466 834 1466 849 1452 c 128,-1,25
 864 1438 864 1438 864 1416.5 c 128,-1,26
 864 1395 864 1395 850.5 1380.5 c 128,-1,27
 837 1366 837 1366 811.5 1363.5 c 0,28,29
 758.094339623 1358.26415094 758.094339623 1358.26415094 692 1354 c 1,30,-1
 688 1225 l 1,31,32
 898.109327751 1222.78832287 898.109327751 1222.78832287 1016.05466388 1189.39416143 c 128,-1,33
 1134 1156 1134 1156 1205 1119 c 128,-1,34
 1276 1082 1276 1082 1328 1028 c 0,35,36
 1438 913.769230769 1438 913.769230769 1438 735 c 0,37,38
 1438 693 1438 693 1429 633.5 c 128,-1,39
 1420 574 1420 574 1386.5 517 c 128,-1,40
 1353 460 1353 460 1303.5 416.5 c 128,-1,41
 1254 373 1254 373 1191.5 342.5 c 128,-1,42
 1129 312 1129 312 1060.5 293 c 0,43,44
 927.105263158 256 927.105263158 256 824.552631579 256 c 128,-1,45
 722 256 722 256 664 260 c 1,46,-1
 659 98 l 1,47,48
 737 92 737 92 817 86 c 1,49,50
 864 75.7826086957 864 75.7826086957 864 29 c 1,51,52
 862 7 862 7 846.5 -5.5 c 128,-1,53
 831 -18 831 -18 811 -18 c 2,54,-1
 807 -18 l 1,55,56
 645 -2 645 -2 488.5 -2 c 128,-1,57
 332 -2 332 -2 176 -18 c 1,58,-1
 172 -18 l 2,59,60
 150 -18 150 -18 134.5 -2.5 c 128,-1,61
 119 13 119 13 119 33 c 256,62,63
 119 53 119 53 132.5 68 c 128,-1,64
 146 83 146 83 174.5 86 c 128,-1,65
 203 89 203 89 240.5 92 c 128,-1,66
 278 95 278 95 315 98 c 1,67,-1
 319 324 l 1,68,69
 144.360655738 382.213114754 144.360655738 382.213114754 127.5 408 c 0,70,71
 119 421 119 421 119 440 c 128,-1,72
 119 459 119 459 135.5 474 c 128,-1,73
 152 489 152 489 164.5 489 c 0,74,75
 179 489 179 489 203.5 479.5 c 128,-1,76
 228 470 228 470 259.5 457.5 c 128,-1,77
 291 445 291 445 322 434 c 1,78,-1
 334 1085 l 1,79,80
 242.16 1064.008 242.16 1064.008 211.58 1050.004 c 128,-1,81
 181 1036 181 1036 165 1036 c 128,-1,82
 149 1036 149 1036 134 1053 c 128,-1,83
 119 1070 119 1070 119 1087 c 0,84,85
 119 1123 119 1123 147 1137 c 0,86,87
 202.418181818 1164.70909091 202.418181818 1164.70909091 336 1192 c 1,88,-1
 338 1352 l 1,89,90
 251 1355 251 1355 166 1364 c 0,91,92
 146 1366 146 1366 132.5 1381.5 c 128,-1,93
 119 1397 119 1397 119 1418.5 c 128,-1,94
 119 1440 119 1440 136 1454 c 128,-1,95
 153 1468 153 1468 172 1468 c 2,96,-1
 176 1468 l 1,19,20
EndSplineSet
EndChar

StartChar: thorn
Encoding: 254 254 6
Width: 1341
Flags: HW
LayerCount: 2
Fore
SplineSet
332 -414 m 1,0,-1
 397 -416 l 1,1,-1
 399 1331 l 1,2,3
 347.8 1323 347.8 1323 268 1323 c 2,4,-1
 252 1323 l 1,5,-1
 252 -416 l 1,6,-1
 332 -414 l 1,0,-1
1130.5 356.5 m 128,-1,8
 1151 444 1151 444 1150.5 527 c 128,-1,9
 1150 610 1150 610 1130.5 678 c 128,-1,10
 1111 746 1111 746 1072.5 798.5 c 0,11,12
 988.533333333 913 988.533333333 913 850 913 c 0,13,14
 725.333333333 913 725.333333333 913 635.5 794 c 0,15,16
 570.196393571 707.493923951 570.196393571 707.493923951 531 569 c 0,17,18
 504 473.6 504 473.6 504 436 c 2,19,-1
 504 233 l 1,20,21
 498.35106383 221.70212766 498.35106383 221.70212766 519.175531915 190.85106383 c 128,-1,22
 540 160 540 160 562.5 137.5 c 128,-1,23
 585 115 585 115 617.5 96.5 c 0,24,25
 693.918918919 53 693.918918919 53 790.459459459 53 c 128,-1,26
 887 53 887 53 955 93.5 c 128,-1,27
 1023 134 1023 134 1066.5 201.5 c 128,-1,7
 1110 269 1110 269 1130.5 356.5 c 128,-1,8
183 1432 m 128,-1,29
 225 1430 225 1430 294 1430 c 128,-1,30
 363 1430 363 1430 451 1446 c 1,31,32
 474 1446 474 1446 489 1429.5 c 128,-1,33
 504 1413 504 1413 504 1393 c 2,34,-1
 504 791 l 1,35,36
 578.702479339 946.900826446 578.702479339 946.900826446 739.5 1000.5 c 0,37,38
 792 1018 792 1018 868.5 1018 c 128,-1,39
 945 1018 945 1018 1020 978.5 c 128,-1,40
 1095 939 1095 939 1146.5 872.5 c 0,41,42
 1252.82729278 735.203592814 1252.82729278 735.203592814 1257 537 c 1,43,44
 1257 288.172413793 1257 288.172413793 1143 127 c 0,45,46
 1015.68292683 -53 1015.68292683 -53 791 -53 c 0,47,48
 660.555555556 -53 660.555555556 -53 555.5 9 c 0,49,50
 525 27 525 27 504 47 c 1,51,-1
 504 -424 l 1,52,53
 556 -428.52173913 556 -428.52173913 598 -434 c 256,54,55
 621 -437 621 -437 632 -455.5 c 128,-1,56
 643 -474 643 -474 641.5 -494 c 128,-1,57
 640 -514 640 -514 625 -526.5 c 128,-1,58
 610 -539 610 -539 590 -539 c 2,59,-1
 584 -539 l 1,60,61
 443.875 -520 443.875 -520 315.09375 -520 c 128,-1,62
 186.3125 -520 186.3125 -520 53 -547 c 1,63,-1
 45 -547 l 2,64,65
 22 -547 22 -547 7 -531.5 c 128,-1,66
 -8 -516 -8 -516 -8 -496.5 c 0,67,68
 -8 -452.6 -8 -452.6 35 -444 c 0,69,70
 94 -432 94 -432 147 -426 c 1,71,-1
 147 1327 l 1,72,73
 25.5 1338.25 25.5 1338.25 12.75 1340.625 c 128,-1,74
 0 1343 0 1343 -12.5 1358 c 128,-1,75
 -25 1373 -25 1373 -25 1393 c 2,76,-1
 -25 1401 l 1,77,78
 -21 1419 -21 1419 -6 1432.5 c 128,-1,79
 9 1446 9 1446 21 1446 c 128,-1,80
 33 1446 33 1446 34.5 1445 c 128,-1,81
 36 1444 36 1444 56 1442 c 128,-1,82
 76 1440 76 1440 108.5 1437 c 128,-1,28
 141 1434 141 1434 183 1432 c 128,-1,29
EndSplineSet
EndChar

StartChar: brokenbar
Encoding: 166 166 7
Width: 666
Flags: HW
LayerCount: 2
Fore
SplineSet
399 -311 m 1,0,-1
 399 594 l 1,1,-1
 264 594 l 1,2,-1
 264 -311 l 1,3,-1
 399 -311 l 1,0,-1
506 -365 m 2,4,5
 506 -386 506 -386 490 -402 c 128,-1,6
 474 -418 474 -418 453 -418 c 2,7,-1
 213 -418 l 2,8,9
 190 -418 190 -418 175 -402 c 128,-1,10
 160 -386 160 -386 160 -365 c 2,11,-1
 160 647 l 2,12,13
 160 669 160 669 175 683.5 c 128,-1,14
 190 698 190 698 213 698 c 2,15,-1
 453 698 l 2,16,17
 474 698 474 698 490 683.5 c 128,-1,18
 506 669 506 669 506 647 c 2,19,-1
 506 -365 l 2,4,5
399 918 m 1,20,-1
 399 1823 l 1,21,-1
 264 1823 l 1,22,-1
 264 918 l 1,23,-1
 399 918 l 1,20,-1
506 864 m 2,24,25
 506 843 506 843 490 827 c 128,-1,26
 474 811 474 811 453 811 c 2,27,-1
 213 811 l 2,28,29
 190 811 190 811 175 827 c 128,-1,30
 160 843 160 843 160 864 c 2,31,-1
 160 1876 l 2,32,33
 160 1898 160 1898 175 1912.5 c 128,-1,34
 190 1927 190 1927 213 1927 c 2,35,-1
 453 1927 l 2,36,37
 474 1927 474 1927 490 1912.5 c 128,-1,38
 506 1898 506 1898 506 1876 c 2,39,-1
 506 864 l 2,24,25
EndSplineSet
EndChar

StartChar: minus
Encoding: 8722 8722 8
Width: 1300
Flags: HW
LayerCount: 2
Fore
SplineSet
1069 801 m 1,0,-1
 1077 803 l 1,1,2
 1099 803 1099 803 1113.5 787 c 128,-1,3
 1128 771 1128 771 1128 750.5 c 128,-1,4
 1128 730 1128 730 1115.5 715 c 128,-1,5
 1103 700 1103 700 1083 698 c 0,6,7
 865 668 865 668 649.5 668 c 128,-1,8
 434 668 434 668 217 698 c 0,9,10
 197 700 197 700 184.5 715 c 128,-1,11
 172 730 172 730 172 750.5 c 128,-1,12
 172 771 172 771 187 787 c 128,-1,13
 202 803 202 803 225 803 c 1,14,15
 253.346938776 793.551020408 253.346938776 793.551020408 407.173469388 779.775510204 c 128,-1,16
 561 766 561 766 696.388888889 766 c 128,-1,17
 831.777777778 766 831.777777778 766 1069 801 c 1,0,-1
EndSplineSet
EndChar

StartChar: multiply
Encoding: 215 215 9
Width: 1104
Flags: HW
LayerCount: 2
Fore
SplineSet
862 414 m 1,0,-1
 377 1069 l 1,1,-1
 254 1051 l 1,2,-1
 739 395 l 1,3,-1
 862 414 l 1,0,-1
723 287 m 1,4,-1
 715 287 l 2,5,6
 687 287 687 287 674 307 c 1,7,-1
 471 582 l 1,8,-1
 197 303 l 1,9,10
 182.777777778 287 182.777777778 287 159.888888889 287 c 128,-1,11
 137 287 137 287 121.5 303.5 c 128,-1,12
 106 320 106 320 106 334.5 c 0,13,14
 106 362 106 362 121 377 c 2,15,-1
 408 666 l 1,16,-1
 117 1059 l 1,17,18
 106 1076.6 106 1076.6 106 1094.3 c 128,-1,19
 106 1112 106 1112 119.5 1126.5 c 128,-1,20
 133 1141 133 1141 152 1143 c 2,21,-1
 391 1178 l 1,22,-1
 399 1178 l 2,23,24
 427 1178 427 1178 442 1157 c 2,25,-1
 631 901 l 1,26,-1
 891 1163 l 2,27,28
 906 1178 906 1178 928.5 1178 c 128,-1,29
 951 1178 951 1178 966 1162 c 128,-1,30
 981 1146 981 1146 981 1125 c 128,-1,31
 981 1104 981 1104 967 1090 c 2,32,-1
 694 815 l 1,33,-1
 997 406 l 1,34,35
 1008 393.428571429 1008 393.428571429 1008 372.714285714 c 128,-1,36
 1008 352 1008 352 994 338.5 c 128,-1,37
 980 325 980 325 963 322 c 2,38,-1
 723 287 l 1,4,-1
EndSplineSet
EndChar

StartChar: exclam
Encoding: 33 33 10
Width: 578
Flags: HW
LayerCount: 2
Fore
SplineSet
325.5 74 m 128,-1,1
 340 89 340 89 340 108 c 128,-1,2
 340 127 340 127 325.5 141.5 c 128,-1,3
 311 156 311 156 291 156 c 256,4,5
 271 156 271 156 257.5 141.5 c 128,-1,6
 244 127 244 127 244 108 c 128,-1,7
 244 89 244 89 257.5 74 c 128,-1,8
 271 59 271 59 291 59 c 256,9,0
 311 59 311 59 325.5 74 c 128,-1,1
291 694 m 1,10,11
 360 1103.07142857 360 1103.07142857 360 1284 c 0,12,13
 360 1313 360 1313 340 1333.5 c 128,-1,14
 320 1354 320 1354 291.5 1354 c 128,-1,15
 263 1354 263 1354 242 1333.5 c 128,-1,16
 221 1313 221 1313 221 1272 c 128,-1,17
 221 1231 221 1231 227 1163 c 128,-1,18
 233 1095 233 1095 243 1018 c 0,19,20
 258.248618785 900.585635359 258.248618785 900.585635359 291 694 c 1,10,11
444 108.5 m 0,21,22
 444 77 444 77 432 49 c 128,-1,23
 420 21 420 21 399.5 0 c 0,24,25
 355.571428571 -45 355.571428571 -45 291 -45 c 256,26,27
 227 -45 227 -45 182 0 c 128,-1,28
 137 45 137 45 137 109 c 0,29,30
 137 207.714285714 137 207.714285714 231 248 c 0,31,32
 259 260 259 260 291 260 c 256,33,34
 354.4 260 354.4 260 399.5 216 c 0,35,36
 444 172.585365854 444 172.585365854 444 108.5 c 0,21,22
346.5 370.5 m 0,37,38
 337.232876712 309 337.232876712 309 291 309 c 0,39,40
 272 309 272 309 257.5 321.5 c 128,-1,41
 243 334 243 334 237.5 371 c 128,-1,42
 232 408 232 408 222 466 c 128,-1,43
 212 524 212 524 199.5 603.5 c 128,-1,44
 187 683 187 683 171.5 780.5 c 128,-1,45
 156 878 156 878 144 968.5 c 0,46,47
 117 1172.125 117 1172.125 117 1246.0625 c 128,-1,48
 117 1320 117 1320 130.5 1351.5 c 128,-1,49
 144 1383 144 1383 168 1407 c 0,50,51
 219 1458 219 1458 291 1458 c 256,52,53
 364 1458 364 1458 415 1407 c 0,54,55
 467 1355 467 1355 467 1287.5 c 0,56,57
 467 1109.77777778 467 1109.77777778 409.5 758.388888889 c 128,-1,58
 352 407 352 407 346.5 370.5 c 0,37,38
EndSplineSet
EndChar

StartChar: quotedbl
Encoding: 34 34 11
Width: 834
Flags: HW
LayerCount: 2
Fore
SplineSet
600 1124 m 1,0,1
 649 1256.3 649 1256.3 649 1288.15 c 128,-1,2
 649 1320 649 1320 634.5 1334 c 128,-1,3
 620 1348 620 1348 600.5 1348 c 128,-1,4
 581 1348 581 1348 567 1334 c 128,-1,5
 553 1320 553 1320 553 1298 c 0,6,7
 553 1257.57894737 553 1257.57894737 600 1124 c 1,0,1
754 1303.5 m 0,8,9
 754 1276 754 1276 747 1243.5 c 128,-1,10
 740 1211 740 1211 729 1175.5 c 128,-1,11
 718 1140 718 1140 705 1104 c 128,-1,12
 692 1068 692 1068 680.5 1038.5 c 128,-1,13
 669 1009 669 1009 660 988 c 128,-1,14
 651 967 651 967 649 961 c 0,15,16
 636 928 636 928 600 928 c 0,17,18
 565.375 928 565.375 928 553 961 c 1,19,20
 489.864864865 1087.27027027 489.864864865 1087.27027027 456 1244.5 c 0,21,22
 449 1277 449 1277 449 1304 c 128,-1,23
 449 1331 449 1331 461 1359 c 128,-1,24
 473 1387 473 1387 493 1408 c 0,25,26
 536.80952381 1454 536.80952381 1454 600 1454 c 0,27,28
 662 1454 662 1454 708 1408 c 128,-1,29
 754 1362 754 1362 754 1303.5 c 0,8,9
231 1124 m 1,30,31
 281 1259 281 1259 281 1289.5 c 128,-1,32
 281 1320 281 1320 266 1334 c 128,-1,33
 251 1348 251 1348 232 1348 c 128,-1,34
 213 1348 213 1348 198.5 1334 c 128,-1,35
 184 1320 184 1320 184 1304 c 128,-1,36
 184 1288 184 1288 188 1269 c 128,-1,37
 192 1250 192 1250 198.5 1227 c 0,38,39
 208.714285714 1190.85714286 208.714285714 1190.85714286 231 1124 c 1,30,31
385 1303.5 m 0,40,41
 385 1276 385 1276 378 1243.5 c 128,-1,42
 371 1211 371 1211 360.5 1175.5 c 128,-1,43
 350 1140 350 1140 337 1104 c 128,-1,44
 324 1068 324 1068 312.5 1038.5 c 128,-1,45
 301 1009 301 1009 292 988 c 128,-1,46
 283 967 283 967 281 961 c 0,47,48
 267 928 267 928 231 928 c 0,49,50
 198.4375 928 198.4375 928 184 961 c 1,51,52
 120.864864865 1087.27027027 120.864864865 1087.27027027 87 1244.5 c 0,53,54
 80 1277 80 1277 80 1304 c 128,-1,55
 80 1331 80 1331 92 1359 c 128,-1,56
 104 1387 104 1387 124 1408 c 0,57,58
 167.80952381 1454 167.80952381 1454 231 1454 c 0,59,60
 293 1454 293 1454 339 1408 c 128,-1,61
 385 1362 385 1362 385 1303.5 c 0,40,41
EndSplineSet
EndChar

StartChar: numbersign
Encoding: 35 35 12
Width: 1190
Flags: HW
LayerCount: 2
Fore
SplineSet
520 1223 m 1,0,-1
 492 1223 l 1,1,-1
 301 242 l 1,2,-1
 332 242 l 1,3,-1
 520 1223 l 1,0,-1
508 604 m 1,4,-1
 571 606 l 1,5,-1
 591.5 606 l 2,6,7
 601 606 601 606 612 604 c 1,8,-1
 662 860 l 1,9,-1
 629 858 l 1,10,-1
 557 860 l 1,11,-1
 508 604 l 1,4,-1
868 1223 m 1,12,-1
 840 1223 l 1,13,-1
 647 242 l 1,14,-1
 680 242 l 1,15,-1
 868 1223 l 1,12,-1
928 979 m 1,16,-1
 1051 995 l 2,17,18
 1053 995 1053 995 1065.5 995 c 128,-1,19
 1078 995 1078 995 1092 978.5 c 128,-1,20
 1106 962 1106 962 1106 942 c 256,21,22
 1106 922 1106 922 1093.5 907.5 c 128,-1,23
 1081 893 1081 893 1052 889 c 0,24,25
 998.833333333 881.666666667 998.833333333 881.666666667 907 872 c 1,26,-1
 854 592 l 1,27,28
 914.125 587.125 914.125 587.125 999 575 c 0,29,30
 1044 569.130434783 1044 569.130434783 1044 516 c 1,31,32
 1041 496 1041 496 1026.5 483.5 c 128,-1,33
 1012 471 1012 471 993 471 c 2,34,-1
 985 471 l 1,35,36
 912.405063291 480.810126582 912.405063291 480.810126582 834 487 c 1,37,-1
 774 178 l 2,38,39
 771 160 771 160 756.5 148.5 c 128,-1,40
 742 137 742 137 723 137 c 2,41,-1
 584 137 l 2,42,43
 561 137 561 137 546.5 152.5 c 128,-1,44
 532 168 532 168 532 188 c 2,45,-1
 532 199 l 1,46,-1
 592 500 l 1,47,-1
 487 500 l 1,48,-1
 426 178 l 2,49,50
 423 160 423 160 408 148.5 c 128,-1,51
 393 137 393 137 375 137 c 2,52,-1
 238 137 l 2,53,54
 215 137 215 137 199.5 152.5 c 128,-1,55
 184 168 184 168 184 188 c 2,56,-1
 184 199 l 1,57,-1
 240 481 l 1,58,59
 191 476.739130435 191 476.739130435 147 471 c 1,60,-1
 141 471 l 2,61,62
 118 471 118 471 103 486.5 c 128,-1,63
 88 502 88 502 88 522 c 256,64,65
 88 542 88 542 100.5 557 c 128,-1,66
 113 572 113 572 139 576 c 0,67,68
 180.08 582.32 180.08 582.32 262 590 c 1,69,-1
 317 874 l 1,70,71
 234 884.709677419 234 884.709677419 204.5 888.85483871 c 0,72,73
 150 896.512848551 150 896.512848551 150 942 c 2,74,-1
 150 950 l 1,75,76
 153 969 153 969 168 982 c 128,-1,77
 183 995 183 995 203 995 c 1,78,-1
 338 979 l 1,79,-1
 397 1286 l 2,80,81
 400 1305 400 1305 415 1317 c 128,-1,82
 430 1329 430 1329 449 1329 c 2,83,-1
 584 1329 l 2,84,85
 607 1329 607 1329 622 1312 c 128,-1,86
 637 1295 637 1295 637 1282.5 c 128,-1,87
 637 1270 637 1270 635 1266 c 1,88,-1
 578 965 l 1,89,-1
 682 965 l 1,90,-1
 745 1286 l 2,91,92
 754.052631579 1329 754.052631579 1329 797 1329 c 2,93,-1
 932 1329 l 2,94,95
 956 1329 956 1329 970.5 1312 c 128,-1,96
 985 1295 985 1295 985 1276 c 1,97,-1
 928 979 l 1,16,-1
EndSplineSet
EndChar

StartChar: ampersand
Encoding: 38 38 13
Width: 1997
Flags: HW
LayerCount: 2
Fore
SplineSet
494 68 m 1,0,1
 332 188 332 188 332 426 c 0,2,3
 332 661.586206897 332 661.586206897 473 788 c 1,4,5
 344.383248731 762.276649746 344.383248731 762.276649746 270.5 665.5 c 0,6,7
 197 569.225352113 197 569.225352113 197 423.612676056 c 128,-1,8
 197 278 197 278 275 187.5 c 128,-1,9
 353 97 353 97 494 68 c 1,0,1
1665 856 m 1,10,11
 1637.8 864 1637.8 864 1592.4 864 c 128,-1,12
 1547 864 1547 864 1498.5 851.5 c 128,-1,13
 1450 839 1450 839 1403 814.5 c 0,14,15
 1304.07503234 762.932729625 1304.07503234 762.932729625 1234.53751617 682.966364812 c 0,16,17
 1116.69505579 547.450549805 1116.69505579 547.450549805 985 492 c 1,18,-1
 1008 492 l 2,19,20
 1161.38961039 492 1161.38961039 492 1333.5 634.5 c 0,21,22
 1380 673 1380 673 1420.5 710 c 128,-1,23
 1461 747 1461 747 1499 779.5 c 128,-1,24
 1537 812 1537 812 1571 827.5 c 0,25,26
 1624.66942149 851.966942149 1624.66942149 851.966942149 1665 856 c 1,10,11
999 1114 m 256,27,28
 999 1145 999 1145 978 1166.5 c 128,-1,29
 957 1188 957 1188 926 1188 c 256,30,31
 895 1188 895 1188 873.5 1166.5 c 128,-1,32
 852 1145 852 1145 852 1114 c 256,33,34
 852 1083 852 1083 873.5 1061.5 c 128,-1,35
 895 1040 895 1040 926 1040 c 256,36,37
 957 1040 957 1040 978 1061.5 c 128,-1,38
 999 1083 999 1083 999 1114 c 256,27,28
1706 437 m 128,-1,40
 1712 450 1712 450 1712 473 c 128,-1,41
 1712 496 1712 496 1690.5 517.5 c 128,-1,42
 1669 539 1669 539 1638 539 c 256,43,44
 1607 539 1607 539 1586 517.5 c 128,-1,45
 1565 496 1565 496 1565 466 c 128,-1,46
 1565 436 1565 436 1586 413.5 c 128,-1,47
 1607 391 1607 391 1630 391 c 128,-1,48
 1653 391 1653 391 1666.5 397 c 128,-1,49
 1680 403 1680 403 1690 413.5 c 128,-1,39
 1700 424 1700 424 1706 437 c 128,-1,40
717 563 m 1,50,-1
 729 561 l 1,51,52
 735 555 735 555 775.5 555 c 128,-1,53
 816 555 816 555 856.5 561.5 c 128,-1,54
 897 568 897 568 944 588.5 c 0,55,56
 1055.09578107 636.956670468 1055.09578107 636.956670468 1147 743 c 0,57,58
 1289.57013484 906.803984705 1289.57013484 906.803984705 1476.5 955.5 c 0,59,60
 1536 971 1536 971 1606 971 c 128,-1,61
 1676 971 1676 971 1743 938.5 c 128,-1,62
 1810 906 1810 906 1857.5 853 c 0,63,64
 1956 743.094736842 1956 743.094736842 1956 588 c 0,65,66
 1956 451.571428571 1956 451.571428571 1866 368 c 0,67,68
 1778.76923077 287 1778.76923077 287 1647 287 c 0,69,70
 1568.75 287 1568.75 287 1513.5 339 c 0,71,72
 1458 391.235294118 1458 391.235294118 1458 465 c 256,73,74
 1458 539 1458 539 1511.5 592.5 c 0,75,76
 1564 645 1564 645 1638 645 c 256,77,78
 1712 645 1712 645 1764 593 c 0,79,80
 1814.97222222 542.027777778 1814.97222222 542.027777778 1817 467 c 1,81,82
 1851 518 1851 518 1851 588 c 1,83,84
 1841.16730664 699.437191443 1841.16730664 699.437191443 1756 740.5 c 0,85,86
 1728 754 1728 754 1696 754 c 128,-1,87
 1664 754 1664 754 1637.5 743.5 c 128,-1,88
 1611 733 1611 733 1586.5 715.5 c 0,89,90
 1561.58823529 697.705882353 1561.58823529 697.705882353 1514.79411765 653.852941176 c 128,-1,91
 1468 610 1468 610 1435 581 c 128,-1,92
 1402 552 1402 552 1363.5 522 c 0,93,94
 1274.96058662 453.008249313 1274.96058662 453.008249313 1202 422 c 1,95,96
 1208 384 1208 384 1208 348 c 0,97,98
 1208 169.353383459 1208 169.353383459 1059.5 51 c 0,99,100
 921.481132075 -59 921.481132075 -59 739 -59 c 0,101,102
 285.617021277 -59 285.617021277 -59 144 197 c 0,103,104
 92 291 92 291 92 401 c 128,-1,105
 92 511 92 511 112.5 581.5 c 128,-1,106
 133 652 133 652 171.5 709 c 0,107,108
 250.386167147 825.792507205 250.386167147 825.792507205 393 874 c 1,109,110
 276 952.795918367 276 952.795918367 276 1087 c 0,111,112
 276 1233.35245902 276 1233.35245902 412 1312.5 c 0,113,114
 527.985915493 1380 527.985915493 1380 709 1380 c 0,115,116
 992.118644068 1380 992.118644068 1380 1077.5 1217.5 c 0,117,118
 1104 1167.06451613 1104 1167.06451613 1104 1122.03225806 c 128,-1,119
 1104 1077 1104 1077 1090 1044.5 c 128,-1,120
 1076 1012 1076 1012 1052 988 c 0,121,122
 1000 936 1000 936 926 936 c 256,123,124
 852 936 852 936 800 988 c 128,-1,125
 748 1040 748 1040 748 1125.7 c 128,-1,126
 748 1211.4 748 1211.4 825 1262 c 1,127,128
 777 1274 777 1274 713.5 1274 c 128,-1,129
 650 1274 650 1274 591.5 1265 c 128,-1,130
 533 1256 533 1256 486.5 1234 c 0,131,132
 383 1185.03225806 383 1185.03225806 383 1085 c 0,133,134
 383 1014.66666667 383 1014.66666667 443 968 c 0,135,136
 531.714285714 899 531.714285714 899 709 899 c 2,137,-1
 713 899 l 2,138,139
 733 899 733 899 747.5 884.5 c 128,-1,140
 762 870 762 870 764 848 c 1,141,-1
 764 846 l 2,142,143
 764 826 764 826 750.5 811 c 128,-1,144
 737 796 737 796 725.5 794.5 c 128,-1,145
 714 793 714 793 692 789 c 128,-1,146
 670 785 670 785 639 772.5 c 128,-1,147
 608 760 608 760 572 735.5 c 128,-1,148
 536 711 536 711 506 670.5 c 0,149,150
 436 576 436 576 436 426 c 0,151,152
 436 258.534653465 436 258.534653465 544.5 164 c 0,153,154
 645.5 76 645.5 76 809 76 c 0,155,156
 932.565217391 76 932.565217391 76 1016.5 147.5 c 0,157,158
 1104 222.037037037 1104 222.037037037 1104 348 c 0,159,160
 1104 369 1104 369 1100 393 c 1,161,162
 1063.2 385 1063.2 385 1003.6 385 c 128,-1,163
 944 385 944 385 887.5 396.5 c 128,-1,164
 831 408 831 408 788 422.5 c 0,165,166
 718.694117647 445.870588235 718.694117647 445.870588235 698.347058824 458.435294118 c 0,167,168
 664 479.6452732 664 479.6452732 664 507.3226366 c 128,-1,169
 664 535 664 535 681 549 c 128,-1,170
 698 563 698 563 717 563 c 1,50,-1
EndSplineSet
EndChar

StartChar: quotesingle
Encoding: 39 39 14
Width: 465
Flags: HW
LayerCount: 2
Fore
SplineSet
231 1124 m 1,0,1
 281 1259 281 1259 281 1289.5 c 128,-1,2
 281 1320 281 1320 266 1334 c 128,-1,3
 251 1348 251 1348 232 1348 c 128,-1,4
 213 1348 213 1348 198.5 1334 c 128,-1,5
 184 1320 184 1320 184 1304 c 128,-1,6
 184 1288 184 1288 188 1269 c 128,-1,7
 192 1250 192 1250 198.5 1227 c 0,8,9
 208.714285714 1190.85714286 208.714285714 1190.85714286 231 1124 c 1,0,1
385 1303.5 m 0,10,11
 385 1276 385 1276 378 1243.5 c 128,-1,12
 371 1211 371 1211 360.5 1175.5 c 128,-1,13
 350 1140 350 1140 337 1104 c 128,-1,14
 324 1068 324 1068 312.5 1038.5 c 128,-1,15
 301 1009 301 1009 292 988 c 128,-1,16
 283 967 283 967 281 961 c 0,17,18
 267 928 267 928 231 928 c 0,19,20
 198.4375 928 198.4375 928 184 961 c 1,21,22
 120.864864865 1087.27027027 120.864864865 1087.27027027 87 1244.5 c 0,23,24
 80 1277 80 1277 80 1304 c 128,-1,25
 80 1331 80 1331 92 1359 c 128,-1,26
 104 1387 104 1387 124 1408 c 0,27,28
 167.80952381 1454 167.80952381 1454 231 1454 c 0,29,30
 293 1454 293 1454 339 1408 c 128,-1,31
 385 1362 385 1362 385 1303.5 c 0,10,11
EndSplineSet
EndChar

StartChar: parenleft
Encoding: 40 40 15
Width: 823
Flags: HW
LayerCount: 2
Fore
SplineSet
494 -172 m 1,0,1
 301 208.921052632 301 208.921052632 301 778 c 0,2,3
 301 1349.42105263 301 1349.42105263 489 1671 c 1,4,5
 486 1669 486 1669 484.5 1667 c 128,-1,6
 483 1665 483 1665 481 1663 c 0,7,8
 166 1363.94936709 166 1363.94936709 166 782 c 0,9,10
 166 454.967741935 166 454.967741935 272.5 187 c 0,11,12
 352.72655273 -14.8603584827 352.72655273 -14.8603584827 489 -166 c 1,13,-1
 494 -172 l 1,0,1
822.5 1935 m 128,-1,15
 838 1918 838 1918 838 1900.5 c 0,16,17
 838 1865.33333333 838 1865.33333333 806.5 1850.66666667 c 128,-1,18
 775 1836 775 1836 744.5 1813 c 0,19,20
 493.47516129 1623.70258065 493.47516129 1623.70258065 424.5 1098 c 0,21,22
 406 957 406 957 406 777 c 128,-1,23
 406 597 406 597 425 450 c 128,-1,24
 444 303 444 303 473.5 186.5 c 0,25,26
 563.695402299 -169.695402299 563.695402299 -169.695402299 749 -355 c 0,27,28
 782 -389 782 -389 810 -407.5 c 128,-1,29
 838 -426 838 -426 838 -452 c 128,-1,30
 838 -478 838 -478 820.5 -493 c 128,-1,31
 803 -508 803 -508 791 -508 c 0,32,33
 756.555555556 -508 756.555555556 -508 678.777777778 -459 c 0,34,35
 518.165861514 -357.814492754 518.165861514 -357.814492754 434.582930757 -264.407246377 c 128,-1,36
 351 -171 351 -171 289 -76.5 c 128,-1,37
 227 18 227 18 176.5 144 c 0,38,39
 61 432.178217822 61 432.178217822 61 782 c 0,40,41
 61 1136.69902913 61 1136.69902913 177.5 1402.5 c 0,42,43
 265.986875684 1604.3875319 265.986875684 1604.3875319 414 1745 c 1,44,45
 524.330287206 1846.97193211 524.330287206 1846.97193211 657 1908 c 0,46,47
 707 1931 707 1931 739 1940 c 128,-1,48
 771 1949 771 1949 774 1950.5 c 128,-1,49
 777 1952 777 1952 779.5 1952 c 2,50,-1
 784 1952 l 2,51,14
 807 1952 807 1952 822.5 1935 c 128,-1,15
EndSplineSet
EndChar

StartChar: parenright
Encoding: 41 41 16
Width: 823
Flags: HW
LayerCount: 2
Fore
SplineSet
334 1671 m 1,0,1
 522 1340.72972973 522 1340.72972973 522 778 c 0,2,3
 522 206.947368421 522 206.947368421 330 -172 c 1,4,-1
 334 -166 l 1,5,6
 551.351598174 70.7579908676 551.351598174 70.7579908676 627.5 451.5 c 0,7,8
 657 599 657 599 657 782 c 0,9,10
 657 1363.94936709 657 1363.94936709 342 1663 c 0,11,12
 340 1665 340 1665 338.5 1667 c 128,-1,13
 337 1669 337 1669 334 1671 c 1,0,1
729.5 1131.5 m 128,-1,15
 762 978 762 978 762 782.5 c 128,-1,16
 762 587 762 587 729.5 428.5 c 128,-1,17
 697 270 697 270 646.5 144 c 0,18,19
 559.719293914 -72.5221577583 559.719293914 -72.5221577583 414 -238 c 1,20,21
 306.952522255 -356.575667656 306.952522255 -356.575667656 173.5 -441.5 c 0,22,23
 69 -508 69 -508 42.5 -508 c 128,-1,24
 16 -508 16 -508 1 -491.5 c 128,-1,25
 -14 -475 -14 -475 -14 -450 c 128,-1,26
 -14 -425 -14 -425 10 -410 c 1,27,28
 20.4482758621 -410 20.4482758621 -410 61.724137931 -368 c 0,29,30
 148.529411765 -279.671826625 148.529411765 -279.671826625 197.764705882 -192.335913313 c 128,-1,31
 247 -105 247 -105 283.5 -17.5 c 128,-1,32
 320 70 320 70 350 186.5 c 0,33,34
 418 450.566666667 418 450.566666667 418 778 c 0,35,36
 418 1355.58823529 418 1355.58823529 217 1663 c 1,37,38
 122.905745063 1802.86983842 122.905745063 1802.86983842 20 1849 c 0,39,40
 -14 1864.86666667 -14 1864.86666667 -14 1893.93333333 c 128,-1,41
 -14 1923 -14 1923 3 1937.5 c 128,-1,42
 20 1952 20 1952 30.5 1952 c 2,43,-1
 43.5 1952 l 2,44,45
 46 1952 46 1952 49 1950.5 c 128,-1,46
 52 1949 52 1949 84 1940 c 128,-1,47
 116 1931 116 1931 166 1908 c 0,48,49
 300.660574413 1846.05613577 300.660574413 1846.05613577 385.330287206 1767.02806789 c 128,-1,50
 470 1688 470 1688 532.5 1604 c 128,-1,51
 595 1520 595 1520 646 1402.5 c 128,-1,14
 697 1285 697 1285 729.5 1131.5 c 128,-1,15
EndSplineSet
EndChar

StartChar: asterisk
Encoding: 42 42 17
Width: 1096
Flags: HW
LayerCount: 2
Fore
SplineSet
444 885 m 1,0,1
 333.509803922 808.137254902 333.509803922 808.137254902 303 770 c 1,2,3
 295 754 295 754 295 737.5 c 128,-1,4
 295 721 295 721 310 707.5 c 128,-1,5
 325 694 325 694 346.5 694 c 128,-1,6
 368 694 368 694 378 709.5 c 128,-1,7
 388 725 388 725 396 742.5 c 128,-1,8
 404 760 404 760 412.5 782.5 c 128,-1,9
 421 805 421 805 428.5 831.5 c 128,-1,10
 436 858 436 858 444 885 c 1,0,1
397 1061 m 1,11,12
 271 1169 271 1169 231 1169 c 0,13,14
 211 1169 211 1169 197.5 1154 c 128,-1,15
 184 1139 184 1139 184 1123.5 c 0,16,17
 184 1081.26086957 184 1081.26086957 231.5 1073 c 0,18,19
 287.048484848 1063.33939394 287.048484848 1063.33939394 397 1061 c 1,11,12
795.5 709 m 128,-1,21
 809 724 809 724 809 739 c 128,-1,22
 809 754 809 754 801 770 c 1,23,24
 768.813084112 810.23364486 768.813084112 810.23364486 659 885 c 1,25,26
 699.366972477 748.76146789 699.366972477 748.76146789 717.683486239 721.380733945 c 128,-1,27
 736 694 736 694 759 694 c 128,-1,20
 782 694 782 694 795.5 709 c 128,-1,21
547 1180 m 1,28,29
 594 1321 594 1321 594 1348.5 c 128,-1,30
 594 1376 594 1376 580.5 1390.5 c 128,-1,31
 567 1405 567 1405 547 1405 c 256,32,33
 527 1405 527 1405 513.5 1390.5 c 128,-1,34
 500 1376 500 1376 500 1353.5 c 0,35,36
 500 1306.9 500 1306.9 547 1180 c 1,28,29
893.5 1156.5 m 128,-1,38
 878 1169 878 1169 867.5 1169 c 2,39,-1
 854 1169 l 2,40,41
 831.142857143 1169 831.142857143 1169 774.571428571 1124 c 128,-1,42
 718 1079 718 1079 696 1061 c 1,43,44
 846.857142857 1064.14285714 846.857142857 1064.14285714 869.928571429 1073.57142857 c 0,45,46
 909 1089.53869969 909 1089.53869969 909 1116.76934985 c 128,-1,37
 909 1144 909 1144 893.5 1156.5 c 128,-1,38
442 1161 m 1,47,48
 395 1296.77777778 395 1296.77777778 395 1341.88888889 c 128,-1,49
 395 1387 395 1387 407 1415 c 128,-1,50
 419 1443 419 1443 439.5 1464 c 0,51,52
 483.428571429 1509 483.428571429 1509 547 1509 c 0,53,54
 645.714285714 1509 645.714285714 1509 686 1415 c 0,55,56
 698 1387 698 1387 698 1363 c 128,-1,57
 698 1339 698 1339 694 1316.5 c 128,-1,58
 690 1294 690 1294 683.5 1268 c 0,59,60
 672 1222 672 1222 651 1159 c 1,61,62
 755.421259843 1243.53149606 755.421259843 1243.53149606 789.210629921 1257.26574803 c 0,63,64
 830.380679375 1274 830.380679375 1274 862.690339688 1274 c 128,-1,65
 895 1274 895 1274 923 1261.5 c 128,-1,66
 951 1249 951 1249 971 1228 c 0,67,68
 1014 1182.85 1014 1182.85 1014 1129.425 c 128,-1,69
 1014 1076 1014 1076 988 1036 c 0,70,71
 947.284263959 973.360406091 947.284263959 973.360406091 817.5 961 c 0,72,73
 786 958 786 958 739 956 c 1,74,75
 851.332339791 878.615499255 851.332339791 878.615499255 885 829 c 1,76,77
 913 791.666666667 913 791.666666667 913 750.333333333 c 128,-1,78
 913 709 913 709 900.5 681.5 c 128,-1,79
 888 654 888 654 867.5 634 c 0,80,81
 822.4 590 822.4 590 773.7 590 c 0,82,83
 681.709677419 590 681.709677419 590 637 653 c 0,84,85
 590.294605809 719.165975104 590.294605809 719.165975104 553 879 c 1,86,87
 498.652173913 697.84057971 498.652173913 697.84057971 471.826086957 659.920289855 c 0,88,89
 422.362124976 590 422.362124976 590 342 590 c 0,90,91
 280.380952381 590 280.380952381 590 234.5 637 c 0,92,93
 190 682.585365854 190 682.585365854 190 741 c 0,94,95
 190 790.333333333 190 790.333333333 214 823.666666667 c 0,96,97
 254.444444444 879.839506173 254.444444444 879.839506173 365 956 c 1,98,99
 233.181818182 961.272727273 233.181818182 961.272727273 183.590909091 978.636363636 c 128,-1,100
 134 996 134 996 107 1036 c 128,-1,101
 80 1076 80 1076 80 1115 c 128,-1,102
 80 1154 80 1154 93 1182 c 128,-1,103
 106 1210 106 1210 127 1230.5 c 0,104,105
 171.56097561 1274 171.56097561 1274 216.780487805 1274 c 128,-1,106
 262 1274 262 1274 289 1264.5 c 0,107,108
 337.967833491 1247.27057711 337.967833491 1247.27057711 442 1161 c 1,47,48
EndSplineSet
EndChar

StartChar: plus
Encoding: 43 43 18
Width: 1096
Flags: HW
LayerCount: 2
Fore
SplineSet
616 375 m 1,0,-1
 616 1092 l 1,1,-1
 481 1092 l 1,2,-1
 481 375 l 1,3,-1
 616 375 l 1,0,-1
721 776 m 1,4,5
 904.276595745 785.319148936 904.276595745 785.319148936 975 803 c 1,6,7
 997 803 997 803 1011.5 786.5 c 128,-1,8
 1026 770 1026 770 1026 750 c 256,9,10
 1026 730 1026 730 1013.5 715 c 128,-1,11
 1001 700 1001 700 957 693.5 c 0,12,13
 854.491891892 678.356756757 854.491891892 678.356756757 721 672 c 1,14,-1
 721 322 l 2,15,16
 721 300 721 300 706 284 c 128,-1,17
 691 268 691 268 668 268 c 2,18,-1
 428 268 l 2,19,20
 406 268 406 268 390.5 284 c 128,-1,21
 375 300 375 300 375 322 c 2,22,-1
 375 672 l 1,23,24
 235.858947368 678.732631579 235.858947368 678.732631579 115 698 c 1,25,26
 70 703.4 70 703.4 70 758 c 1,27,28
 73 776 73 776 88 789.5 c 128,-1,29
 103 803 103 803 123 803 c 1,30,31
 173.22 786.26 173.22 786.26 375 776 c 1,32,-1
 375 1143 l 2,33,34
 375 1164 375 1164 390.5 1180 c 128,-1,35
 406 1196 406 1196 428 1196 c 2,36,-1
 668 1196 l 2,37,38
 691 1196 691 1196 706 1180 c 128,-1,39
 721 1164 721 1164 721 1143 c 2,40,-1
 721 776 l 1,4,5
EndSplineSet
EndChar

StartChar: comma
Encoding: 44 44 19
Width: 500
Flags: HW
LayerCount: 2
Fore
SplineSet
281.5 53.5 m 128,-1,1
 295 68 295 68 295 87.5 c 128,-1,2
 295 107 295 107 281.5 121 c 128,-1,3
 268 135 268 135 248 135 c 256,4,5
 228 135 228 135 213.5 121 c 128,-1,6
 199 107 199 107 199 87.5 c 128,-1,7
 199 68 199 68 213.5 53.5 c 128,-1,8
 228 39 228 39 248 39 c 256,9,0
 268 39 268 39 281.5 53.5 c 128,-1,1
276 -63 m 1,10,11
 264 -66 264 -66 240 -66 c 128,-1,12
 216 -66 216 -66 188 -54 c 128,-1,13
 160 -42 160 -42 139 -21 c 0,14,15
 94 24 94 24 94 88 c 0,16,17
 94 151.571428571 94 151.571428571 139 195.5 c 0,18,19
 184.585365854 240 184.585365854 240 236.292682927 240 c 128,-1,20
 288 240 288 240 318.5 224 c 128,-1,21
 349 208 349 208 368.5 180.5 c 0,22,23
 408 124.794871795 408 124.794871795 408 61.3974358974 c 128,-1,24
 408 -2 408 -2 396.5 -46 c 128,-1,25
 385 -90 385 -90 359.5 -129.5 c 0,26,27
 302.941437445 -217.11032239 302.941437445 -217.11032239 197 -258 c 0,28,29
 187 -262 187 -262 171 -262 c 128,-1,30
 155 -262 155 -262 140 -245.5 c 128,-1,31
 125 -229 125 -229 125 -211 c 0,32,33
 125 -173.125 125 -173.125 165 -158.0625 c 0,34,35
 235.931342045 -131.352416511 235.931342045 -131.352416511 276 -63 c 1,10,11
EndSplineSet
EndChar

StartChar: hyphen
Encoding: 45 45 20
Width: 1235
Flags: HW
LayerCount: 2
Fore
SplineSet
1036 801 m 1,0,-1
 1044 803 l 1,1,2
 1066 803 1066 803 1081 787 c 128,-1,3
 1096 771 1096 771 1096 750.5 c 128,-1,4
 1096 730 1096 730 1083.5 715 c 128,-1,5
 1071 700 1071 700 1051 698 c 0,6,7
 831 668 831 668 617 668 c 128,-1,8
 403 668 403 668 184 698 c 0,9,10
 164 700 164 700 151.5 715 c 128,-1,11
 139 730 139 730 139 750.5 c 128,-1,12
 139 771 139 771 154.5 787 c 128,-1,13
 170 803 170 803 193 803 c 1,14,15
 221.346938776 793.551020408 221.346938776 793.551020408 375.173469388 779.775510204 c 128,-1,16
 529 766 529 766 663.888888889 766 c 128,-1,17
 798.777777778 766 798.777777778 766 1036 801 c 1,0,-1
EndSplineSet
EndChar

StartChar: period
Encoding: 46 46 21
Width: 500
Flags: HW
LayerCount: 2
Fore
SplineSet
284.5 74 m 128,-1,1
 299 89 299 89 299 108 c 128,-1,2
 299 127 299 127 284.5 141.5 c 128,-1,3
 270 156 270 156 250 156 c 256,4,5
 230 156 230 156 216.5 141.5 c 128,-1,6
 203 127 203 127 203 108 c 128,-1,7
 203 89 203 89 216.5 74 c 128,-1,8
 230 59 230 59 250 59 c 256,9,0
 270 59 270 59 284.5 74 c 128,-1,1
403 108.5 m 0,10,11
 403 77 403 77 391 49 c 128,-1,12
 379 21 379 21 358.5 0 c 0,13,14
 314.571428571 -45 314.571428571 -45 250 -45 c 256,15,16
 186 -45 186 -45 141 0 c 128,-1,17
 96 45 96 45 96 109 c 0,18,19
 96 207.714285714 96 207.714285714 190 248 c 0,20,21
 218 260 218 260 250 260 c 256,22,23
 313.4 260 313.4 260 358.5 216 c 0,24,25
 403 172.585365854 403 172.585365854 403 108.5 c 0,10,11
EndSplineSet
EndChar

StartChar: slash
Encoding: 47 47 22
Width: 1233
Flags: HW
LayerCount: 2
Fore
SplineSet
926 1395 m 1,0,1
 805.264012998 1123.78147847 805.264012998 1123.78147847 612 768 c 1,2,3
 844.888019761 1089.99300124 844.888019761 1089.99300124 1036 1395 c 1,4,-1
 926 1395 l 1,0,1
1168.5 1484.5 m 128,-1,6
 1184 1468 1184 1468 1184 1451 c 128,-1,7
 1184 1434 1184 1434 1176 1419 c 1,8,9
 745.668887244 725.796940538 745.668887244 725.796940538 145 -20 c 1,10,11
 126 -41 126 -41 103.5 -41 c 128,-1,12
 81 -41 81 -41 66 -24.5 c 128,-1,13
 51 -8 51 -8 51 10 c 128,-1,14
 51 28 51 28 59 41 c 0,15,16
 546.976591689 798.752268395 546.976591689 798.752268395 842 1468 c 1,17,18
 858 1501 858 1501 891 1501 c 2,19,-1
 1130 1501 l 2,20,5
 1153 1501 1153 1501 1168.5 1484.5 c 128,-1,6
EndSplineSet
EndChar

StartChar: zero
Encoding: 48 48 23
Width: 1329
Flags: HW
LayerCount: 2
Fore
SplineSet
477 125 m 1,0,1
 350 311.53125 350 311.53125 350 731 c 0,2,3
 350 1164.1372549 350 1164.1372549 555 1341 c 1,4,5
 394.813229572 1285.55073331 394.813229572 1285.55073331 303.5 1125 c 0,6,7
 209 958.846153846 209 958.846153846 209 715 c 0,8,9
 209 397.131313131 209 397.131313131 365.5 218.5 c 0,10,11
 415 162 415 162 477 125 c 1,0,1
797 1327 m 0,12,13
 455 1327 455 1327 455 731 c 0,14,15
 455 304.52173913 455 304.52173913 565.5 170 c 0,16,17
 637.785714286 82 637.785714286 82 766 82 c 0,18,19
 889.980392157 82 889.980392157 82 977.5 195 c 0,20,21
 1084.76136485 333.48935715 1084.76136485 333.48935715 1114 587.5 c 0,22,23
 1122 657 1122 657 1122 712.5 c 128,-1,24
 1122 768 1122 768 1115.5 834 c 128,-1,25
 1109 900 1109 900 1094.5 968 c 128,-1,26
 1080 1036 1080 1036 1055.5 1100.5 c 128,-1,27
 1031 1165 1031 1165 995 1215.5 c 0,28,29
 915.514851485 1327 915.514851485 1327 797 1327 c 0,12,13
1227 715 m 1,30,31
 1216.91060291 412.318087318 1216.91060291 412.318087318 1094.5 203.5 c 0,32,33
 1006.45199537 53.3004626952 1006.45199537 53.3004626952 854.5 -6.5 c 0,34,35
 777 -37 777 -37 665 -37 c 128,-1,36
 553 -37 553 -37 447.5 16.5 c 128,-1,37
 342 70 342 70 265.5 168.5 c 0,38,39
 104 376.444444444 104 376.444444444 104 715 c 0,40,41
 104 1052.55555556 104 1052.55555556 265.5 1260.5 c 0,42,43
 425.101522843 1466 425.101522843 1466 680 1466 c 0,44,45
 931.21761658 1466 931.21761658 1466 1078 1266.5 c 0,46,47
 1227 1063.98591549 1227 1063.98591549 1227 715 c 1,30,31
EndSplineSet
EndChar

StartChar: one
Encoding: 49 49 24
Width: 889
Flags: HW
LayerCount: 2
Fore
SplineSet
526 1282 m 1,0,1
 498 1250 498 1250 381 1133 c 1,2,-1
 381 100 l 1,3,4
 398 102 398 102 416 102 c 0,5,6
 452.75 102 452.75 102 480.375 102 c 128,-1,7
 508 102 508 102 526 100 c 1,8,-1
 526 1282 l 1,0,1
745 -33 m 1,9,10
 590 -2 590 -2 449.5625 -2 c 128,-1,11
 309.125 -2 309.125 -2 158 -33 c 1,12,-1
 147 -33 l 2,13,14
 126 -33 126 -33 110 -17.5 c 128,-1,15
 94 -2 94 -2 94 17.5 c 128,-1,16
 94 37 94 37 106.5 52 c 128,-1,17
 119 67 119 67 145.5 72.5 c 0,18,19
 212.427906977 86.3906976744 212.427906977 86.3906976744 276 92 c 1,20,-1
 276 1034 l 1,21,22
 228 989 228 989 197.5 963 c 128,-1,23
 167 937 167 937 158 929.5 c 128,-1,24
 149 922 149 922 127.5 922 c 128,-1,25
 106 922 106 922 92 937.5 c 128,-1,26
 78 953 78 953 78 968.5 c 0,27,28
 78 998 78 998 96 1014 c 2,29,-1
 117.5 1033 l 2,30,31
 378.538461538 1263.68515206 378.538461538 1263.68515206 539 1454 c 1,32,33
 558 1473 558 1473 579.5 1473 c 128,-1,34
 601 1473 601 1473 617.5 1456 c 128,-1,35
 634 1439 634 1439 631 1419 c 1,36,-1
 631 92 l 1,37,38
 663 87 663 87 697 82.5 c 128,-1,39
 731 78 731 78 758 72.5 c 0,40,41
 807 62.5185185185 807 62.5185185185 807 18 c 0,42,43
 807 -8 807 -8 789 -20.5 c 128,-1,44
 771 -33 771 -33 756 -33 c 2,45,-1
 745 -33 l 1,9,10
EndSplineSet
Substitution2: "'sups' Superscript in Latin lookup 1 subtable" onesuperior
Substitution2: "'aalt' Access All Alternates in Latin lookup 0 subtable" onesuperior
EndChar

StartChar: two
Encoding: 50 50 25
Width: 1163
Flags: HW
LayerCount: 2
Fore
SplineSet
395 895 m 256,0,1
 395 926 395 926 373.5 947.5 c 128,-1,2
 352 969 352 969 321.5 969 c 128,-1,3
 291 969 291 969 269.5 947.5 c 128,-1,4
 248 926 248 926 248 895 c 256,5,6
 248 864 248 864 269.5 842.5 c 128,-1,7
 291 821 291 821 321.5 821 c 128,-1,8
 352 821 352 821 373.5 842.5 c 128,-1,9
 395 864 395 864 395 895 c 256,0,1
707 512 m 1,10,11
 956 717.315789474 956 717.315789474 956 985 c 0,12,13
 956 1152.85046729 956 1152.85046729 841.5 1262 c 0,14,15
 728.205882353 1370 728.205882353 1370 555 1370 c 2,16,-1
 526 1370 l 1,17,18
 536 1367 536 1367 563 1358 c 1,19,20
 688 1311 688 1311 755.5 1203 c 128,-1,21
 823 1095 823 1095 823 950 c 0,22,23
 823 698.509803922 823 698.509803922 707 512 c 1,10,11
328 104 m 1,24,25
 404 123 404 123 465.5 123 c 128,-1,26
 527 123 527 123 566.5 116.5 c 128,-1,27
 606 110 606 110 644 101.5 c 0,28,29
 740.117647059 80 740.117647059 80 786.558823529 80 c 128,-1,30
 833 80 833 80 862 89 c 128,-1,31
 891 98 891 98 911.5 109.5 c 0,32,33
 941.111111111 126.111111111 941.111111111 126.111111111 957.055555556 142.055555556 c 128,-1,34
 973 158 973 158 994.5 158 c 128,-1,35
 1016 158 1016 158 1031.5 141 c 128,-1,36
 1047 124 1047 124 1047 109.5 c 0,37,38
 1047 66.3333333333 1047 66.3333333333 965 18.5 c 0,39,40
 887 -27 887 -27 797 -27 c 0,41,42
 743.058823529 -27 743.058823529 -27 671.029411765 -11.5 c 0,43,44
 533.941176471 18 533.941176471 18 476.970588235 18 c 0,45,46
 350.375 18 350.375 18 225 -41 c 0,47,48
 218.333333333 -45 218.333333333 -45 199.166666667 -45 c 128,-1,49
 180 -45 180 -45 166 -29.5 c 128,-1,50
 152 -14 152 -14 152 -1.5 c 2,51,52
 152 15.5 l 2,53,54
 152 41.1632653061 152 41.1632653061 186.5 96.0816326531 c 128,-1,55
 221 151 221 151 251.5 186 c 0,56,57
 284.672380952 224.066666667 284.672380952 224.066666667 366.836190476 298.533333333 c 128,-1,58
 449 373 449 373 507.5 429.5 c 128,-1,59
 566 486 566 486 613 558.5 c 0,60,61
 719 722.010638298 719 722.010638298 719 942 c 0,62,63
 719 1088.06097561 719 1088.06097561 633 1183.5 c 0,64,65
 546.043956044 1280 546.043956044 1280 412 1280 c 0,66,67
 306.655172414 1280 306.655172414 1280 242.5 1219 c 0,68,69
 178 1157.67213115 178 1157.67213115 178 1055 c 0,70,71
 178 1030 178 1030 182 1006 c 1,72,73
 236.032258065 1073 236.032258065 1073 322 1073 c 0,74,75
 396 1073 396 1073 448 1021 c 128,-1,76
 500 969 500 969 500 895 c 256,77,78
 500 821.583333333 500 821.583333333 448 768.5 c 0,79,80
 395.591836735 715 395.591836735 715 322 715 c 0,81,82
 166.96969697 715 166.96969697 715 100 885 c 0,83,84
 74 951 74 951 74 1051.5 c 128,-1,85
 74 1152 74 1152 116.5 1230 c 128,-1,86
 159 1308 159 1308 227 1362.5 c 0,87,88
 367.366972477 1475 367.366972477 1475 555 1475 c 0,89,90
 772.153846154 1475 772.153846154 1475 916.5 1336 c 128,-1,91
 1061 1196.85185185 1061 1196.85185185 1061 985 c 0,92,93
 1061 666.948571429 1061 666.948571429 754.5 423.5 c 0,94,95
 667 354 667 354 585.5 301 c 128,-1,96
 504 248 504 248 440 202.5 c 128,-1,97
 376 157 376 157 328 104 c 1,24,25
EndSplineSet
Substitution2: "'sups' Superscript in Latin lookup 1 subtable" twosuperior
Substitution2: "'aalt' Access All Alternates in Latin lookup 0 subtable" twosuperior
EndChar

StartChar: three
Encoding: 51 51 26
Width: 1241
Flags: HW
LayerCount: 2
Fore
SplineSet
1042 550 m 0,0,1
 1042 634 1042 634 1014 706.5 c 128,-1,2
 986 779 986 779 942 830.5 c 128,-1,3
 898 882 898 882 844.5 914.5 c 128,-1,4
 791 947 791 947 739.5 966.5 c 0,5,6
 673.983505155 991.307216495 673.983505155 991.307216495 578 1008 c 1,7,-1
 475 920 l 1,8,9
 652.861876742 905.689274285 652.861876742 905.689274285 779 778.5 c 0,10,11
 909 647.416666667 909 647.416666667 909 461 c 0,12,13
 909 240.125 909 240.125 788 104 c 1,14,15
 911.663055872 162.977765108 911.663055872 162.977765108 979.5 282.5 c 0,16,17
 1042 392.619047619 1042 392.619047619 1042 550 c 0,0,1
190 461 m 1,18,19
 180 411 180 411 180 355 c 128,-1,20
 180 299 180 299 199.5 245.5 c 128,-1,21
 219 192 219 192 254.5 152.5 c 0,22,23
 330.443037975 68 330.443037975 68 455 68 c 0,24,25
 697.88590604 68 697.88590604 68 777 278.5 c 0,26,27
 805 353 805 353 805 439 c 128,-1,28
 805 525 805 525 785 577 c 128,-1,29
 765 629 765 629 731 669.5 c 128,-1,30
 697 710 697 710 652 739 c 128,-1,31
 607 768 607 768 558.5 786.5 c 0,32,33
 462.810810811 823 462.810810811 823 367 823 c 2,34,-1
 342 823 l 2,35,36
 319 823 319 823 305 839.5 c 128,-1,37
 291 856 291 856 291 878 c 128,-1,38
 291 900 291 900 309 915 c 2,39,-1
 813 1329 l 1,40,-1
 190 1329 l 2,41,42
 167 1329 167 1329 152 1344 c 128,-1,43
 137 1359 137 1359 137 1381 c 128,-1,44
 137 1403 137 1403 152 1418.5 c 128,-1,45
 167 1434 167 1434 190 1434 c 2,46,-1
 954 1434 l 2,47,48
 976 1434 976 1434 992 1417 c 128,-1,49
 1008 1400 1008 1400 1008 1379 c 128,-1,50
 1008 1358 1008 1358 989 1341 c 1,51,-1
 676 1094 l 1,52,53
 1147 982.672727273 1147 982.672727273 1147 535 c 0,54,55
 1147 336.123595506 1147 336.123595506 1050.5 193 c 0,56,57
 967.085555642 69.2841948854 967.085555642 69.2841948854 816 2.5 c 0,58,59
 681.393442623 -57 681.393442623 -57 557.696721311 -57 c 128,-1,60
 434 -57 434 -57 352.5 -28.5 c 128,-1,61
 271 0 271 0 209.5 53.5 c 0,62,63
 76 169.634146341 76 169.634146341 76 362 c 0,64,65
 76 477.6 76 477.6 104 500 c 0,66,67
 119 512 119 512 140.5 512 c 128,-1,68
 162 512 162 512 176 495 c 128,-1,69
 190 478 190 478 190 461 c 1,18,19
EndSplineSet
Substitution2: "'sups' Superscript in Latin lookup 1 subtable" threesuperior
Substitution2: "'aalt' Access All Alternates in Latin lookup 0 subtable" threesuperior
EndChar

StartChar: four
Encoding: 52 52 27
Width: 1243
Flags: HW
LayerCount: 2
Fore
SplineSet
809 115 m 257,0,-1
 881 113 l 1,1,-1
 881 1329 l 1,2,3
 811.798319328 1293.6302521 811.798319328 1293.6302521 735 1270 c 1,4,-1
 735 113 l 1,5,-1
 809 115 l 257,0,-1
371 1206 m 0,6,7
 371 864.573770492 371 864.573770492 174 561 c 1,8,9
 376 543 376 543 580 543 c 2,10,-1
 631 543 l 1,11,-1
 631 1311 l 2,12,13
 631 1332.84615385 631 1332.84615385 643 1343.92307692 c 128,-1,14
 655 1355 655 1355 662 1357.5 c 128,-1,15
 669 1360 669 1360 671 1361 c 128,-1,16
 673 1362 673 1362 693 1367 c 128,-1,17
 713 1372 713 1372 745 1384 c 0,18,19
 833.699029126 1417.26213592 833.699029126 1417.26213592 871.349514563 1443.13106796 c 0,20,21
 917.732595234 1475 917.732595234 1475 937.366297617 1475 c 128,-1,22
 957 1475 957 1475 971 1458 c 128,-1,23
 985 1441 985 1441 985 1421 c 2,24,-1
 985 561 l 1,25,26
 998 563 998 563 1013.5 564 c 128,-1,27
 1029 565 1029 565 1044 567 c 128,-1,28
 1059 569 1059 569 1078.5 570 c 128,-1,29
 1098 571 1098 571 1112 554.5 c 128,-1,30
 1126 538 1126 538 1126 518 c 256,31,32
 1126 498 1126 498 1113.5 483.5 c 128,-1,33
 1101 469 1101 469 1079 466.5 c 0,34,35
 1020.13513514 459.810810811 1020.13513514 459.810810811 985 457 c 1,36,-1
 985 104 l 1,37,38
 1020 99 1020 99 1055.5 94.5 c 128,-1,39
 1091 90 1091 90 1119 84.5 c 0,40,41
 1171 74.2857142857 1171 74.2857142857 1171 31 c 0,42,43
 1171 8 1171 8 1154 -7.5 c 128,-1,44
 1137 -23 1137 -23 1126.5 -23 c 0,45,46
 1112.5 -23 1112.5 -23 1069.75 -14 c 0,47,48
 955.75 10 955.75 10 809 10 c 256,49,50
 672 10 672 10 590 -6.5 c 128,-1,51
 508 -23 508 -23 494 -23 c 128,-1,52
 480 -23 480 -23 464.5 -6 c 128,-1,53
 449 11 449 11 449 30 c 128,-1,54
 449 49 449 49 461 64 c 128,-1,55
 473 79 473 79 500 83.5 c 0,56,57
 588.5 98.25 588.5 98.25 631 102 c 1,58,-1
 631 438 l 1,59,-1
 580 436 l 1,60,61
 322.0625 436 322.0625 436 76 467 c 0,62,63
 56 470 56 470 42.5 484 c 128,-1,64
 29 498 29 498 29 512 c 0,65,66
 29 537 29 537 39 549 c 1,67,68
 266 860.314285714 266 860.314285714 266 1208 c 0,69,70
 266 1314 266 1314 256 1352.5 c 128,-1,71
 246 1391 246 1391 246 1394.5 c 2,72,-1
 246 1401 l 2,73,74
 246 1424 246 1424 261.5 1439 c 128,-1,75
 277 1454 277 1454 296.5 1454 c 0,76,77
 337.736842105 1454 337.736842105 1454 348 1415 c 1,78,79
 357.573770492 1395.85245902 357.573770492 1395.85245902 364.286885246 1323.92622951 c 128,-1,80
 371 1252 371 1252 371 1206 c 0,6,7
EndSplineSet
EndChar

StartChar: five
Encoding: 53 53 28
Width: 1219
Flags: HW
LayerCount: 2
Fore
SplineSet
750 92 m 1,0,1
 1032 177.255813953 1032 177.255813953 1032 510 c 0,2,3
 1032 711 1032 711 937.5 820 c 128,-1,4
 843 929 843 929 674 944 c 1,5,6
 841.673611111 843.395833333 841.673611111 843.395833333 881 658 c 0,7,8
 895 592 895 592 895 508 c 128,-1,9
 895 424 895 424 882.5 359 c 128,-1,10
 870 294 870 294 850 244.5 c 0,11,12
 817.812293457 164.835426305 817.812293457 164.835426305 750 92 c 1,0,1
281 969 m 1,13,14
 437.3125 1051 437.3125 1051 625 1051 c 0,15,16
 858.625 1051 858.625 1051 1001 898 c 0,17,18
 1139 749.701492537 1139 749.701492537 1139 510 c 0,19,20
 1139 251.862745098 1139 251.862745098 978.5 105 c 0,21,22
 823.314285714 -37 823.314285714 -37 555 -37 c 0,23,24
 359.23853211 -37 359.23853211 -37 223 75.5 c 0,25,26
 78 195.234848485 78 195.234848485 78 383 c 0,27,28
 78 456.827586207 78 456.827586207 95.5 471.913793103 c 128,-1,29
 113 487 113 487 134.5 487 c 128,-1,30
 156 487 156 487 171 470 c 128,-1,31
 186 453 186 453 186 436 c 2,32,-1
 186 428 l 1,33,34
 182 416 182 416 182 377 c 128,-1,35
 182 338 182 338 203 283.5 c 128,-1,36
 224 229 224 229 262.5 183.5 c 0,37,38
 351.769230769 78 351.769230769 78 471 78 c 0,39,40
 625 78 625 78 710 205.5 c 0,41,42
 788 322.5 788 322.5 788 510 c 256,43,44
 788 785.317460317 788 785.317460317 595 866.5 c 0,45,46
 532 893 532 893 475.5 893 c 128,-1,47
 419 893 419 893 382 884.5 c 128,-1,48
 345 876 345 876 311 862 c 0,49,50
 232.296296296 829.592592593 232.296296296 829.592592593 215 795 c 1,51,52
 198 778 198 778 176 778 c 128,-1,53
 154 778 154 778 139.5 794.5 c 128,-1,54
 125 811 125 811 125 823.5 c 2,55,-1
 125 840.5 l 2,56,57
 125 845 125 845 126.5 848 c 128,-1,58
 128 851 128 851 146 897 c 128,-1,59
 164 943 164 943 190.5 1020.5 c 0,60,61
 261.105079681 1226.98655378 261.105079681 1226.98655378 303 1413 c 1,62,63
 313.789473684 1454 313.789473684 1454 354 1454 c 0,64,65
 360 1454 360 1454 389.5 1449 c 0,66,67
 454.4 1438 454.4 1438 570.2 1438 c 128,-1,68
 686 1438 686 1438 749.5 1440 c 128,-1,69
 813 1442 813 1442 862 1445 c 0,70,71
 967.976744186 1451.48837209 967.976744186 1451.48837209 973 1454 c 1,72,-1
 977 1454 l 2,73,74
 999 1454 999 1454 1014.5 1437.5 c 128,-1,75
 1030 1421 1030 1421 1030 1401 c 256,76,77
 1030 1381 1030 1381 1016.5 1366 c 128,-1,78
 1003 1351 1003 1351 990.5 1349.5 c 128,-1,79
 978 1348 978 1348 946.5 1345.5 c 128,-1,80
 915 1343 915 1343 865.5 1339.5 c 0,81,82
 745.285714286 1331 745.285714286 1331 623.142857143 1331 c 128,-1,83
 501 1331 501 1331 395 1343 c 1,84,85
 359.962962963 1202.85185185 359.962962963 1202.85185185 281 969 c 1,13,14
EndSplineSet
EndChar

StartChar: six
Encoding: 54 54 29
Width: 1223
Flags: HW
LayerCount: 2
Fore
SplineSet
752.5 356 m 128,-1,1
 770 428 770 428 770 512.5 c 128,-1,2
 770 597 770 597 749 664.5 c 128,-1,3
 728 732 728 732 690.5 775.5 c 0,4,5
 615.931034483 862 615.931034483 862 489 862 c 0,6,7
 364.6 862 364.6 862 293.5 743.5 c 0,8,9
 231 639.333333333 231 639.333333333 231 494 c 0,10,11
 231 373.282608696 231 373.282608696 303 246.5 c 0,12,13
 350.383233533 163.06430617 350.383233533 163.06430617 419.5 125 c 0,14,15
 454 106 454 106 508 106 c 128,-1,16
 562 106 562 106 614 139.5 c 128,-1,17
 666 173 666 173 700.5 228.5 c 128,-1,0
 735 284 735 284 752.5 356 c 128,-1,1
991 312 m 0,18,19
 1020 393 1020 393 1020 509.5 c 128,-1,20
 1020 626 1020 626 988.5 709 c 128,-1,21
 957 792 957 792 907 843.5 c 0,22,23
 813.310679612 940 813.310679612 940 674 940 c 2,24,-1
 650.5 940 l 2,25,26
 640 940 640 940 629 938 c 1,27,28
 811.649006623 864.940397351 811.649006623 864.940397351 860 637 c 0,29,30
 874 571 874 571 874 506 c 0,31,32
 874 198.021276596 874 198.021276596 676 59 c 1,33,34
 910.60070395 87.4364489636 910.60070395 87.4364489636 991 312 c 0,18,19
1087 748 m 128,-1,36
 1126 646 1126 646 1126 527 c 128,-1,37
 1126 408 1126 408 1106 328.5 c 128,-1,38
 1086 249 1086 249 1051.5 188 c 128,-1,39
 1017 127 1017 127 969.5 82.5 c 128,-1,40
 922 38 922 38 867.5 9 c 0,41,42
 762.25862069 -47 762.25862069 -47 647.629310345 -47 c 128,-1,43
 533 -47 533 -47 455 -20 c 128,-1,44
 377 7 377 7 318.5 55.5 c 128,-1,45
 260 104 260 104 220 171.5 c 128,-1,46
 180 239 180 239 155.5 319 c 0,47,48
 109 470.836734694 109 470.836734694 109 624.418367347 c 128,-1,49
 109 778 109 778 121.5 878 c 128,-1,50
 134 978 134 978 161 1067 c 128,-1,51
 188 1156 188 1156 231.5 1230.5 c 128,-1,52
 275 1305 275 1305 337 1359.5 c 0,53,54
 468.394495413 1475 468.394495413 1475 668 1475 c 0,55,56
 853.723404255 1475 853.723404255 1475 990 1322.5 c 0,57,58
 1023.48648649 1285.02702703 1023.48648649 1285.02702703 1031.24324324 1271.01351351 c 0,59,60
 1042 1251.58013937 1042 1251.58013937 1042 1232.79006969 c 128,-1,61
 1042 1214 1042 1214 1025.5 1199 c 128,-1,62
 1009 1184 1009 1184 993 1184 c 0,63,64
 961.333333333 1184 961.333333333 1184 944 1210 c 1,65,66
 927.615384615 1242.76923077 927.615384615 1242.76923077 887.807692308 1277.38461538 c 128,-1,67
 848 1312 848 1312 817.5 1329 c 0,68,69
 747.529411765 1368 747.529411765 1368 668 1368 c 0,70,71
 526.864864865 1368 526.864864865 1368 412.5 1277 c 0,72,73
 248.526315789 1146.52631579 248.526315789 1146.52631579 219 811 c 1,74,75
 339.851122435 993.619473902 339.851122435 993.619473902 562 1035.5 c 0,76,77
 623 1047 623 1047 690.5 1047 c 128,-1,78
 758 1047 758 1047 839.5 1015 c 128,-1,79
 921 983 921 983 984.5 916.5 c 128,-1,35
 1048 850 1048 850 1087 748 c 128,-1,36
EndSplineSet
EndChar

StartChar: seven
Encoding: 55 55 30
Width: 1112
Flags: HW
LayerCount: 2
Fore
SplineSet
944 1350 m 1,0,1
 866.287671233 1342.47945205 866.287671233 1342.47945205 788 1339 c 1,2,3
 533.938147833 953.083262532 533.938147833 953.083262532 452.5 380 c 0,4,5
 432.237476809 237.41187384 432.237476809 237.41187384 428 123 c 1,6,7
 445 125 445 125 462 125 c 128,-1,8
 479 125 479 125 496.5 125 c 2,9,-1
 532 125 l 2,10,11
 550 125 550 125 567 123 c 1,12,13
 593.39376054 584.890809444 593.39376054 584.890809444 805 1070.5 c 0,14,15
 867.636363636 1214.24242424 867.636363636 1214.24242424 944 1350 c 1,0,1
168 1425 m 2,16,-1
 276 1421 l 1,17,18
 455.875 1421 455.875 1421 726.4375 1439.5 c 128,-1,19
 997 1458 997 1458 1038 1462 c 1,20,-1
 1042 1462 l 1,21,22
 1065 1460 1065 1460 1080.5 1445.5 c 128,-1,23
 1096 1431 1096 1431 1096 1416 c 0,24,25
 1096 1395.75 1096 1395.75 1091 1387.375 c 128,-1,26
 1086 1379 1086 1379 1069.5 1352 c 128,-1,27
 1053 1325 1053 1325 1026 1276 c 128,-1,28
 999 1227 999 1227 964 1158 c 128,-1,29
 929 1089 929 1089 892 1002.5 c 128,-1,30
 855 916 855 916 818.5 815 c 128,-1,31
 782 714 782 714 752 601.5 c 0,32,33
 684.705596107 349.145985401 684.705596107 349.145985401 672 115 c 1,34,35
 707 110 707 110 742.5 105 c 128,-1,36
 778 100 778 100 805.5 94.5 c 0,37,38
 856 84.4 856 84.4 856 41 c 0,39,40
 856 15 856 15 838 1.5 c 128,-1,41
 820 -12 820 -12 808.5 -12 c 128,-1,42
 797 -12 797 -12 755.5 -3.5 c 0,43,44
 640.764705882 20 640.764705882 20 531.882352941 20 c 0,45,46
 357 20 357 20 197 -10 c 1,47,48
 195 -12 195 -12 192 -12 c 128,-1,49
 189 -12 189 -12 176 -12 c 128,-1,50
 163 -12 163 -12 149 4.5 c 128,-1,51
 135 21 135 21 135 40.5 c 0,52,53
 135 85.55 135 85.55 178 92 c 1,54,55
 216.796116505 100.388349515 216.796116505 100.388349515 322 115 c 1,56,57
 322 275.136363636 322 275.136363636 359.5 474.568181818 c 128,-1,58
 397 674 397 674 434 803 c 0,59,60
 519.060124787 1099.56097561 519.060124787 1099.56097561 659 1331 c 1,61,62
 387 1315 387 1315 279 1315 c 1,63,-1
 223 1317 l 1,64,-1
 223 1307 l 2,65,66
 223 1168.45454545 223 1168.45454545 205 1063.72727273 c 128,-1,67
 187 959 187 959 184 948.5 c 128,-1,68
 181 938 181 938 167.5 926.5 c 128,-1,69
 154 915 154 915 130.5 915 c 128,-1,70
 107 915 107 915 94.5 933 c 128,-1,71
 82 951 82 951 82 963 c 128,-1,72
 82 975 82 975 83 977.5 c 128,-1,73
 84 980 84 980 89.5 1009 c 128,-1,74
 95 1038 95 1038 101.5 1084.5 c 0,75,76
 119 1209.69230769 119 1209.69230769 119 1266.84615385 c 2,77,-1
 119 1339.5 l 2,78,79
 119 1355 119 1355 119 1373.5 c 128,-1,80
 119 1392 119 1392 132.5 1408.5 c 128,-1,81
 146 1425 146 1425 168 1425 c 2,16,-1
EndSplineSet
EndChar

StartChar: eight
Encoding: 56 56 31
Width: 1176
Flags: HW
LayerCount: 2
Fore
SplineSet
743 338 m 256,0,1
 743 426.789473684 743 426.789473684 716 460.894736842 c 0,2,3
 676.483412322 510.81042654 676.483412322 510.81042654 603.241706161 546.90521327 c 0,4,5
 470.561538462 612.292307692 470.561538462 612.292307692 393 664 c 1,6,7
 257.142857143 627.771428571 257.142857143 627.771428571 217.5 502.5 c 0,8,9
 205 463 205 463 205 408.5 c 128,-1,10
 205 354 205 354 226.5 295 c 128,-1,11
 248 236 248 236 287 190.5 c 0,12,13
 373.142857143 90 373.142857143 90 498 90 c 0,14,15
 624.056338028 90 624.056338028 90 689 169.5 c 0,16,17
 743 235.603448276 743 235.603448276 743 338 c 256,0,1
309 1225 m 1,18,19
 264 1152.30769231 264 1152.30769231 264 1075.65384615 c 128,-1,20
 264 999 264 999 279.5 949.5 c 128,-1,21
 295 900 295 900 336 851 c 0,22,23
 418.533953488 752.361860465 418.533953488 752.361860465 631 649 c 1,24,25
 751.319829424 592.006396588 751.319829424 592.006396588 797 527 c 0,26,27
 848 454.423076923 848 454.423076923 848 360.211538462 c 0,28,29
 848 198.947368421 848 198.947368421 768 100 c 1,30,31
 867 144 867 144 923 226 c 128,-1,32
 979 308 979 308 979 402.5 c 128,-1,33
 979 497 979 497 954.5 551.5 c 128,-1,34
 930 606 930 606 887 646.5 c 128,-1,35
 844 687 844 687 787 718.5 c 128,-1,36
 730 750 730 750 665 782.5 c 128,-1,37
 600 815 600 815 535.5 855 c 128,-1,38
 471 895 471 895 420 944.5 c 0,39,40
 307 1054.17647059 307 1054.17647059 307 1190 c 0,41,42
 307 1199 307 1199 307 1208 c 128,-1,43
 307 1217 307 1217 309 1225 c 1,18,19
877 1116.5 m 0,44,45
 877 1162 877 1162 856 1208.5 c 128,-1,46
 835 1255 835 1255 799 1290 c 0,47,48
 720.828571429 1366 720.828571429 1366 614 1366 c 0,49,50
 472.454545455 1366 472.454545455 1366 427 1266 c 0,51,52
 412 1233 412 1233 412 1181 c 128,-1,53
 412 1129 412 1129 442.5 1080.5 c 128,-1,54
 473 1032 473 1032 519.5 993 c 0,55,56
 582.238095238 940.380952381 582.238095238 940.380952381 731 866 c 1,57,58
 877 970.285714286 877 970.285714286 877 1116.5 c 0,44,45
831 811 m 1,59,60
 951.1731014 738.395417904 951.1731014 738.395417904 996.0865507 680.197708952 c 0,61,62
 1085 564.985915493 1085 564.985915493 1085 418 c 0,63,64
 1085 216.072463768 1085 216.072463768 939 87 c 0,65,66
 791.950819672 -43 791.950819672 -43 569 -43 c 0,67,68
 342.6875 -43 342.6875 -43 214 99 c 0,69,70
 100 224.793103448 100 224.793103448 100 418 c 0,71,72
 100 608.915492958 100 608.915492958 226.5 698 c 0,73,74
 262 723 262 723 297 741 c 1,75,76
 160 870.388888889 160 870.388888889 160 1055 c 0,77,78
 160 1248.45454545 160 1248.45454545 308 1364.5 c 0,79,80
 442.550724638 1470 442.550724638 1470 614 1470 c 0,81,82
 762.816326531 1470 762.816326531 1470 872 1363 c 128,-1,83
 981 1256.18 981 1256.18 981 1098.17333333 c 128,-1,84
 981 940.166666667 981 940.166666667 831 811 c 1,59,60
EndSplineSet
EndChar

StartChar: nine
Encoding: 57 57 32
Width: 1225
Flags: HW
LayerCount: 2
Fore
SplineSet
760 612 m 1,0,1
 766 612 766 612 766 672 c 2,2,-1
 766 754 l 2,3,4
 766 1185.92982456 766 1185.92982456 593 1278.5 c 0,5,6
 536 1309 536 1309 466.5 1309 c 128,-1,7
 397 1309 397 1309 348 1277 c 128,-1,8
 299 1245 299 1245 266 1191 c 0,9,10
 201 1084.63636364 201 1084.63636364 201 940.818181818 c 128,-1,11
 201 797 201 797 233 717.5 c 128,-1,12
 265 638 265 638 315 590.5 c 0,13,14
 406.052631579 504 406.052631579 504 545.71722488 504 c 128,-1,15
 685.381818182 504 685.381818182 504 760 612 c 1,0,1
778 143 m 1,16,17
 1008 296.333333333 1008 296.333333333 1008 750 c 0,18,19
 1008 1031.53658537 1008 1031.53658537 936 1165 c 0,20,21
 853.422302738 1318.07085346 853.422302738 1318.07085346 641 1364 c 1,22,23
 870 1219.36842105 870 1219.36842105 870 754 c 0,24,25
 870 327 870 327 778 143 c 1,16,17
588 1470 m 0,26,27
 1114 1470 1114 1470 1114 750 c 0,28,29
 1114 414.113636364 1114 414.113636364 988 206.5 c 0,30,31
 845.075862069 -29 845.075862069 -29 555 -29 c 0,32,33
 369.869565217 -29 369.869565217 -29 232 122 c 0,34,35
 211 145 211 145 199.5 161.5 c 128,-1,36
 188 178 188 178 185.5 182 c 0,37,38
 180 190.8 180 190.8 180 210.4 c 128,-1,39
 180 230 180 230 195.5 245 c 128,-1,40
 211 260 211 260 236 260 c 128,-1,41
 261 260 261 260 276 236 c 1,42,43
 363.51627907 126.604651163 363.51627907 126.604651163 471.5 90 c 0,44,45
 501 80 501 80 548 80 c 128,-1,46
 595 80 595 80 631 109 c 128,-1,47
 667 138 667 138 688.5 189 c 128,-1,48
 710 240 710 240 722.5 309 c 128,-1,49
 735 378 735 378 750 457 c 1,50,51
 667 399 667 399 566 399 c 128,-1,52
 465 399 465 399 383.5 427.5 c 128,-1,53
 302 456 302 456 238 518.5 c 0,54,55
 96 657.171875 96 657.171875 96 918 c 0,56,57
 96 1145.98461538 96 1145.98461538 232 1305 c 0,58,59
 373.118421053 1470 373.118421053 1470 588 1470 c 0,26,27
EndSplineSet
EndChar

StartChar: less
Encoding: 60 60 33
Width: 829
Flags: HW
LayerCount: 2
Fore
SplineSet
336 844 m 1,0,1
 258.333333333 766.333333333 258.333333333 766.333333333 217 733 c 1,2,3
 271.824074074 692.324074074 271.824074074 692.324074074 336 637 c 1,4,-1
 336 844 l 1,0,1
686.5 192 m 128,-1,6
 671 178 671 178 647.136363636 178 c 128,-1,7
 623.272727273 178 623.272727273 178 608 199 c 0,8,9
 607 199 607 199 586.5 224.5 c 128,-1,10
 566 250 566 250 530.5 291 c 128,-1,11
 495 332 495 332 446.5 384 c 128,-1,12
 398 436 398 436 341.5 489.5 c 0,13,14
 207.518634935 616.367310283 207.518634935 616.367310283 100 684 c 1,15,16
 76 702.857142857 76 702.857142857 76 721.928571429 c 0,17,18
 76 756.666666667 76 756.666666667 96 770 c 1,19,20
 315.328725962 931.799879808 315.328725962 931.799879808 585.5 1302.5 c 0,21,22
 607 1332 607 1332 610.5 1338 c 0,23,24
 621 1356 621 1356 647 1356 c 128,-1,25
 673 1356 673 1356 687.5 1338.5 c 128,-1,26
 702 1321 702 1321 702 1303 c 256,27,28
 702 1285 702 1285 696.5 1277.5 c 128,-1,29
 691 1270 691 1270 671 1242 c 128,-1,30
 651 1214 651 1214 617.5 1170.5 c 0,31,32
 523.6882662 1048.68476357 523.6882662 1048.68476357 442 956 c 1,33,-1
 442 539 l 1,34,35
 554 427 554 427 621.5 346 c 128,-1,36
 689 265 689 265 693 259.5 c 0,37,38
 702 247.125 702 247.125 702 226.5625 c 128,-1,5
 702 206 702 206 686.5 192 c 128,-1,6
EndSplineSet
EndChar

StartChar: equal
Encoding: 61 61 34
Width: 1307
Flags: HW
LayerCount: 2
Fore
SplineSet
236 942 m 1,0,1
 453 911 453 911 656.566666667 911 c 128,-1,2
 860.133333333 911 860.133333333 911 1073 942 c 1,3,-1
 1081 942 l 2,4,5
 1103 942 1103 942 1118 926.5 c 128,-1,6
 1133 911 1133 911 1133 890.5 c 128,-1,7
 1133 870 1133 870 1120 855.5 c 128,-1,8
 1107 841 1107 841 1087 838 c 0,9,10
 877.75 807 877.75 807 711.875 807 c 0,11,12
 432.1875 807 432.1875 807 221 838 c 0,13,14
 201 841 201 841 188.5 855.5 c 128,-1,15
 176 870 176 870 176 890.5 c 128,-1,16
 176 911 176 911 191 926.5 c 128,-1,17
 206 942 206 942 229 942 c 2,18,-1
 236 942 l 1,0,1
236 553 m 1,19,20
 439.4375 522 439.4375 522 654.5 522 c 128,-1,21
 869.5625 522 869.5625 522 1073 553 c 1,22,-1
 1081 553 l 2,23,24
 1103 553 1103 553 1118 537 c 128,-1,25
 1133 521 1133 521 1133 501 c 128,-1,26
 1133 481 1133 481 1120 466.5 c 128,-1,27
 1107 452 1107 452 1087 449 c 0,28,29
 877.75 418 877.75 418 710.875 418 c 0,30,31
 432.1875 418 432.1875 418 221 449 c 0,32,33
 201 452 201 452 188.5 466.5 c 128,-1,34
 176 481 176 481 176 501 c 128,-1,35
 176 521 176 521 191 537 c 128,-1,36
 206 553 206 553 229 553 c 2,37,-1
 236 553 l 1,19,20
EndSplineSet
EndChar

StartChar: greater
Encoding: 62 62 35
Width: 831
Flags: HW
LayerCount: 2
Fore
SplineSet
614 733 m 1,0,1
 567.5 770.5 567.5 770.5 494 844 c 1,2,-1
 494 637 l 1,3,4
 552 687 552 687 614 733 c 1,0,1
733 770 m 1,5,6
 756 757.454545455 756 757.454545455 756 731.838383838 c 128,-1,7
 756 706.222222222 756 706.222222222 731 684 c 1,8,9
 505.4 544.342857143 505.4 544.342857143 242 224.5 c 2,10,-1
 221 199 l 1,11,12
 207 178 207 178 182 178 c 128,-1,13
 157 178 157 178 142 193.5 c 128,-1,14
 127 209 127 209 127 228 c 128,-1,15
 127 247 127 247 134 256 c 128,-1,16
 141 265 141 265 160.5 289 c 128,-1,17
 180 313 180 313 213 351.5 c 0,18,19
 292.881355932 444.694915254 292.881355932 444.694915254 389 539 c 1,20,-1
 389 956 l 1,21,22
 253.347826087 1109.91304348 253.347826087 1109.91304348 196.173913043 1189.95652174 c 128,-1,23
 139 1270 139 1270 133 1278.5 c 128,-1,24
 127 1287 127 1287 127 1306.5 c 128,-1,25
 127 1326 127 1326 143.5 1341 c 128,-1,26
 160 1356 160 1356 184 1356 c 128,-1,27
 208 1356 208 1356 223 1333 c 1,28,29
 223 1329.73611111 223 1329.73611111 280.5 1253.86805556 c 128,-1,30
 338 1178 338 1178 387 1118 c 128,-1,31
 436 1058 436 1058 492.5 996 c 0,32,33
 627.584913271 847.765227914 627.584913271 847.765227914 733 770 c 1,5,6
EndSplineSet
EndChar

StartChar: question
Encoding: 63 63 36
Width: 1137
Flags: HW
LayerCount: 2
Fore
SplineSet
523 74 m 128,-1,1
 537 89 537 89 537 108 c 128,-1,2
 537 127 537 127 523 141.5 c 128,-1,3
 509 156 509 156 489 156 c 256,4,5
 469 156 469 156 454.5 141.5 c 128,-1,6
 440 127 440 127 440 108 c 128,-1,7
 440 89 440 89 454.5 74 c 128,-1,8
 469 59 469 59 489 59 c 256,9,0
 509 59 509 59 523 74 c 128,-1,1
756 743 m 1,10,11
 963 869.219512195 963 869.219512195 963 1067 c 0,12,13
 963 1227.14893617 963 1227.14893617 814 1317.5 c 0,14,15
 767 1346 767 1346 709 1364 c 1,16,17
 831 1252.16666667 831 1252.16666667 831 1055 c 0,18,19
 831 862.117647059 831 862.117647059 756 743 c 1,10,11
643 108.5 m 0,20,21
 643 77 643 77 630.5 49 c 128,-1,22
 618 21 618 21 597 0 c 0,23,24
 552 -45 552 -45 489 -45 c 256,25,26
 426 -45 426 -45 381 0 c 128,-1,27
 336 45 336 45 336 109 c 0,28,29
 336 207.714285714 336 207.714285714 430 248 c 0,30,31
 458 260 458 260 489 260 c 256,32,33
 550.8 260 550.8 260 597 216 c 128,-1,34
 643 172.19047619 643 172.19047619 643 108.5 c 0,20,21
414 356 m 2,35,-1
 412 391 l 1,36,37
 412 475.75 412 475.75 443.5 530.875 c 0,38,39
 491.685714286 615.2 491.685714286 615.2 559 676 c 1,40,41
 591 707 591 707 621.5 739 c 128,-1,42
 652 771 652 771 675.5 814 c 0,43,44
 727 908.234042553 727 908.234042553 727 1055 c 0,45,46
 727 1194.58823529 727 1194.58823529 634.5 1286 c 0,47,48
 545.452380952 1374 545.452380952 1374 412 1374 c 0,49,50
 321.230769231 1374 321.230769231 1374 246.5 1301.5 c 0,51,52
 172 1229.2238806 172 1229.2238806 172 1145 c 0,53,54
 172 1085.35 172 1085.35 190.5 1056.675 c 128,-1,55
 209 1028 209 1028 217.5 1021.5 c 128,-1,56
 226 1015 226 1015 227 1014 c 0,57,58
 260 992 260 992 260 967.5 c 128,-1,59
 260 943 260 943 245.5 927 c 128,-1,60
 231 911 231 911 216 911 c 0,61,62
 190.571428571 911 190.571428571 911 183.285714286 917 c 128,-1,63
 176 923 176 923 159 934.5 c 128,-1,64
 142 946 142 946 121.5 972.5 c 0,65,66
 68 1041.65853659 68 1041.65853659 68 1136.82926829 c 128,-1,67
 68 1232 68 1232 109.5 1298 c 128,-1,68
 151 1364 151 1364 216 1407.5 c 0,69,70
 346.747126437 1495 346.747126437 1495 516 1495 c 0,71,72
 758.601769912 1495 758.601769912 1495 913 1375.5 c 0,73,74
 1067 1256.30821918 1067 1256.30821918 1067 1067 c 0,75,76
 1067 785.955555556 1067 785.955555556 754 622.5 c 0,77,78
 709 599 709 599 668.5 579 c 128,-1,79
 628 559 628 559 599 542 c 128,-1,80
 570 525 570 525 552 505 c 0,81,82
 518 467.222222222 518 467.222222222 518 389 c 2,83,-1
 518 362 l 2,84,85
 518 342 518 342 504.5 326.5 c 128,-1,86
 491 311 491 311 469.5 310 c 128,-1,87
 448 309 448 309 432 322.5 c 128,-1,88
 416 336 416 336 414 356 c 2,35,-1
EndSplineSet
EndChar

StartChar: at
Encoding: 64 64 37
Width: 1561
Flags: HW
LayerCount: 2
Fore
SplineSet
504 596 m 0,0,1
 504 408 504 408 621 408 c 0,2,3
 723.52 408 723.52 408 780.5 537.5 c 0,4,5
 827 643.181818182 827 643.181818182 827 768 c 1,6,7
 814.228346457 812.700787402 814.228346457 812.700787402 799.614173228 831.850393701 c 0,8,9
 762.105263158 881 762.105263158 881 709.052631579 881 c 128,-1,10
 656 881 656 881 621 860.5 c 128,-1,11
 586 840 586 840 560 803 c 0,12,13
 504 723.307692308 504 723.307692308 504 596 c 0,0,1
1075 395 m 1,14,15
 1001 464.647058824 1001 464.647058824 1001 575 c 2,16,-1
 1001 889 l 1,17,-1
 932 889 l 1,18,-1
 932 541 l 2,19,20
 932 473 932 473 972 434 c 128,-1,21
 1012 395 1012 395 1075 395 c 1,14,15
587.5 959.5 m 128,-1,23
 641 985 641 985 707.882352941 985 c 128,-1,24
 774.764705882 985 774.764705882 985 827 948 c 1,25,26
 830 968 830 968 844.5 981.5 c 128,-1,27
 859 995 859 995 881 995 c 2,28,-1
 1171 995 l 2,29,30
 1193 995 1193 995 1209 979.5 c 128,-1,31
 1225 964 1225 964 1225 942 c 256,32,33
 1225 920 1225 920 1209 904.5 c 128,-1,34
 1193 889 1193 889 1171 889 c 2,35,-1
 1108 889 l 1,36,-1
 1108 575 l 2,37,38
 1108 497.470588235 1108 497.470588235 1161 458.5 c 0,39,40
 1178 446 1178 446 1206 446 c 128,-1,41
 1234 446 1234 446 1260.5 466 c 128,-1,42
 1287 486 1287 486 1307 517.5 c 128,-1,43
 1327 549 1327 549 1340.5 588.5 c 128,-1,44
 1354 628 1354 628 1362.5 667.5 c 0,45,46
 1378 739.529411765 1378 739.529411765 1378 815.264705882 c 128,-1,47
 1378 891 1378 891 1348.5 978.5 c 128,-1,48
 1319 1066 1319 1066 1258 1134 c 0,49,50
 1121.64705882 1286 1121.64705882 1286 879 1286 c 0,51,52
 586.590163934 1286 586.590163934 1286 397.5 1090.5 c 0,53,54
 211 897.677966102 211 897.677966102 211 606 c 0,55,56
 211 404.714285714 211 404.714285714 302.5 274 c 0,57,58
 401.2 133 401.2 133 580 133 c 0,59,60
 660.5 133 660.5 133 733 162 c 0,61,62
 764.615720524 174.64628821 764.615720524 174.64628821 784.807860262 153.823144105 c 128,-1,63
 805 133 805 133 805 115 c 0,64,65
 805 78.3125 805 78.3125 770 63 c 1,66,67
 679.333333333 29 679.333333333 29 572.666666667 29 c 128,-1,68
 466 29 466 29 377.5 75.5 c 128,-1,69
 289 122 289 122 228.5 201 c 0,70,71
 106 360.958677686 106 360.958677686 106 606 c 0,72,73
 106 943.708029197 106 943.708029197 321.5 1165.5 c 0,74,75
 540.602836879 1391 540.602836879 1391 879 1391 c 0,76,77
 1171.3539823 1391 1171.3539823 1391 1336.5 1202.5 c 0,78,79
 1483 1035.28282828 1483 1035.28282828 1483 801 c 0,80,81
 1483 594.097087379 1483 594.097087379 1378.5 448 c 0,82,83
 1264.77083333 289 1264.77083333 289 1079 289 c 0,84,85
 953.298245614 289 953.298245614 289 879.5 378.5 c 0,86,87
 856 407 856 407 842 444 c 1,88,89
 754.482758621 303 754.482758621 303 621 303 c 0,90,91
 508.609756098 303 508.609756098 303 450 392 c 0,92,93
 397 472.481481481 397 472.481481481 397 582.240740741 c 128,-1,94
 397 692 397 692 423 764 c 128,-1,95
 449 836 449 836 491.5 885 c 128,-1,22
 534 934 534 934 587.5 959.5 c 128,-1,23
EndSplineSet
EndChar

StartChar: A
Encoding: 65 65 38
Width: 1681
Flags: HW
LayerCount: 2
Fore
SplineSet
410 526 m 1,0,1
 587.777777778 506 587.777777778 506 685.388888889 506 c 0,2,3
 834.333333333 506 834.333333333 506 1001 526 c 1,4,5
 890.533653846 863.370192308 890.533653846 863.370192308 707 1135 c 1,6,7
 521.95934466 820.629854369 521.95934466 820.629854369 410 526 c 1,0,1
1235 111 m 1,8,-1
 1319 113 l 1,9,-1
 1349.5 113 l 2,10,11
 1365 113 1365 113 1380 111 c 1,12,13
 1203.22435269 865.772426737 1203.22435269 865.772426737 844 1354 c 1,14,-1
 766 1233 l 1,15,16
 972.457286432 951.467336683 972.457286432 951.467336683 1098 569 c 1,17,18
 1214.74576271 204.169491525 1214.74576271 204.169491525 1235 111 c 1,8,-1
526 -23 m 1,19,20
 422.666666667 8 422.666666667 8 266 8 c 128,-1,21
 109.333333333 8 109.333333333 8 6 -23 c 1,22,23
 -17 -23 -17 -23 -32 -7 c 128,-1,24
 -47 9 -47 9 -47 29 c 0,25,26
 -47 71.2105263158 -47 71.2105263158 -4 82.1052631579 c 0,27,28
 64.975404919 99.5812837433 64.975404919 99.5812837433 178 109 c 1,29,30
 310.227541538 750.692480991 310.227541538 750.692480991 797 1473 c 1,31,32
 813.5 1495 813.5 1495 832.75 1495 c 0,33,34
 867 1495 867 1495 881 1477 c 0,35,36
 1296.72631813 946.454032105 1296.72631813 946.454032105 1489 106 c 1,37,38
 1591 97 1591 97 1692 82 c 0,39,40
 1712 79 1712 79 1724.5 64 c 128,-1,41
 1737 49 1737 49 1737 29 c 128,-1,42
 1737 9 1737 9 1719.5 -7 c 128,-1,43
 1702 -23 1702 -23 1691.5 -23 c 0,44,45
 1678 -23 1678 -23 1631 -14.5 c 0,46,47
 1437.11472132 20.5643589103 1437.11472132 20.5643589103 1147.5 0 c 0,48,49
 1063 -6 1063 -6 1020 -14 c 128,-1,50
 977 -22 977 -22 975 -22.5 c 128,-1,51
 973 -23 973 -23 961 -23 c 128,-1,52
 949 -23 949 -23 933.5 -6 c 128,-1,53
 918 11 918 11 918 30 c 128,-1,54
 918 49 918 49 930.5 64 c 128,-1,55
 943 79 943 79 973 84.5 c 128,-1,56
 1003 90 1003 90 1044 94.5 c 128,-1,57
 1085 99 1085 99 1128 104 c 1,58,59
 1083.94594595 271.405405405 1083.94594595 271.405405405 1034 426 c 1,60,61
 856.916666667 401 856.916666667 401 709.75 401 c 128,-1,62
 562.583333333 401 562.583333333 401 373 426 c 1,63,64
 320 268 320 268 287 113 c 1,65,66
 414.108401084 108.899728997 414.108401084 108.899728997 539 82 c 0,67,68
 557 79 557 79 568.5 64 c 128,-1,69
 580 49 580 49 580 28.5 c 128,-1,70
 580 8 580 8 562.5 -7.5 c 128,-1,71
 545 -23 545 -23 526 -23 c 1,19,20
EndSplineSet
EndChar

StartChar: B
Encoding: 66 66 39
Width: 1468
Flags: HW
LayerCount: 2
Fore
SplineSet
504 1384 m 1,0,1
 428 1381 428 1381 362 1372 c 1,2,3
 361 1308 361 1308 361 1226.5 c 128,-1,4
 361 1145 361 1145 361.5 1052.5 c 128,-1,5
 362 960 362 960 363 861.5 c 128,-1,6
 364 763 364 763 365.5 665.5 c 128,-1,7
 367 568 367 568 368.5 476 c 128,-1,8
 370 384 370 384 371.5 304.5 c 0,9,10
 375 119 375 119 375 63 c 1,11,12
 430 57 430 57 504 51 c 1,13,-1
 504 1384 l 1,0,1
666 608 m 1,14,15
 608 606 l 1,16,-1
 608 47 l 1,17,-1
 655 47 l 2,18,19
 993.518181818 47 993.518181818 47 1102.5 195 c 0,20,21
 1143 250 1143 250 1143 322.5 c 128,-1,22
 1143 395 1143 395 1119.5 439 c 128,-1,23
 1096 483 1096 483 1057 513.5 c 128,-1,24
 1018 544 1018 544 967.5 562.5 c 128,-1,25
 917 581 917 581 864 591 c 0,26,27
 773.9 608 773.9 608 666 608 c 1,14,15
733 715 m 2,28,29
 1286 715 1286 715 1286 1044 c 0,30,31
 1286 1175.49090909 1286 1175.49090909 1164 1262 c 0,32,33
 1011.048012 1370.45686422 1011.048012 1370.45686422 742 1385 c 0,34,35
 668 1389 668 1389 608 1386 c 1,36,-1
 608 715 l 1,37,-1
 733 715 l 2,28,29
256 1356 m 1,38,-1
 152 1331 l 1,39,40
 129 1331 129 1331 113.5 1347.5 c 128,-1,41
 98 1364 98 1364 98 1382.5 c 0,42,43
 98 1420.76470588 98 1420.76470588 135 1436 c 1,44,45
 329.791666667 1491 329.791666667 1491 594 1491 c 0,46,47
 899.109375 1491 899.109375 1491 1110.5 1408 c 0,48,49
 1283.40042408 1340.11271692 1283.40042408 1340.11271692 1354 1207.5 c 0,50,51
 1391 1138 1391 1138 1391 1051 c 128,-1,52
 1391 964 1391 964 1363.5 897.5 c 128,-1,53
 1336 831 1336 831 1288 780.5 c 0,54,55
 1190.30588235 677.717647059 1190.30588235 677.717647059 1030 651 c 1,56,57
 1185.06602914 595.176229508 1185.06602914 595.176229508 1233.5 440.5 c 0,58,59
 1249 391 1249 391 1249 324 c 128,-1,60
 1249 257 1249 257 1227 199.5 c 128,-1,61
 1205 142 1205 142 1164.5 99.5 c 128,-1,62
 1124 57 1124 57 1068 28.5 c 128,-1,63
 1012 0 1012 0 945 -17.5 c 0,64,65
 818.329821718 -50.5854943274 818.329821718 -50.5854943274 643 -57 c 1,66,67
 422.55842146 -58.645086407 422.55842146 -58.645086407 254.5 -21 c 0,68,69
 155.102409639 1.26506024096 155.102409639 1.26506024096 127 20 c 1,70,71
 98 34 98 34 98 61.5 c 128,-1,72
 98 89 98 89 115.5 104 c 128,-1,73
 133 119 133 119 145.5 119 c 0,74,75
 164 119 164 119 170 116 c 0,76,77
 202.833333333 99.5833333333 202.833333333 99.5833333333 268 84 c 1,78,79
 267 142 267 142 266 235 c 128,-1,80
 265 328 265 328 263.5 441.5 c 128,-1,81
 262 555 262 555 260.5 680.5 c 128,-1,82
 259 806 259 806 258 928 c 128,-1,83
 257 1050 257 1050 256 1161 c 128,-1,84
 255 1272 255 1272 256 1356 c 1,38,-1
EndSplineSet
EndChar

StartChar: C
Encoding: 67 67 40
Width: 1516
Flags: HW
LayerCount: 2
Fore
SplineSet
551 1315 m 1,0,1
 207 1145.35616438 207 1145.35616438 207 684 c 0,2,3
 207 376 207 376 385.5 217 c 0,4,5
 445 164 445 164 526 121 c 1,6,7
 356 327.428571429 356 327.428571429 356 721 c 0,8,9
 356 1111.95876289 356 1111.95876289 551 1315 c 1,0,1
866 1491 m 256,10,11
 1145.4516129 1491 1145.4516129 1491 1309 1296 c 1,12,-1
 1364 1454 l 2,13,14
 1377.05882353 1491 1377.05882353 1491 1406.02941176 1491 c 128,-1,15
 1435 1491 1435 1491 1450.5 1474.5 c 128,-1,16
 1466 1458 1466 1458 1466 1443.5 c 128,-1,17
 1466 1429 1466 1429 1462 1421 c 1,18,-1
 1303 956 l 1,19,20
 1293 922 1293 922 1261.5 922 c 128,-1,21
 1230 922 1230 922 1215 939 c 128,-1,22
 1200 956 1200 956 1200 968.5 c 128,-1,23
 1200 981 1200 981 1204 989 c 1,24,-1
 1268 1176 l 1,25,26
 1183.28109029 1311.55025554 1183.28109029 1311.55025554 1041 1361.5 c 0,27,28
 994 1378 994 1378 924.5 1378 c 128,-1,29
 855 1378 855 1378 783.5 1350 c 128,-1,30
 712 1322 712 1322 658.5 1274 c 128,-1,31
 605 1226 605 1226 567 1161.5 c 128,-1,32
 529 1097 529 1097 505.5 1024 c 0,33,34
 461 885.765957447 461 885.765957447 461 721 c 0,35,36
 461 477.714285714 461 477.714285714 537 294.5 c 0,37,38
 596.259615385 151.641998626 596.259615385 151.641998626 704 92 c 0,39,40
 760 61 760 61 840.5 61 c 128,-1,41
 921 61 921 61 999.5 86 c 128,-1,42
 1078 111 1078 111 1142.5 157.5 c 0,43,44
 1277.20745294 254.614675375 1277.20745294 254.614675375 1331 414 c 1,45,46
 1342.38888889 455 1342.38888889 455 1373.19444444 455 c 128,-1,47
 1404 455 1404 455 1419 438 c 128,-1,48
 1434 421 1434 421 1434 401 c 2,49,-1
 1434 389 l 1,50,51
 1433 387 1433 387 1427.5 369 c 128,-1,52
 1422 351 1422 351 1409.5 322.5 c 0,53,54
 1315.05531769 107.166124336 1315.05531769 107.166124336 1101.5 13 c 0,55,56
 974.5 -43 974.5 -43 818.75 -41.5 c 128,-1,57
 663 -40 663 -40 527.5 12.5 c 128,-1,58
 392 65 392 65 297.5 159.5 c 0,59,60
 102 355 102 355 102 684 c 0,61,62
 102 1107.16666667 102 1107.16666667 352 1315.5 c 0,63,64
 562.6 1491 562.6 1491 866 1491 c 256,10,11
EndSplineSet
EndChar

StartChar: D
Encoding: 68 68 41
Width: 1546
Flags: HW
LayerCount: 2
Fore
SplineSet
389 74 m 1,0,1
 476.04 65.84 476.04 65.84 530 63 c 1,2,-1
 530 1350 l 1,3,4
 464.914893617 1344.86170213 464.914893617 1344.86170213 389 1333 c 1,5,-1
 389 74 l 1,0,1
1315.5 529 m 0,6,7
 1341 615 1341 615 1341 742.5 c 128,-1,8
 1341 870 1341 870 1287 993.5 c 128,-1,9
 1233 1117 1233 1117 1138.5 1199.5 c 0,10,11
 942.672677782 1370.46036067 942.672677782 1370.46036067 635 1352 c 1,12,-1
 635 63 l 1,13,14
 926.640718563 53.8862275449 926.640718563 53.8862275449 1132.5 239 c 0,15,16
 1264.78207965 357.951327434 1264.78207965 357.951327434 1315.5 529 c 0,6,7
285 1315 m 1,17,-1
 129 1276 l 1,18,19
 106 1276 106 1276 92 1292.5 c 128,-1,20
 78 1309 78 1309 78 1327.5 c 0,21,22
 78 1367.70588235 78 1367.70588235 113 1378 c 0,23,24
 117 1379 117 1379 157.5 1391.5 c 128,-1,25
 198 1404 198 1404 266.5 1418.5 c 0,26,27
 443.655172414 1456 443.655172414 1456 622.327586207 1456 c 128,-1,28
 801 1456 801 1456 951 1409.5 c 128,-1,29
 1101 1363 1101 1363 1211 1270 c 0,30,31
 1446 1071.31818182 1446 1071.31818182 1446 711 c 0,32,33
 1446 473.137931034 1446 473.137931034 1323 295 c 0,34,35
 1210.29257642 131.768558952 1210.29257642 131.768558952 1005.5 42.5 c 0,36,37
 809.352941176 -43 809.352941176 -43 571 -43 c 0,38,39
 329 -43 329 -43 131 23 c 1,40,41
 96 37 96 37 96 66 c 128,-1,42
 96 95 96 95 113 110 c 128,-1,43
 130 125 130 125 150 125 c 1,44,-1
 285 90 l 1,45,-1
 285 1315 l 1,17,-1
EndSplineSet
EndChar

StartChar: E
Encoding: 69 69 42
Width: 1350
Flags: HW
LayerCount: 2
Fore
SplineSet
520 1319 m 1,0,1
 450 1315 450 1315 377 1315 c 1,2,-1
 377 100 l 1,3,4
 412 102 412 102 448.5 102 c 128,-1,5
 485 102 485 102 520 104 c 1,6,-1
 520 1319 l 1,0,1
653 104 m 2,7,8
 921.5 104 921.5 104 1135 90 c 1,9,-1
 1171 358 l 1,10,11
 1175 378 1175 378 1189.5 390.5 c 128,-1,12
 1204 403 1204 403 1225.5 403 c 128,-1,13
 1247 403 1247 403 1261.5 386 c 128,-1,14
 1276 369 1276 369 1276 352 c 2,15,-1
 1276 344 l 1,16,-1
 1233 27 l 2,17,18
 1230 7 1230 7 1215 -5.5 c 128,-1,19
 1200 -18 1200 -18 1180 -18 c 2,20,-1
 1178 -18 l 1,21,22
 909 0 909 0 651 0 c 128,-1,23
 393 0 393 0 152 -18 c 1,24,-1
 147 -18 l 1,25,26
 124 -16 124 -16 109 -2 c 128,-1,27
 94 12 94 12 94 33.5 c 128,-1,28
 94 55 94 55 108 69.5 c 128,-1,29
 122 84 122 84 148.5 86.5 c 128,-1,30
 175 89 175 89 207.5 90.5 c 128,-1,31
 240 92 240 92 272 94 c 1,32,-1
 272 1313 l 1,33,34
 240 1315 240 1315 208.5 1315 c 2,35,-1
 145 1315 l 1,36,37
 124 1317 124 1317 109 1331.5 c 128,-1,38
 94 1346 94 1346 94 1368 c 256,39,40
 94 1390 94 1390 110 1405.5 c 128,-1,41
 126 1421 126 1421 155.5 1420 c 128,-1,42
 185 1419 185 1419 220.5 1419 c 2,43,-1
 291 1419 l 2,44,45
 714 1419 714 1419 1130 1475 c 1,46,-1
 1139 1475 l 2,47,48
 1159 1475 1159 1475 1173 1461.5 c 128,-1,49
 1187 1448 1187 1448 1190 1430 c 2,50,-1
 1233 1092 l 1,51,-1
 1233 1085 l 2,52,53
 1233 1062 1233 1062 1216.5 1048 c 128,-1,54
 1200 1034 1200 1034 1180.5 1034 c 128,-1,55
 1161 1034 1161 1034 1146.5 1046.5 c 128,-1,56
 1132 1059 1132 1059 1128 1079 c 1,57,-1
 1092 1364 l 1,58,59
 893.865771812 1336.67114094 893.865771812 1336.67114094 625 1323 c 1,60,-1
 625 664 l 1,61,62
 840.04 672.96 840.04 672.96 961 696 c 1,63,-1
 971 696 l 2,64,65
 992 696 992 696 1008 680.5 c 128,-1,66
 1024 665 1024 665 1024 645 c 256,67,68
 1024 603.315789474 1024 603.315789474 981 592 c 1,69,70
 863.023529412 568.917647059 863.023529412 568.917647059 625 559 c 1,71,-1
 625 104 l 1,72,-1
 653 104 l 2,7,8
EndSplineSet
EndChar

StartChar: F
Encoding: 70 70 43
Width: 1337
Flags: HW
LayerCount: 2
Fore
SplineSet
385 115 m 1,0,1
 455 119 455 119 526 119 c 1,2,-1
 541 1333 l 1,3,-1
 399 1333 l 1,4,-1
 385 115 l 1,0,1
152 1446 m 1,5,6
 284.8 1438 284.8 1438 581.65 1438 c 128,-1,7
 878.5 1438 878.5 1438 1243 1483 c 1,8,-1
 1249 1483 l 2,9,10
 1272 1483 1272 1483 1286 1467.5 c 128,-1,11
 1300 1452 1300 1452 1300 1432 c 2,12,-1
 1300 1425 l 1,13,-1
 1260 999 l 2,14,15
 1258 979 1258 979 1243 965.5 c 128,-1,16
 1228 952 1228 952 1206 952 c 128,-1,17
 1184 952 1184 952 1169.5 969.5 c 128,-1,18
 1155 987 1155 987 1155 1006 c 2,19,-1
 1155 1010 l 1,20,-1
 1190 1370 l 1,21,22
 905.363636364 1340.69919786 905.363636364 1340.69919786 647 1335 c 1,23,-1
 639 696 l 1,24,25
 769.25 696 769.25 696 854.625 711.5 c 128,-1,26
 940 727 940 727 952.5 727 c 128,-1,27
 965 727 965 727 979.5 715 c 128,-1,28
 994 703 994 703 995.5 680.5 c 128,-1,29
 997 658 997 658 985 642 c 128,-1,30
 973 626 973 626 954 623 c 0,31,32
 788.058823529 592 788.058823529 592 637 592 c 1,33,-1
 633 117 l 1,34,35
 676 115 676 115 723 113 c 128,-1,36
 770 111 770 111 807 107.5 c 0,37,38
 868 101.72972973 868 101.72972973 868 49 c 1,39,40
 866 29 866 29 851.5 15.5 c 128,-1,41
 837 2 837 2 817 2 c 2,42,-1
 813 2 l 1,43,44
 659 14 659 14 514 14 c 128,-1,45
 369 14 369 14 137 -18 c 1,46,-1
 131 -18 l 2,47,48
 108 -18 108 -18 93 -2.5 c 128,-1,49
 78 13 78 13 78 33 c 128,-1,50
 78 53 78 53 90.5 68 c 128,-1,51
 103 83 103 83 123 86 c 0,52,53
 205 98 205 98 281 104 c 1,54,-1
 295 1335 l 1,55,56
 258 1337 258 1337 221 1338 c 128,-1,57
 184 1339 184 1339 154.5 1341 c 0,58,59
 96 1344.96610169 96 1344.96610169 96 1395 c 0,60,61
 96 1416 96 1416 112 1431 c 128,-1,62
 128 1446 128 1446 150 1446 c 2,63,-1
 152 1446 l 1,5,6
EndSplineSet
EndChar

StartChar: G
Encoding: 71 71 44
Width: 1606
Flags: HW
LayerCount: 2
Fore
SplineSet
514 113 m 1,0,1
 346 323.506024096 346 323.506024096 346 721 c 0,2,3
 346 1099.77894737 346 1099.77894737 539 1307 c 1,4,5
 207 1131.51428571 207 1131.51428571 207 684 c 0,6,7
 207 371.181034483 207 371.181034483 378 210.5 c 0,8,9
 436 156 436 156 514 113 c 1,0,1
866 1487 m 256,10,11
 1147.12903226 1487 1147.12903226 1487 1309 1294 c 1,12,-1
 1364 1452 l 2,13,14
 1377.125 1487 1377.125 1487 1407.5625 1487 c 128,-1,15
 1438 1487 1438 1487 1452 1469.5 c 128,-1,16
 1466 1452 1466 1452 1466 1441.5 c 0,17,18
 1466 1427 1466 1427 1462 1417 c 2,19,-1
 1303 952 l 2,20,21
 1291.66666667 918 1291.66666667 918 1260.83333333 918 c 128,-1,22
 1230 918 1230 918 1215 934.5 c 128,-1,23
 1200 951 1200 951 1200 962.5 c 0,24,25
 1200 977 1200 977 1204 987 c 2,26,-1
 1268 1174 l 1,27,28
 1182.43536932 1307.48082386 1182.43536932 1307.48082386 1040 1359 c 0,29,30
 993 1376 993 1376 946 1376 c 0,31,32
 713.927374302 1376 713.927374302 1376 579.5 1183.5 c 0,33,34
 453 1002.352 453 1002.352 453 721 c 0,35,36
 453 487.807017544 453 487.807017544 531.5 295 c 0,37,38
 592.407450915 145.40275214 592.407450915 145.40275214 700 82 c 0,39,40
 756 49 756 49 853.5 49 c 128,-1,41
 951 49 951 49 1039 79 c 128,-1,42
 1127 109 1127 109 1183.5 158 c 0,43,44
 1294 253.831858407 1294 253.831858407 1294 399 c 0,45,46
 1294 500.545454545 1294 500.545454545 1240 570.5 c 0,47,48
 1205.08595388 615.729559748 1205.08595388 615.729559748 1159 637 c 1,49,50
 1032.82698962 620.335640138 1032.82698962 620.335640138 950.5 580.5 c 0,51,52
 935 573 935 573 929 569 c 128,-1,53
 923 565 923 565 904.5 565 c 128,-1,54
 886 565 886 565 871 581.5 c 128,-1,55
 856 598 856 598 856 622.5 c 128,-1,56
 856 647 856 647 883 664 c 0,57,58
 886 665 886 665 915 679 c 128,-1,59
 944 693 944 693 996.5 709.5 c 0,60,61
 1131.72727273 752 1131.72727273 752 1265.36363636 752 c 128,-1,62
 1399 752 1399 752 1522 731 c 0,63,64
 1540 728 1540 728 1552.5 713.5 c 128,-1,65
 1565 699 1565 699 1565 676.5 c 128,-1,66
 1565 654 1565 654 1547 640.5 c 128,-1,67
 1529 627 1529 627 1517 627 c 128,-1,68
 1505 627 1505 627 1478 632.5 c 0,69,70
 1433 641.666666667 1433 641.666666667 1313 647 c 1,71,72
 1401 544.72972973 1401 544.72972973 1401 397 c 0,73,74
 1401 172.920353982 1401 172.920353982 1211.5 50.5 c 0,75,76
 1045.09589041 -57 1045.09589041 -57 827 -57 c 1,77,78
 487.975765306 -47.0286989796 487.975765306 -47.0286989796 295 148 c 128,-1,79
 102 343.053191489 102 343.053191489 102 684 c 0,80,81
 102 969.792792793 102 969.792792793 221.5 1162.5 c 0,82,83
 324.240462588 1328.18056579 324.240462588 1328.18056579 511.5 1413.5 c 0,84,85
 672.818181818 1487 672.818181818 1487 866 1487 c 256,10,11
EndSplineSet
EndChar

StartChar: H
Encoding: 72 72 45
Width: 1714
Flags: HW
LayerCount: 2
Fore
SplineSet
549 1341 m 1,0,1
 476.5 1341 l 2,2,3
 441 1341 441 1341 403 1343 c 1,4,-1
 381 94 l 1,5,-1
 514 94 l 1,6,-1
 549 1341 l 1,0,1
1632 1475 m 2,7,8
 1671.61111111 1475 1671.61111111 1475 1683 1434 c 1,9,10
 1683 1382.05882353 1683 1382.05882353 1642 1370 c 1,11,12
 1537.64516129 1349.12903226 1537.64516129 1349.12903226 1434 1341 c 1,13,14
 1378 837 1378 837 1378 186 c 2,15,-1
 1378 88 l 1,16,17
 1473 88 1473 88 1579 78 c 1,18,19
 1626 67.7826086957 1626 67.7826086957 1626 20 c 1,20,21
 1624 -1 1624 -1 1608.5 -14 c 128,-1,22
 1593 -27 1593 -27 1573 -27 c 2,23,-1
 1569 -27 l 1,24,25
 1443.6 -16 1443.6 -16 1348 -16 c 256,26,27
 1249.2 -16 1249.2 -16 1137 -27 c 1,28,-1
 1130 -27 l 2,29,30
 1107 -27 1107 -27 1092 -11 c 128,-1,31
 1077 5 1077 5 1077 25 c 256,32,33
 1077 45 1077 45 1090.5 60 c 128,-1,34
 1104 75 1104 75 1133 78 c 0,35,36
 1183.75 83.25 1183.75 83.25 1274 88 c 1,37,-1
 1274 186 l 2,38,39
 1274 405 1274 405 1280 596 c 1,40,41
 1136.5 582 1136.5 582 952.125 582 c 128,-1,42
 767.75 582 767.75 582 633 596 c 1,43,-1
 621 90 l 1,44,45
 678 85.5 678 85.5 778 78 c 1,46,47
 798 75 798 75 811.5 60 c 128,-1,48
 825 45 825 45 825 23.5 c 128,-1,49
 825 2 825 2 808 -12.5 c 128,-1,50
 791 -27 791 -27 772 -27 c 2,51,-1
 768 -27 l 1,52,53
 448.506329114 4.94936708861 448.506329114 4.94936708861 137 -27 c 1,54,-1
 133 -27 l 2,55,56
 110 -27 110 -27 95 -11 c 128,-1,57
 80 5 80 5 80 25 c 256,58,59
 80 45 80 45 93.5 60 c 128,-1,60
 107 75 107 75 135.5 78 c 128,-1,61
 164 81 164 81 201.5 84 c 128,-1,62
 239 87 239 87 276 90 c 1,63,-1
 299 1352 l 1,64,65
 213 1358 213 1358 125 1370 c 0,66,67
 105 1373 105 1373 92.5 1388 c 128,-1,68
 80 1403 80 1403 80 1425 c 128,-1,69
 80 1447 80 1447 98 1461 c 128,-1,70
 116 1475 116 1475 133 1475 c 2,71,-1
 139 1475 l 1,72,73
 331.125 1446 331.125 1446 513.0625 1446 c 128,-1,74
 695 1446 695 1446 795 1456 c 1,75,-1
 799 1456 l 2,76,77
 819 1456 819 1456 834.5 1442.5 c 128,-1,78
 850 1429 850 1429 851 1406.5 c 128,-1,79
 852 1384 852 1384 837.5 1369 c 128,-1,80
 823 1354 823 1354 794.5 1351.5 c 0,81,82
 705.481481481 1343.69135802 705.481481481 1343.69135802 653 1341 c 1,83,-1
 637 702 l 1,84,85
 768.555555556 686 768.555555556 686 902.277777778 686 c 0,86,87
 1138.75 686 1138.75 686 1284 700 c 1,88,89
 1295.72289157 1045.8253012 1295.72289157 1045.8253012 1329 1337 c 1,90,91
 1228.01960784 1342.04901961 1228.01960784 1342.04901961 1191.50980392 1348.5245098 c 0,92,93
 1130 1359.43407626 1130 1359.43407626 1130 1403 c 0,94,95
 1130 1428 1130 1428 1147.5 1442 c 128,-1,96
 1165 1456 1165 1456 1182 1456 c 2,97,-1
 1190 1456 l 1,98,99
 1260 1442 1260 1442 1370.11764706 1442 c 128,-1,100
 1480.23529412 1442 1480.23529412 1442 1620 1475 c 1,101,-1
 1632 1475 l 2,7,8
EndSplineSet
EndChar

StartChar: I
Encoding: 73 73 46
Width: 926
Flags: HW
LayerCount: 2
Fore
SplineSet
549 1335 m 1,0,1
 476.5 1335 l 2,2,3
 441 1335 441 1335 403 1337 c 1,4,-1
 381 106 l 1,5,-1
 514 106 l 1,6,-1
 549 1335 l 1,0,1
139 1468 m 1,7,8
 336.866666667 1440 336.866666667 1440 515.933333333 1440 c 128,-1,9
 695 1440 695 1440 795 1450 c 1,10,-1
 799 1450 l 2,11,12
 822 1450 822 1450 837 1434 c 128,-1,13
 852 1418 852 1418 852 1397.5 c 128,-1,14
 852 1377 852 1377 838 1362.5 c 128,-1,15
 824 1348 824 1348 795 1345 c 0,16,17
 742.898305085 1339.61016949 742.898305085 1339.61016949 653 1335 c 1,18,-1
 621 102 l 1,19,20
 678 97.5 678 97.5 778 90 c 1,21,22
 825 79.7826086957 825 79.7826086957 825 33 c 1,23,24
 823 11 823 11 807.5 -1.5 c 128,-1,25
 792 -14 792 -14 772 -14 c 2,26,-1
 768 -14 l 1,27,28
 448.506329114 17.9493670886 448.506329114 17.9493670886 137 -14 c 1,29,-1
 133 -14 l 2,30,31
 110 -14 110 -14 95 1.5 c 128,-1,32
 80 17 80 17 80 37 c 256,33,34
 80 57 80 57 93.5 72 c 128,-1,35
 107 87 107 87 135.5 90 c 128,-1,36
 164 93 164 93 201.5 96 c 128,-1,37
 239 99 239 99 276 102 c 1,38,-1
 299 1346 l 1,39,40
 213 1352 213 1352 125 1364 c 0,41,42
 105 1367 105 1367 92.5 1382 c 128,-1,43
 80 1397 80 1397 80 1419 c 128,-1,44
 80 1441 80 1441 98 1454.5 c 128,-1,45
 116 1468 116 1468 133 1468 c 2,46,-1
 139 1468 l 1,7,8
EndSplineSet
EndChar

StartChar: J
Encoding: 74 74 47
Width: 1327
Flags: HW
LayerCount: 2
Fore
SplineSet
946 1356 m 1,0,1
 865.333333333 1342.17142857 865.333333333 1342.17142857 805 1337 c 1,2,3
 806.365192582 1286.48787447 806.365192582 1286.48787447 826.182596291 1157.24393723 c 128,-1,4
 846 1028 846 1028 859 943 c 128,-1,5
 872 858 872 858 883 773 c 0,6,7
 909 572.090909091 909 572.090909091 909 468.045454545 c 0,8,9
 909 260.446808511 909 260.446808511 817 143 c 1,10,11
 956.630252101 233.084033613 956.630252101 233.084033613 1011.5 385.5 c 0,12,13
 1034 448 1034 448 1034 509 c 128,-1,14
 1034 570 1034 570 1030 627.5 c 128,-1,15
 1026 685 1026 685 1020 751 c 0,16,17
 997.225490196 1001.51960784 997.225490196 1001.51960784 946 1356 c 1,0,1
698 1327 m 1,18,19
 624 1323 624 1323 576.5 1322 c 0,20,21
 498 1320.34736842 498 1320.34736842 498 1374 c 0,22,23
 498 1396 498 1396 512.5 1411.5 c 128,-1,24
 527 1427 527 1427 549 1427 c 0,25,26
 880 1432 880 1432 1192 1516 c 1,27,28
 1195 1518 1195 1518 1199 1518 c 2,29,-1
 1206 1518 l 2,30,31
 1229 1518 1229 1518 1243 1502 c 128,-1,32
 1257 1486 1257 1486 1257 1467 c 0,33,34
 1257 1425.58823529 1257 1425.58823529 1217 1414.29411765 c 0,35,36
 1146.75655431 1394.46067416 1146.75655431 1394.46067416 1049 1374 c 1,37,38
 1141 751.230769231 1141 751.230769231 1141 532 c 0,39,40
 1141 293.194690265 1141 293.194690265 958.5 122 c 0,41,42
 778.339622642 -47 778.339622642 -47 535 -47 c 0,43,44
 341.697478992 -47 341.697478992 -47 195 79.5 c 0,45,46
 41 212.297101449 41 212.297101449 41 401 c 0,47,48
 41 561.101694915 41 561.101694915 158 690 c 1,49,50
 175 707 175 707 197.5 707 c 128,-1,51
 220 707 220 707 235 691 c 128,-1,52
 250 675 250 675 250 654 c 128,-1,53
 250 633 250 633 220.5 601 c 128,-1,54
 191 569 191 569 169 513.5 c 128,-1,55
 147 458 147 458 147 396 c 128,-1,56
 147 334 147 334 173 277 c 128,-1,57
 199 220 199 220 243 178 c 0,58,59
 337.285714286 88 337.285714286 88 467 88 c 0,60,61
 632.484848485 88 632.484848485 88 722 193.5 c 0,62,63
 805 291.321428571 805 291.321428571 805 463 c 0,64,65
 805 628.777777778 805 628.777777778 773 827.888888889 c 128,-1,66
 741 1027 741 1027 729 1101 c 0,67,68
 701.215384615 1272.33846154 701.215384615 1272.33846154 698 1327 c 1,18,19
EndSplineSet
EndChar

StartChar: K
Encoding: 75 75 48
Width: 1679
Flags: HW
LayerCount: 2
Fore
SplineSet
518 1335 m 1,0,1
 483 1333 483 1333 446.5 1333 c 2,2,-1
 375 1333 l 1,3,-1
 410 106 l 1,4,-1
 541 106 l 1,5,-1
 518 1335 l 1,0,1
899 846 m 1,6,7
 844 791 844 791 811 764 c 1,8,9
 1089.15086207 476.971982759 1089.15086207 476.971982759 1198 96 c 1,10,-1
 1325 115 l 1,11,12
 1240.34299517 460.140096618 1240.34299517 460.140096618 1017.5 723.5 c 0,13,14
 971.911111111 777.377777778 971.911111111 777.377777778 899 846 c 1,6,7
129 1448 m 1,15,16
 229 1438 229 1438 408.5 1438 c 128,-1,17
 588 1438 588 1438 784 1466 c 1,18,-1
 791 1466 l 2,19,20
 814 1466 814 1466 829 1450.5 c 128,-1,21
 844 1435 844 1435 844 1415 c 128,-1,22
 844 1395 844 1395 831.5 1380 c 128,-1,23
 819 1365 819 1365 786.5 1360.5 c 0,24,25
 731.992125984 1352.95275591 731.992125984 1352.95275591 625 1343 c 1,26,-1
 635 754 l 1,27,28
 784.168026101 868.983686786 784.168026101 868.983686786 868.584013051 956.991843393 c 0,29,30
 1049.59834524 1145.70891313 1049.59834524 1145.70891313 1149 1348 c 1,31,-1
 1008 1348 l 2,32,33
 986 1348 986 1348 970 1362.5 c 128,-1,34
 954 1377 954 1377 954 1399.5 c 128,-1,35
 954 1422 954 1422 970 1437 c 128,-1,36
 986 1452 986 1452 1008 1452 c 2,37,-1
 1456 1452 l 2,38,39
 1478 1452 1478 1452 1493.5 1437 c 128,-1,40
 1509 1422 1509 1422 1509 1399.5 c 128,-1,41
 1509 1377 1509 1377 1493.5 1362.5 c 128,-1,42
 1478 1348 1478 1348 1456 1348 c 2,43,-1
 1266 1348 l 1,44,45
 1183.36431784 1164.06896552 1183.36431784 1164.06896552 1052 1013 c 0,46,47
 1012 967 1012 967 971 922 c 1,48,49
 1221.10810811 705.997542998 1221.10810811 705.997542998 1364.5 341 c 0,50,51
 1403 243 1403 243 1430 129 c 1,52,-1
 1653 162 l 1,53,-1
 1659 162 l 2,54,55
 1682 162 1682 162 1697 146 c 128,-1,56
 1712 130 1712 130 1712 110 c 128,-1,57
 1712 90 1712 90 1699.5 75 c 128,-1,58
 1687 60 1687 60 1667 57 c 2,59,-1
 1165 -14 l 1,60,-1
 1159 -14 l 2,61,62
 1141 -14 1141 -14 1126 -3 c 128,-1,63
 1111 8 1111 8 1109 18 c 128,-1,64
 1107 28 1107 28 1099.5 57 c 128,-1,65
 1092 86 1092 86 1075 135 c 128,-1,66
 1058 184 1058 184 1029.5 249.5 c 128,-1,67
 1001 315 1001 315 959.5 389 c 0,68,69
 864.112333404 559.08885128 864.112333404 559.08885128 731 694 c 1,70,71
 729.368421053 692.736842105 729.368421053 692.736842105 637 625 c 1,72,-1
 647 102 l 1,73,74
 684 99 684 99 722 96 c 128,-1,75
 760 93 760 93 788.5 90 c 128,-1,76
 817 87 817 87 830.5 72 c 128,-1,77
 844 57 844 57 844 34.5 c 128,-1,78
 844 12 844 12 826 -1 c 128,-1,79
 808 -14 808 -14 791 -14 c 2,80,-1
 784 -14 l 1,81,82
 634 2 634 2 475 2 c 128,-1,83
 316 2 316 2 156 -14 c 1,84,-1
 150 -14 l 2,85,86
 127 -14 127 -14 112.5 1.5 c 128,-1,87
 98 17 98 17 98 37 c 256,88,89
 98 57 98 57 111.5 72 c 128,-1,90
 125 87 125 87 155.5 90 c 128,-1,91
 186 93 186 93 225.5 96 c 128,-1,92
 265 99 265 99 303 102 c 1,93,-1
 270 1333 l 1,94,95
 197 1336.84210526 197 1336.84210526 119 1343 c 0,96,97
 99 1345 99 1345 85.5 1360 c 128,-1,98
 72 1375 72 1375 72 1397 c 128,-1,99
 72 1419 72 1419 89 1433.5 c 128,-1,100
 106 1448 106 1448 125 1448 c 2,101,-1
 129 1448 l 1,15,16
EndSplineSet
EndChar

StartChar: L
Encoding: 76 76 49
Width: 1341
Flags: HW
LayerCount: 2
Fore
SplineSet
547 1354 m 1,0,1
 474.5 1354 l 2,2,3
 439 1354 439 1354 401 1356 c 1,4,-1
 379 102 l 1,5,6
 411 104 411 104 444.5 104 c 128,-1,7
 478 104 478 104 512 106 c 1,8,-1
 547 1354 l 1,0,1
1307 504 m 1,9,-1
 1223 29 l 2,10,11
 1220 9 1220 9 1205 -2.5 c 128,-1,12
 1190 -14 1190 -14 1171 -14 c 2,13,-1
 1165 -14 l 1,14,15
 1001 2 1001 2 647 2 c 256,16,17
 291 2 291 2 135 -14 c 1,18,-1
 131 -14 l 2,19,20
 84.12 -14 84.12 -14 78 37 c 1,21,22
 78 57 78 57 91.5 72 c 128,-1,23
 105 87 105 87 129.5 90 c 128,-1,24
 154 93 154 93 191.5 95 c 128,-1,25
 229 97 229 97 274 100 c 1,26,-1
 297 1364 l 1,27,28
 211 1370 211 1370 123 1382 c 0,29,30
 103 1385 103 1385 90.5 1400 c 128,-1,31
 78 1415 78 1415 79.5 1437.5 c 128,-1,32
 81 1460 81 1460 96 1473.5 c 128,-1,33
 111 1487 111 1487 131 1487 c 2,34,-1
 137 1487 l 1,35,36
 327.3125 1458 327.3125 1458 510.15625 1458 c 128,-1,37
 693 1458 693 1458 793 1468 c 1,38,-1
 797 1468 l 2,39,40
 820 1468 820 1468 835 1452.5 c 128,-1,41
 850 1437 850 1437 850 1416 c 128,-1,42
 850 1395 850 1395 836 1380.5 c 128,-1,43
 822 1366 822 1366 793 1363.5 c 0,44,45
 732.648648649 1358.2972973 732.648648649 1358.2972973 651 1354 c 1,46,-1
 618 106 l 1,47,-1
 647 106 l 2,48,49
 952 106 952 106 1128 94 c 1,50,-1
 1202 512 l 2,51,52
 1205 532 1205 532 1220 544.5 c 128,-1,53
 1235 557 1235 557 1255 557 c 128,-1,54
 1275 557 1275 557 1291 540.5 c 128,-1,55
 1307 524 1307 524 1307 504 c 1,9,-1
EndSplineSet
EndChar

StartChar: M
Encoding: 77 77 50
Width: 2159
Flags: HW
LayerCount: 2
Fore
SplineSet
489 1307 m 1,0,1
 474 1260 474 1260 467.5 1206 c 128,-1,2
 461 1152 461 1152 455 1110 c 1,3,-1
 938 166 l 1,4,5
 952 204 952 204 968.5 253.5 c 2,6,-1
 1004 360 l 1,7,-1
 489 1307 l 1,0,1
1667 121 m 1,8,9
 1743 127 1743 127 1821 131 c 1,10,11
 1792.74220963 542.756373938 1792.74220963 542.756373938 1686 1201 c 0,12,13
 1674 1275 1674 1275 1667 1313 c 1,14,15
 1593 1307 1593 1307 1503 1303 c 1,16,17
 1629.98313878 768.795071336 1629.98313878 768.795071336 1667 121 c 1,8,9
1892 1442 m 1,18,-1
 1901 1444 l 1,19,20
 1924 1444 1924 1444 1939 1427.5 c 128,-1,21
 1954 1411 1954 1411 1954 1391 c 256,22,23
 1954 1371 1954 1371 1941.5 1356.5 c 128,-1,24
 1929 1342 1929 1342 1911 1339 c 0,25,26
 1872.6 1332.6 1872.6 1332.6 1774 1321 c 1,27,28
 1780 1279 1780 1279 1792.5 1203.5 c 128,-1,29
 1805 1128 1805 1128 1819.5 1030.5 c 128,-1,30
 1834 933 1834 933 1850 819 c 128,-1,31
 1866 705 1866 705 1881 587 c 0,32,33
 1913.40875912 332.051094891 1913.40875912 332.051094891 1925 135 c 1,34,35
 1982.5 135 1982.5 135 2024.75 135 c 128,-1,36
 2067 135 2067 135 2091 134 c 128,-1,37
 2115 133 2115 133 2129.5 118.5 c 128,-1,38
 2144 104 2144 104 2144 81.5 c 128,-1,39
 2144 59 2144 59 2128.5 44 c 128,-1,40
 2113 29 2113 29 2089 30 c 128,-1,41
 2065 31 2065 31 2039 31 c 128,-1,42
 2013 31 2013 31 1987 31 c 0,43,44
 1706.70833333 31 1706.70833333 31 1427 -18 c 1,45,-1
 1417 -18 l 2,46,47
 1394 -18 1394 -18 1380 -2.5 c 128,-1,48
 1366 13 1366 13 1366 32 c 128,-1,49
 1366 51 1366 51 1377.5 66 c 128,-1,50
 1389 81 1389 81 1417.5 86.5 c 0,51,52
 1484.45783133 99.421686747 1484.45783133 99.421686747 1563 109 c 1,53,54
 1520.81751825 741.737226277 1520.81751825 741.737226277 1419 1196 c 1,55,56
 1271.4 835.2 1271.4 835.2 1045 156 c 2,57,58
 1011.5 55.5 l 2,59,60
 999 18 999 18 999 16 c 0,61,62
 989 -18 989 -18 950 -18 c 0,63,64
 916 -18 916 -18 903 8 c 2,65,-1
 418 956 l 1,66,67
 340.270718232 369.497237569 340.270718232 369.497237569 330 123 c 1,68,69
 512.096586178 114.530391341 512.096586178 114.530391341 537.5 82.5 c 0,70,71
 549 68 549 68 549 45.5 c 128,-1,72
 549 23 549 23 531 10.5 c 128,-1,73
 513 -2 513 -2 498 -2 c 2,74,-1
 487 -2 l 1,75,76
 371 20 371 20 268.25 20 c 128,-1,77
 165.5 20 165.5 20 92 6 c 1,78,-1
 84 6 l 2,79,80
 61 6 61 6 46 22 c 128,-1,81
 31 38 31 38 31 58 c 0,82,83
 31 101.947368421 31 101.947368421 74 111 c 1,84,85
 129 119.918918919 129 119.918918919 223 125 c 1,86,87
 239.85665529 546.416382253 239.85665529 546.416382253 343.5 1113 c 0,88,89
 366 1236 366 1236 393 1354 c 1,90,91
 273.885245902 1358.25409836 273.885245902 1358.25409836 174 1386 c 0,92,93
 135 1397.47058824 135 1397.47058824 135 1428.23529412 c 128,-1,94
 135 1459 135 1459 151.5 1474 c 128,-1,95
 168 1489 168 1489 180 1489 c 2,96,-1
 195 1489 l 2,97,98
 198 1489 198 1489 227.5 1481 c 0,99,100
 312.3125 1458 312.3125 1458 422 1458 c 1,101,-1
 494 1460 l 2,102,103
 523 1460 523 1460 541 1434 c 1,104,-1
 1051 496 l 1,105,106
 1299.13245033 1223.28476821 1299.13245033 1223.28476821 1391 1380 c 0,107,108
 1406 1405 1406 1405 1436 1405 c 1,109,-1
 1892 1442 l 1,18,-1
EndSplineSet
EndChar

StartChar: N
Encoding: 78 78 51
Width: 1681
Flags: HW
LayerCount: 2
Fore
SplineSet
549 1350 m 1,0,1
 476.5 1350 l 2,2,3
 441 1350 441 1350 403 1352 c 1,4,-1
 381 102 l 1,5,-1
 514 102 l 1,6,-1
 549 1350 l 1,0,1
1155 1473 m 1,7,8
 1204 1466 1204 1466 1269.5 1466 c 0,9,10
 1400.29411765 1466 1400.29411765 1466 1530 1501 c 0,11,12
 1534 1503 1534 1503 1550 1503 c 128,-1,13
 1566 1503 1566 1503 1580.5 1487.5 c 128,-1,14
 1595 1472 1595 1472 1595 1453.5 c 0,15,16
 1595 1411.58823529 1595 1411.58823529 1559.5 1401.79411765 c 0,17,18
 1484.26779359 1381.03825623 1484.26779359 1381.03825623 1421 1372 c 1,19,20
 1468 1086.38461538 1468 1086.38461538 1468 829.192307692 c 0,21,22
 1468 453.409090909 1468 453.409090909 1415 27 c 1,23,24
 1402.72727273 -18 1402.72727273 -18 1365.36363636 -18 c 128,-1,25
 1328 -18 1328 -18 1315 14 c 0,26,27
 1236.27748691 205.183246073 1236.27748691 205.183246073 1085.13874346 480.591623037 c 128,-1,28
 934 756 934 756 869.5 871 c 0,29,30
 759.470588235 1067.17647059 759.470588235 1067.17647059 651 1257 c 1,31,-1
 621 98 l 1,32,33
 678 93.5 678 93.5 778 86 c 1,34,35
 798 83 798 83 811.5 68 c 128,-1,36
 825 53 825 53 825 31.5 c 128,-1,37
 825 10 825 10 808 -4 c 128,-1,38
 791 -18 791 -18 772 -18 c 2,39,-1
 768 -18 l 1,40,41
 448.506329114 13.9493670886 448.506329114 13.9493670886 137 -18 c 1,42,-1
 133 -18 l 2,43,44
 111 -18 111 -18 95.5 -2.5 c 128,-1,45
 80 13 80 13 80 33 c 256,46,47
 80 53 80 53 93.5 68 c 128,-1,48
 107 83 107 83 135.5 86 c 128,-1,49
 164 89 164 89 201.5 92 c 128,-1,50
 239 95 239 95 276 98 c 1,51,-1
 299 1360 l 1,52,53
 213 1366 213 1366 125 1378 c 0,54,55
 105 1381 105 1381 92.5 1396.5 c 128,-1,56
 80 1412 80 1412 80 1434 c 128,-1,57
 80 1456 80 1456 98 1469.5 c 128,-1,58
 116 1483 116 1483 133 1483 c 2,59,-1
 139 1483 l 1,60,61
 360.642857143 1454 360.642857143 1454 553 1454 c 2,62,-1
 627 1454 l 2,63,64
 656 1454 656 1454 666 1438.5 c 128,-1,65
 676 1423 676 1423 698 1385 c 128,-1,66
 720 1347 720 1347 755 1286 c 128,-1,67
 790 1225 790 1225 835.5 1145 c 128,-1,68
 881 1065 881 1065 932.5 974 c 128,-1,69
 984 883 984 883 1038 785 c 128,-1,70
 1092 687 1092 687 1144.5 589.5 c 0,71,72
 1268.98113208 358.320754717 1268.98113208 358.320754717 1333 227 c 1,73,74
 1364 539.384615385 1364 539.384615385 1364 770 c 256,75,76
 1364 1070.72 1364 1070.72 1317 1364 c 1,77,78
 1304 1362 1304 1362 1292 1362 c 2,79,-1
 1266 1362 l 2,80,81
 1129.96774194 1362 1129.96774194 1362 1112.98387097 1381.5 c 128,-1,82
 1096 1401 1096 1401 1096 1422 c 128,-1,83
 1096 1443 1096 1443 1112.5 1458 c 128,-1,84
 1129 1473 1129 1473 1149 1473 c 2,85,-1
 1155 1473 l 1,7,8
EndSplineSet
EndChar

StartChar: O
Encoding: 79 79 52
Width: 1634
Flags: HW
LayerCount: 2
Fore
SplineSet
510 133 m 1,0,1
 342 328.670588235 342 328.670588235 342 727 c 0,2,3
 342 1117.35897436 342 1117.35897436 571 1317 c 0,4,5
 577 1323 577 1323 586 1329 c 1,6,7
 411.895285858 1252.07001003 411.895285858 1252.07001003 307 1086.5 c 0,8,9
 199 916.029411765 199 916.029411765 199 711 c 0,10,11
 199 433.912280702 199 433.912280702 383 237 c 0,12,13
 440 176 440 176 510 133 c 1,0,1
1438 708 m 0,14,15
 1438 779 1438 779 1420 853.5 c 128,-1,16
 1402 928 1402 928 1369.5 999.5 c 128,-1,17
 1337 1071 1337 1071 1291.5 1135.5 c 128,-1,18
 1246 1200 1246 1200 1191.5 1248.5 c 0,19,20
 1072.94845361 1354 1072.94845361 1354 948 1354 c 0,21,22
 701.770491803 1354 701.770491803 1354 566 1152 c 0,23,24
 446 973.463414634 446 973.463414634 446 727 c 0,25,26
 446 546.911111111 446 546.911111111 478 440.955555556 c 128,-1,27
 510 335 510 335 545.5 270.5 c 128,-1,28
 581 206 581 206 633 158.5 c 0,29,30
 744.115789474 57 744.115789474 57 913 57 c 0,31,32
 1048.03157895 57 1048.03157895 57 1175.5 160.5 c 0,33,34
 1292.03919308 255.125840538 1292.03919308 255.125840538 1365.5 409.5 c 0,35,36
 1438 561.855072464 1438 561.855072464 1438 708 c 0,14,15
1542 707.5 m 0,37,38
 1542 606 1542 606 1515.5 508.5 c 128,-1,39
 1489 411 1489 411 1441.5 325 c 128,-1,40
 1394 239 1394 239 1327 168 c 128,-1,41
 1260 97 1260 97 1179.5 46 c 0,42,43
 1010.60784314 -61 1010.60784314 -61 817 -61 c 0,44,45
 520.14893617 -61 520.14893617 -61 306.5 165.5 c 0,46,47
 171.967161351 308.12503947 171.967161351 308.12503947 120 506 c 0,48,49
 94 605 94 605 94 711 c 256,50,51
 94 920.404255319 94 920.404255319 193 1100.5 c 0,52,53
 288.020709728 1273.35682302 288.020709728 1273.35682302 453 1377.5 c 0,54,55
 620.128712871 1483 620.128712871 1483 817 1483 c 0,56,57
 1019.86792453 1483 1019.86792453 1483 1191.5 1370 c 0,58,59
 1352.95500388 1263.70043223 1352.95500388 1263.70043223 1447.5 1085 c 128,-1,60
 1542 906.384615385 1542 906.384615385 1542 707.5 c 0,37,38
EndSplineSet
EndChar

StartChar: P
Encoding: 80 80 53
Width: 1458
Flags: HW
LayerCount: 2
Fore
SplineSet
549 1364 m 1,0,1
 464.714285714 1359.78571429 464.714285714 1359.78571429 403 1354 c 1,2,-1
 381 102 l 1,3,-1
 514 102 l 1,4,-1
 549 1364 l 1,0,1
631 520 m 1,5,6
 693 504 693 504 786 504 c 128,-1,7
 879 504 879 504 974.5 531.5 c 128,-1,8
 1070 559 1070 559 1142.5 613 c 0,9,10
 1300 730.310344828 1300 730.310344828 1300 936 c 0,11,12
 1300 1221.5234375 1300 1221.5234375 991 1320.5 c 0,13,14
 877.056847545 1356.99741602 877.056847545 1356.99741602 723 1364 c 1,15,-1
 653 1364 l 1,16,-1
 631 520 l 1,5,6
768 -18 m 1,17,18
 448.506329114 13.9493670886 448.506329114 13.9493670886 137 -18 c 1,19,-1
 133 -18 l 2,20,21
 111 -18 111 -18 95.5 -2.5 c 128,-1,22
 80 13 80 13 80 33 c 256,23,24
 80 53 80 53 93.5 68 c 128,-1,25
 107 83 107 83 135.5 86 c 128,-1,26
 164 89 164 89 201.5 92 c 128,-1,27
 239 95 239 95 276 98 c 1,28,-1
 299 1339 l 1,29,30
 225 1327 225 1327 189.5 1315 c 128,-1,31
 154 1303 154 1303 147 1300.5 c 128,-1,32
 140 1298 140 1298 125.5 1298 c 128,-1,33
 111 1298 111 1298 95.5 1315 c 128,-1,34
 80 1332 80 1332 80 1349.5 c 0,35,36
 80 1388.625 80 1388.625 113 1401 c 1,37,38
 320 1470 320 1470 633 1470 c 2,39,-1
 678.5 1470 l 2,40,41
 702 1470 702 1470 757 1467.5 c 128,-1,42
 812 1465 812 1465 896 1451 c 128,-1,43
 980 1437 980 1437 1056 1408.5 c 128,-1,44
 1132 1380 1132 1380 1195.5 1338 c 128,-1,45
 1259 1296 1259 1296 1306 1237.5 c 0,46,47
 1405 1114.27659574 1405 1114.27659574 1405 936 c 0,48,49
 1405 688.663934426 1405 688.663934426 1201 536.5 c 0,50,51
 1016.65934066 399 1016.65934066 399 774 399 c 0,52,53
 689 399 689 399 629 414 c 1,54,-1
 621 98 l 1,55,56
 678 93.5 678 93.5 778 86 c 1,57,58
 798 83 798 83 811.5 68 c 128,-1,59
 825 53 825 53 825 31.5 c 128,-1,60
 825 10 825 10 808 -4 c 128,-1,61
 791 -18 791 -18 772 -18 c 2,62,-1
 768 -18 l 1,17,18
EndSplineSet
EndChar

StartChar: Q
Encoding: 81 81 54
Width: 1636
Flags: HW
LayerCount: 2
Fore
SplineSet
1108 6 m 1,0,1
 869.753623188 -106.115942029 869.753623188 -106.115942029 625.5 -33.5 c 0,2,3
 443.042887587 20.7440063932 443.042887587 20.7440063932 306.5 165.5 c 0,4,5
 171.967161351 308.12503947 171.967161351 308.12503947 120 506 c 0,6,7
 94 605 94 605 94 711 c 256,8,9
 94 920.404255319 94 920.404255319 193 1100.5 c 0,10,11
 288.020709728 1273.35682302 288.020709728 1273.35682302 453 1377.5 c 0,12,13
 620.128712871 1483 620.128712871 1483 817 1483 c 0,14,15
 1019.86792453 1483 1019.86792453 1483 1191.5 1370 c 0,16,17
 1352.95500388 1263.70043223 1352.95500388 1263.70043223 1447.5 1085 c 128,-1,18
 1542 906.384615385 1542 906.384615385 1542 711 c 0,19,20
 1542 408.792 1542 408.792 1340.5 181.5 c 0,21,22
 1278 111 1278 111 1202 59 c 1,23,24
 1249.25 -99.625 1249.25 -99.625 1354 -152 c 0,25,26
 1390 -170 1390 -170 1420 -170 c 0,27,28
 1474.09090909 -170 1474.09090909 -170 1492.54545455 -157.5 c 0,29,30
 1536.72430332 -127.575902921 1536.72430332 -127.575902921 1568.5 -155.5 c 0,31,32
 1585 -170 1585 -170 1585 -196 c 128,-1,33
 1585 -222 1585 -222 1558.5 -239 c 0,34,35
 1500.82352941 -276 1500.82352941 -276 1437.41176471 -276 c 128,-1,36
 1374 -276 1374 -276 1324 -254 c 128,-1,37
 1274 -232 1274 -232 1233 -194 c 0,38,39
 1152.69463294 -119.57063541 1152.69463294 -119.57063541 1108 6 c 1,0,1
897 360 m 0,40,41
 1094.04166667 360 1094.04166667 360 1174 158 c 1,42,43
 1291.06734534 254.883320282 1291.06734534 254.883320282 1364 407 c 0,44,45
 1438 561.342857143 1438 561.342857143 1438 711 c 0,46,47
 1438 848.8 1438 848.8 1369.5 999.5 c 0,48,49
 1300.34733894 1151.63585434 1300.34733894 1151.63585434 1191.5 1248.5 c 0,50,51
 1072.94845361 1354 1072.94845361 1354 948 1354 c 0,52,53
 701.770491803 1354 701.770491803 1354 566 1152 c 0,54,55
 446 973.463414634 446 973.463414634 446 727 c 0,56,57
 446 546.911111111 446 546.911111111 478 440.955555556 c 128,-1,58
 510 335 510 335 545.5 270.5 c 128,-1,59
 581 206 581 206 633 158.5 c 0,60,61
 744.115789474 57 744.115789474 57 913 57 c 0,62,63
 997 57 997 57 1083 100 c 1,64,65
 1033.73684211 256 1033.73684211 256 897 256 c 0,66,67
 840.714285714 256 840.714285714 256 804.357142857 240.5 c 128,-1,68
 768 225 768 225 753.5 225 c 128,-1,69
 739 225 739 225 722 240.5 c 128,-1,70
 705 256 705 256 705 274.5 c 0,71,72
 705 314.37037037 705 314.37037037 749.5 332.5 c 0,73,74
 817 360 817 360 897 360 c 0,40,41
510 133 m 1,75,76
 342 328.670588235 342 328.670588235 342 727 c 0,77,78
 342 1117.35897436 342 1117.35897436 571 1317 c 1,79,-1
 584 1327 l 1,80,81
 411.756373938 1250.89235127 411.756373938 1250.89235127 306 1085 c 0,82,83
 199 917.156862745 199 917.156862745 199 711 c 0,84,85
 199 433.912280702 199 433.912280702 383 237 c 0,86,87
 440 176 440 176 510 133 c 1,75,76
EndSplineSet
EndChar

StartChar: R
Encoding: 82 82 55
Width: 1604
Flags: HW
LayerCount: 2
Fore
SplineSet
381 106 m 1,0,1
 431 111 431 111 512 111 c 1,2,-1
 547 1358 l 1,3,4
 462.714285714 1353.78571429 462.714285714 1353.78571429 401 1348 c 1,5,-1
 381 106 l 1,0,1
1133 88 m 1,6,7
 1042 213.517241379 1042 213.517241379 1042 518 c 2,8,-1
 1042 554.5 l 2,9,10
 1042 572 1042 572 1044 586 c 1,11,12
 943 568.176470588 943 568.176470588 907 565 c 1,13,14
 903 537 903 537 903 483.5 c 128,-1,15
 903 430 903 430 912.5 363 c 128,-1,16
 922 296 922 296 947.5 238 c 0,17,18
 1005.43626807 106.223390276 1005.43626807 106.223390276 1133 88 c 1,6,7
633 682 m 1,19,20
 699.5 668 699.5 668 783.75 668 c 128,-1,21
 868 668 868 668 931 675 c 128,-1,22
 994 682 994 682 1054.5 698 c 128,-1,23
 1115 714 1115 714 1169 740.5 c 128,-1,24
 1223 767 1223 767 1263.5 806.5 c 0,25,26
 1352 892.814814815 1352 892.814814815 1352 1024 c 256,27,28
 1352 1220.50862069 1352 1220.50862069 1165 1299.5 c 0,29,30
 1052.13635655 1347.17515973 1052.13635655 1347.17515973 932.068178276 1355.58757987 c 128,-1,31
 812 1364 812 1364 759 1364 c 2,32,-1
 687 1364 l 2,33,34
 668 1364 668 1364 651 1362 c 1,35,-1
 633 682 l 1,19,20
1415 356 m 1,36,-1
 1413 387 l 1,37,38
 1413 410 1413 410 1429.5 424 c 128,-1,39
 1446 438 1446 438 1466 438 c 256,40,41
 1486 438 1486 438 1501 424.5 c 128,-1,42
 1516 411 1516 411 1518 391 c 2,43,-1
 1520 356 l 1,44,45
 1520 190.9 1520 190.9 1426 87.5 c 0,46,47
 1330.09090909 -18 1330.09090909 -18 1174 -18 c 2,48,-1
 1171 -18 l 1,49,50
 911.149981665 -10.8808214155 911.149981665 -10.8808214155 831 255.5 c 0,51,52
 799 361.852941176 799 361.852941176 799 494 c 1,53,-1
 801 561 l 1,54,55
 724.333333333 561 724.333333333 561 631 575 c 1,56,-1
 616 57 l 2,57,58
 616 33 616 33 600.5 19.5 c 128,-1,59
 585 6 585 6 563 6 c 0,60,61
 329 6 329 6 137 -18 c 1,62,-1
 131 -18 l 2,63,64
 108 -18 108 -18 93 -2.5 c 128,-1,65
 78 13 78 13 78 33 c 256,66,67
 78 53 78 53 90.5 68 c 128,-1,68
 103 83 103 83 131.5 87 c 128,-1,69
 160 91 160 91 198.5 94 c 128,-1,70
 237 97 237 97 274 100 c 1,71,-1
 297 1333 l 1,72,-1
 145 1303 l 1,73,74
 138 1298 138 1298 123 1298 c 128,-1,75
 108 1298 108 1298 93 1314 c 128,-1,76
 78 1330 78 1330 78 1349.5 c 0,77,78
 78 1390.11764706 78 1390.11764706 115 1401 c 1,79,80
 316 1468 316 1468 729 1468 c 1,81,82
 961.158380682 1456.15518466 961.158380682 1456.15518466 1066.57919034 1432.07759233 c 128,-1,83
 1172 1408 1172 1408 1239 1377.5 c 128,-1,84
 1306 1347 1306 1347 1354.5 1299 c 0,85,86
 1456 1198.54639175 1456 1198.54639175 1456 1024 c 0,87,88
 1456 881.0625 1456 881.0625 1371 769.5 c 0,89,90
 1290.46161137 663.793364929 1290.46161137 663.793364929 1151 618 c 1,91,92
 1147 572 1147 572 1147 536.5 c 128,-1,93
 1147 501 1147 501 1148 463 c 128,-1,94
 1149 425 1149 425 1153 380 c 128,-1,95
 1157 335 1157 335 1165.5 288 c 128,-1,96
 1174 241 1174 241 1188.5 202.5 c 0,97,98
 1221.45454545 115 1221.45454545 115 1278 115 c 0,99,100
 1347.55844156 115 1347.55844156 115 1386 207.5 c 0,101,102
 1415 277.28125 1415 277.28125 1415 356 c 1,36,-1
EndSplineSet
EndChar

StartChar: S
Encoding: 83 83 56
Width: 1458
Flags: HW
LayerCount: 2
Fore
SplineSet
268 1098 m 1,0,1
 252 1041.11111111 252 1041.11111111 252 981.055555556 c 128,-1,2
 252 921 252 921 268.5 872 c 128,-1,3
 285 823 285 823 336.5 777.5 c 0,4,5
 451.837669377 675.599728997 451.837669377 675.599728997 739 616 c 1,6,7
 924.088477366 575.763374486 924.088477366 575.763374486 1019.54423868 527.381687243 c 128,-1,8
 1115 479 1115 479 1168.5 426.5 c 128,-1,9
 1222 374 1222 374 1237 301 c 1,10,11
 1251 342 1251 342 1251 394.5 c 128,-1,12
 1251 447 1251 447 1230.5 493 c 128,-1,13
 1210 539 1210 539 1176.5 573.5 c 128,-1,14
 1143 608 1143 608 1099 634 c 128,-1,15
 1055 660 1055 660 1007.5 678.5 c 0,16,17
 943.867924528 703.283018868 943.867924528 703.283018868 853.933962264 725.141509434 c 128,-1,18
 764 747 764 747 701 763 c 128,-1,19
 638 779 638 779 578 799 c 128,-1,20
 518 819 518 819 464 845 c 128,-1,21
 410 871 410 871 368.5 907 c 0,22,23
 279.164327359 984.496005182 279.164327359 984.496005182 268 1098 c 1,0,1
229 334 m 1,24,25
 461.555555556 35 461.555555556 35 809 35 c 0,26,27
 1022.51898734 35 1022.51898734 35 1108.5 139.5 c 0,28,29
 1141 179 1141 179 1141 231 c 128,-1,30
 1141 283 1141 283 1118 318.5 c 128,-1,31
 1095 354 1095 354 1058 382 c 128,-1,32
 1021 410 1021 410 974.5 431.5 c 128,-1,33
 928 453 928 453 881 469 c 0,34,35
 805.515151515 494.696969697 805.515151515 494.696969697 726.757575758 510.848484848 c 128,-1,36
 648 527 648 527 578 545.5 c 128,-1,37
 508 564 508 564 445 590 c 128,-1,38
 382 616 382 616 328 651 c 128,-1,39
 274 686 274 686 234.5 733.5 c 0,40,41
 150 835.113924051 150 835.113924051 150 989 c 0,42,43
 150 1218.41747573 150 1218.41747573 320.5 1352.5 c 0,44,45
 476.271604938 1475 476.271604938 1475 698 1475 c 0,46,47
 823.322580645 1475 823.322580645 1475 974.5 1423.5 c 0,48,49
 1120.48337029 1373.76940133 1120.48337029 1373.76940133 1176 1309 c 1,50,51
 1198.84210526 1371 1198.84210526 1371 1241 1460 c 1,52,53
 1257.57142857 1489 1257.57142857 1489 1284.28571429 1489 c 128,-1,54
 1311 1489 1311 1489 1326 1472.5 c 128,-1,55
 1341 1456 1341 1456 1341 1440.5 c 128,-1,56
 1341 1425 1341 1425 1312 1365 c 128,-1,57
 1283 1305 1283 1305 1249.5 1196.5 c 128,-1,58
 1216 1088 1216 1088 1202 977 c 0,59,60
 1200 957 1200 957 1185.5 944.5 c 128,-1,61
 1171 932 1171 932 1149.5 932 c 128,-1,62
 1128 932 1128 932 1113 949 c 128,-1,63
 1098 966 1098 966 1098 983 c 2,64,-1
 1098 989 l 1,65,66
 1110 1095 1110 1095 1141 1198 c 1,67,68
 1122.70539419 1252.88381743 1122.70539419 1252.88381743 966 1312.5 c 0,69,70
 809.6 1372 809.6 1372 688 1372 c 0,71,72
 477.846153846 1372 477.846153846 1372 401 1242.5 c 0,73,74
 374 1197 374 1197 373 1133 c 1,75,76
 383.392935982 987.498896247 383.392935982 987.498896247 559 915.5 c 0,77,78
 644.401459854 880.48540146 644.401459854 880.48540146 727.200729927 862.74270073 c 128,-1,79
 810 845 810 845 880.5 828.5 c 128,-1,80
 951 812 951 812 1043 782 c 128,-1,81
 1135 752 1135 752 1204.5 703 c 0,82,83
 1356 596.18705036 1356 596.18705036 1356 389 c 0,84,85
 1356 183.050632911 1356 183.050632911 1177 50.5 c 0,86,87
 1014.27350427 -70 1014.27350427 -70 811 -70 c 0,88,89
 456.741935484 -70 456.741935484 -70 221 182 c 1,90,-1
 221 158 l 2,91,92
 221 95 221 95 225 33 c 1,93,-1
 225 29 l 2,94,95
 225 9 225 9 211.5 -6 c 128,-1,96
 198 -21 198 -21 175.5 -22 c 128,-1,97
 153 -23 153 -23 138 -9 c 128,-1,98
 123 5 123 5 121 32 c 0,99,100
 117 86 117 86 117 172 c 0,101,102
 117 331 117 331 154 516 c 1,103,104
 165.315789474 559 165.315789474 559 205 559 c 0,105,106
 228 559 228 559 243 541.5 c 128,-1,107
 258 524 258 524 258 514 c 2,108,-1
 258 501.5 l 2,109,110
 258 499 258 499 254.5 486 c 128,-1,111
 251 473 251 473 247.5 453.5 c 128,-1,112
 244 434 244 434 240.5 415.5 c 0,113,114
 236.631578947 395.052631579 236.631578947 395.052631579 229 334 c 1,24,25
EndSplineSet
EndChar

StartChar: T
Encoding: 84 84 57
Width: 1348
Flags: HW
LayerCount: 2
Fore
SplineSet
752 1327 m 1,0,1
 608 1329 l 1,2,-1
 586 96 l 1,3,4
 603 98 603 98 619.5 98 c 0,5,6
 652.5 98 652.5 98 677.25 98 c 128,-1,7
 702 98 702 98 719 96 c 1,8,-1
 752 1327 l 1,0,1
178 1460 m 1,9,10
 386 1432 386 1432 722 1432 c 128,-1,11
 1058 1432 1058 1432 1182 1442 c 1,12,-1
 1186 1442 l 2,13,14
 1204 1442 1204 1442 1219 1429.5 c 128,-1,15
 1234 1417 1234 1417 1235.5 1407.5 c 128,-1,16
 1237 1398 1237 1398 1240 1382 c 128,-1,17
 1243 1366 1243 1366 1248 1339 c 128,-1,18
 1253 1312 1253 1312 1260.5 1277 c 128,-1,19
 1268 1242 1268 1242 1277 1204.5 c 0,20,21
 1299.58823529 1110.38235294 1299.58823529 1110.38235294 1319 1057 c 1,22,-1
 1321 1040 l 1,23,24
 1321 1019 1321 1019 1304.5 1003 c 128,-1,25
 1288 987 1288 987 1270 987 c 0,26,27
 1232.05882353 987 1232.05882353 987 1219 1024 c 0,28,29
 1167.27956989 1175.1827957 1167.27956989 1175.1827957 1143 1333 c 1,30,31
 1029 1327 1029 1327 856 1327 c 1,32,-1
 823 92 l 1,33,34
 996.399913157 85.6561007382 996.399913157 85.6561007382 1012.19995658 67.3280503691 c 128,-1,35
 1028 49 1028 49 1028 26.5 c 128,-1,36
 1028 4 1028 4 1011.5 -10.5 c 128,-1,37
 995 -25 995 -25 977 -25 c 2,38,-1
 971 -25 l 1,39,40
 833.3 -8 833.3 -8 653 -8 c 128,-1,41
 472.9 -8 472.9 -8 342 -25 c 1,42,-1
 336 -25 l 2,43,44
 314 -25 314 -25 298.5 -8 c 128,-1,45
 283 9 283 9 283 29 c 256,46,47
 283 49 283 49 296.5 63.5 c 0,48,49
 316.838256659 85.3447941889 316.838256659 85.3447941889 481 92 c 1,50,-1
 504 1333 l 1,51,52
 345.653225806 1338.58870968 345.653225806 1338.58870968 211 1350 c 1,53,54
 205 1323 205 1323 196.5 1284 c 128,-1,55
 188 1245 188 1245 177.5 1201 c 0,56,57
 146.388888889 1070.62962963 146.388888889 1070.62962963 137.194444444 1039.81481481 c 0,58,59
 121.435697115 987 121.435697115 987 84 987 c 0,60,61
 61 987 61 987 46 1003.5 c 128,-1,62
 31 1020 31 1020 31 1031.5 c 2,63,-1
 31 1047.5 l 2,64,65
 31 1052 31 1052 39.5 1080 c 128,-1,66
 48 1108 48 1108 63 1171 c 128,-1,67
 78 1234 78 1234 90.5 1289 c 0,68,69
 119 1414.4 119 1414.4 119 1419 c 1,70,71
 129.789473684 1460 129.789473684 1460 170 1460 c 2,72,-1
 178 1460 l 1,9,10
EndSplineSet
EndChar

StartChar: U
Encoding: 85 85 58
Width: 1544
Flags: HW
LayerCount: 2
Fore
SplineSet
352 1319 m 1,0,1
 309 1061 309 1061 309 766 c 0,2,3
 309 378.647887324 309 378.647887324 422.5 206 c 0,4,5
 499.744299674 88.5016286645 499.744299674 88.5016286645 631 51 c 1,6,7
 475.504501194 234.083409884 475.504501194 234.083409884 461 569.5 c 0,8,9
 457 662 457 662 457 750 c 0,10,11
 457 1038.2 457 1038.2 496 1319 c 1,12,-1
 352 1319 l 1,0,1
1202 436 m 128,-1,14
 1223 551 1223 551 1223 757.5 c 128,-1,15
 1223 964 1223 964 1178 1333 c 1,16,-1
 1010 1319 l 1,17,-1
 1004 1319 l 2,18,19
 982 1319 982 1319 967 1335.5 c 128,-1,20
 952 1352 952 1352 952 1372 c 256,21,22
 952 1392 952 1392 965.5 1407 c 128,-1,23
 979 1422 979 1422 999 1425 c 1,24,-1
 1438 1460 l 1,25,-1
 1442 1460 l 2,26,27
 1463 1460 1463 1460 1478 1444.5 c 128,-1,28
 1493 1429 1493 1429 1493 1408 c 128,-1,29
 1493 1387 1493 1387 1479.5 1372.5 c 128,-1,30
 1466 1358 1466 1358 1446 1356 c 2,31,-1
 1282 1343 l 1,32,33
 1326.2264574 953.807174888 1326.2264574 953.807174888 1329 682 c 1,34,35
 1315.38488291 205.470901924 1315.38488291 205.470901924 1092 33.5 c 0,36,37
 960.154639175 -68 960.154639175 -68 752 -68 c 0,38,39
 531.821705426 -68 531.821705426 -68 398 73.5 c 0,40,41
 203 279.68852459 203 279.68852459 203 770 c 0,42,43
 203 1068.16666667 203 1068.16666667 246 1319 c 1,44,-1
 127 1319 l 2,45,46
 104 1319 104 1319 89 1334.5 c 128,-1,47
 74 1350 74 1350 74 1372 c 256,48,49
 74 1394 74 1394 89 1409.5 c 128,-1,50
 104 1425 104 1425 127 1425 c 2,51,-1
 754 1425 l 2,52,53
 775 1425 775 1425 791 1409.5 c 128,-1,54
 807 1394 807 1394 807 1372 c 256,55,56
 807 1350 807 1350 791 1334.5 c 128,-1,57
 775 1319 775 1319 754 1319 c 2,58,-1
 602 1319 l 1,59,60
 561 1056.6 561 1056.6 561 745 c 0,61,62
 561 53 561 53 866 53 c 0,63,64
 1043.84705882 53 1043.84705882 53 1137.5 236 c 0,65,13
 1181 321 1181 321 1202 436 c 128,-1,14
EndSplineSet
EndChar

StartChar: V
Encoding: 86 86 59
Width: 1690
Flags: HW
LayerCount: 2
Fore
SplineSet
844 68 m 1,0,-1
 920 188 l 1,1,2
 792.591201717 361.739270386 792.591201717 361.739270386 680.5 612.5 c 0,3,4
 588.736552807 817.785237534 588.736552807 817.785237534 466 1253.5 c 0,5,6
 456 1289 456 1289 451 1311 c 1,7,8
 431 1309 431 1309 409.5 1309 c 0,9,10
 372.5 1309 372.5 1309 346.25 1309 c 128,-1,11
 320 1309 320 1309 303 1311 c 1,12,13
 481.132036441 554.439216014 481.132036441 554.439216014 844 68 c 1,0,-1
1212 1444 m 1,14,15
 1382.5 1413 1382.5 1413 1452 1413 c 256,16,17
 1544.71428571 1413 1544.71428571 1413 1669 1442 c 1,18,-1
 1681 1444 l 1,19,20
 1703 1444 1703 1444 1719 1427.5 c 128,-1,21
 1735 1411 1735 1411 1735 1391.5 c 0,22,23
 1735 1350.38888889 1735 1350.38888889 1694 1339 c 1,24,25
 1601.928 1317.336 1601.928 1317.336 1509 1311 c 1,26,27
 1391.60440751 786.815028902 1391.60440751 786.815028902 1085.5 263 c 0,28,29
 992 103 992 103 891 -51 c 1,30,31
 876.24137931 -71.2931034483 876.24137931 -71.2931034483 848 -76 c 1,32,33
 821 -76 821 -76 805 -55 c 0,34,35
 388.409343186 475.563572357 388.409343186 475.563572357 195 1315 c 1,36,37
 145 1320 145 1320 95 1325 c 128,-1,38
 45 1330 45 1330 10.5 1336 c 0,39,40
 -49 1346.34782609 -49 1346.34782609 -49 1391 c 0,41,42
 -49 1415 -49 1415 -31 1429.5 c 128,-1,43
 -13 1444 -13 1444 4 1444 c 1,44,45
 50.0512820513 1432.48717949 50.0512820513 1432.48717949 165.025641026 1422.74358974 c 128,-1,46
 280 1413 280 1413 421 1413 c 128,-1,47
 562 1413 562 1413 717 1444 c 1,48,49
 740 1444 740 1444 754 1427.5 c 128,-1,50
 768 1411 768 1411 768 1391.5 c 128,-1,51
 768 1372 768 1372 756 1357 c 128,-1,52
 744 1342 744 1342 713.5 1336.5 c 128,-1,53
 683 1331 683 1331 641.5 1326.5 c 128,-1,54
 600 1322 600 1322 557 1317 c 1,55,56
 633.027027027 1012.89189189 633.027027027 1012.89189189 704.013513514 831.945945946 c 0,57,58
 833.837894737 501.021052632 833.837894737 501.021052632 979 287 c 1,59,60
 1137.12030075 551.851503759 1137.12030075 551.851503759 1215.56015038 743.42575188 c 0,61,62
 1344.28668478 1057.81555707 1344.28668478 1057.81555707 1401 1311 c 1,63,64
 1199.09363296 1323.88764045 1199.09363296 1323.88764045 1171.5 1357 c 0,65,66
 1159 1372 1159 1372 1159 1392 c 128,-1,67
 1159 1412 1159 1412 1175.5 1428 c 128,-1,68
 1192 1444 1192 1444 1212 1444 c 1,14,15
EndSplineSet
EndChar

StartChar: W
Encoding: 87 87 60
Width: 1929
Flags: HW
LayerCount: 2
Fore
SplineSet
635 86 m 1,0,1
 678.401869159 170.392523364 678.401869159 170.392523364 707 236 c 1,2,3
 470.327777778 660.377777778 470.327777778 660.377777778 387 1327 c 1,4,5
 362 1325 362 1325 336.5 1325 c 2,6,-1
 244 1325 l 1,7,8
 302.83290267 819.037037037 302.83290267 819.037037037 508.5 341 c 0,9,10
 564 212 564 212 635 86 c 1,0,1
1313 63 m 1,11,12
 1359.33333333 155.666666667 1359.33333333 155.666666667 1382 205 c 1,13,14
 1168.61174301 621.897428015 1168.61174301 621.897428015 1069 993 c 1,15,16
 1048.17647059 890.617647059 1048.17647059 890.617647059 1008 750 c 1,17,18
 1064.15481833 541.424960506 1064.15481833 541.424960506 1186.5 290 c 0,19,20
 1241 178 1241 178 1313 63 c 1,11,12
1489 1452 m 1,21,22
 1589 1434 1589 1434 1703.21428571 1434 c 128,-1,23
 1817.42857143 1434 1817.42857143 1434 1927 1460 c 1,24,-1
 1939 1460 l 2,25,26
 1961 1460 1961 1460 1977 1444.5 c 128,-1,27
 1993 1429 1993 1429 1993 1409.5 c 128,-1,28
 1993 1390 1993 1390 1980.5 1375.5 c 128,-1,29
 1968 1361 1968 1361 1935 1354 c 0,30,31
 1842.73943662 1334.42957746 1842.73943662 1334.42957746 1757 1331 c 1,32,33
 1678.44188596 747.425438596 1678.44188596 747.425438596 1585 446 c 0,34,35
 1527.61771973 260.895870102 1527.61771973 260.895870102 1467.80885987 138.947935051 c 128,-1,36
 1408 17 1408 17 1383 -30 c 128,-1,37
 1358 -77 1358 -77 1346.5 -84.5 c 128,-1,38
 1335 -92 1335 -92 1312.5 -92 c 128,-1,39
 1290 -92 1290 -92 1274 -70 c 0,40,41
 1082.77488688 207.584841629 1082.77488688 207.584841629 952 575 c 1,42,43
 826.719101124 211.685393258 826.719101124 211.685393258 682 -47 c 1,44,45
 667.5 -76 667.5 -76 637.75 -76 c 128,-1,46
 608 -76 608 -76 592 -49 c 0,47,48
 311.53549794 405.545917131 311.53549794 405.545917131 186.5 1022 c 0,49,50
 154.154626109 1181.47021546 154.154626109 1181.47021546 137 1329 c 1,51,52
 87 1333 87 1333 54 1336.5 c 0,53,54
 -6 1342.86363636 -6 1342.86363636 -6 1391 c 1,55,56
 -3 1415 -3 1415 12 1428.5 c 128,-1,57
 27 1442 27 1442 47 1442 c 2,58,-1
 51 1442 l 1,59,60
 165 1430 165 1430 323.5 1430 c 128,-1,61
 482 1430 482 1430 662 1460 c 1,62,-1
 670 1460 l 2,63,64
 693 1460 693 1460 708 1444.5 c 128,-1,65
 723 1429 723 1429 723 1409 c 256,66,67
 723 1389 723 1389 710.5 1374 c 128,-1,68
 698 1359 698 1359 665.5 1354.5 c 0,69,70
 559.495327103 1339.82242991 559.495327103 1339.82242991 494 1333 c 1,71,72
 537.395713539 931.589649765 537.395713539 931.589649765 677.5 553.5 c 0,73,74
 714 455 714 455 760 360 c 1,75,76
 978.191715463 875.303838647 978.191715463 875.303838647 1006 1282 c 0,77,78
 1008 1302 1008 1302 1021.5 1315.5 c 128,-1,79
 1035 1329 1035 1329 1055 1330 c 0,80,81
 1098.37662338 1332.16883117 1098.37662338 1332.16883117 1110 1288 c 1,82,83
 1191.79928952 836.156305506 1191.79928952 836.156305506 1436 332 c 1,84,85
 1560.05447878 650.406495547 1560.05447878 650.406495547 1651 1329 c 1,86,87
 1557.10902256 1333.17293233 1557.10902256 1333.17293233 1470 1348 c 0,88,89
 1452 1351 1452 1351 1439.5 1365.5 c 128,-1,90
 1427 1380 1427 1380 1427 1402.5 c 128,-1,91
 1427 1425 1427 1425 1444.5 1438.5 c 128,-1,92
 1462 1452 1462 1452 1479 1452 c 2,93,-1
 1489 1452 l 1,21,22
EndSplineSet
EndChar

StartChar: X
Encoding: 88 88 61
Width: 1604
Flags: HW
LayerCount: 2
Fore
SplineSet
1245 111 m 1,0,1
 955.635093845 448.062418158 955.635093845 448.062418158 639 1042.5 c 0,2,3
 551.113924051 1207.49367089 551.113924051 1207.49367089 498 1327 c 1,4,5
 424 1321 424 1321 354 1321 c 1,6,7
 537.482352941 917.338823529 537.482352941 917.338823529 777.5 530 c 0,8,9
 937.257607258 272.184275184 937.257607258 272.184275184 1085 102 c 1,10,11
 1126 105 1126 105 1165.5 108 c 128,-1,12
 1205 111 1205 111 1245 111 c 1,0,1
272 0 m 256,13,14
 115 0 115 0 35 -20 c 1,15,16
 12 -20 12 -20 -3 -4.5 c 128,-1,17
 -18 11 -18 11 -18 31 c 128,-1,18
 -18 51 -18 51 -5.5 66 c 128,-1,19
 7 81 7 81 41.5 87 c 0,20,21
 113.702531646 99.5569620253 113.702531646 99.5569620253 227 104 c 1,22,23
 245 122 245 122 286 162 c 128,-1,24
 327 202 327 202 383 260.5 c 0,25,26
 521.74243813 405.436296975 521.74243813 405.436296975 647 553 c 1,27,28
 375.571428571 1017.28571429 375.571428571 1017.28571429 238 1323 c 1,29,30
 206 1325 206 1325 173.5 1326.5 c 128,-1,31
 141 1328 141 1328 114 1330.5 c 128,-1,32
 87 1333 87 1333 73 1347.5 c 128,-1,33
 59 1362 59 1362 59 1383.5 c 128,-1,34
 59 1405 59 1405 76 1420.5 c 128,-1,35
 93 1436 93 1436 113 1436 c 2,36,-1
 117 1436 l 1,37,38
 231.4 1425 231.4 1425 379.672222222 1425 c 128,-1,39
 527.944444444 1425 527.944444444 1425 752 1462 c 1,40,-1
 760 1462 l 2,41,42
 783 1462 783 1462 798 1446.5 c 128,-1,43
 813 1431 813 1431 813 1411 c 256,44,45
 813 1391 813 1391 801 1376 c 128,-1,46
 789 1361 789 1361 758.5 1356.5 c 128,-1,47
 728 1352 728 1352 688.5 1346 c 128,-1,48
 649 1340 649 1340 608 1335 c 1,49,50
 749.629139073 1035.0794702 749.629139073 1035.0794702 883 801 c 1,51,52
 1089.26943005 1081.52642487 1089.26943005 1081.52642487 1219 1335 c 1,53,54
 1140.24637681 1340.36956522 1140.24637681 1340.36956522 1087.12318841 1351.68478261 c 128,-1,55
 1034 1363 1034 1363 1023 1377.5 c 128,-1,56
 1012 1392 1012 1392 1012 1414 c 128,-1,57
 1012 1436 1012 1436 1029.5 1449 c 128,-1,58
 1047 1462 1047 1462 1063 1462 c 2,59,-1
 1075 1462 l 1,60,61
 1180 1438 1180 1438 1292.5 1438 c 128,-1,62
 1405 1438 1405 1438 1528 1462 c 1,63,-1
 1538 1462 l 2,64,65
 1561 1462 1561 1462 1575 1446.5 c 128,-1,66
 1589 1431 1589 1431 1589 1411.5 c 0,67,68
 1589 1368.78947368 1589 1368.78947368 1548 1358 c 1,69,70
 1428.12820513 1338.38461538 1428.12820513 1338.38461538 1333 1333 c 1,71,72
 1186.91683019 1028.48860377 1186.91683019 1028.48860377 938 700 c 1,73,74
 1117.01298701 395.677922078 1117.01298701 395.677922078 1386 111 c 1,75,76
 1501.05426357 105.387596899 1501.05426357 105.387596899 1531.52713178 101.69379845 c 0,77,78
 1589 94.7271686594 1589 94.7271686594 1589 49 c 0,79,80
 1589 26 1589 26 1573.5 11 c 128,-1,81
 1558 -4 1558 -4 1538 -4 c 2,82,-1
 1532 -4 l 1,83,84
 1437 6 1437 6 1248.86363636 6 c 128,-1,85
 1060.72727273 6 1060.72727273 6 852 -35 c 1,86,-1
 844 -35 l 2,87,88
 822 -35 822 -35 806.5 -19.5 c 128,-1,89
 791 -4 791 -4 791 15.5 c 0,90,91
 791 58.9473684211 791 58.9473684211 834 68 c 0,92,93
 910.176470588 83.2352941176 910.176470588 83.2352941176 961 88 c 1,94,95
 844.540772532 230.532188841 844.540772532 230.532188841 705 457 c 1,96,97
 544.108280255 271.974522293 544.108280255 271.974522293 375 100 c 1,98,99
 531.625 91.05 531.625 91.05 552.5 66 c 0,100,101
 565 51 565 51 565 31 c 128,-1,102
 565 11 565 11 548 -4.5 c 128,-1,103
 531 -20 531 -20 512 -20 c 1,104,105
 432 0 432 0 272 0 c 256,13,14
EndSplineSet
EndChar

StartChar: Y
Encoding: 89 89 62
Width: 1573
Flags: HW
LayerCount: 2
Fore
SplineSet
770 90 m 1,0,1
 838 94 838 94 905 94 c 1,2,-1
 905 614 l 1,3,4
 652.277641278 846.341523342 652.277641278 846.341523342 401 1313 c 1,5,6
 383 1311 383 1311 363.5 1311 c 0,7,8
 322.5 1311 322.5 1311 290.75 1311 c 128,-1,9
 259 1311 259 1311 238 1313 c 1,10,11
 429.777777778 939.033333333 429.777777778 939.033333333 640 692.5 c 0,12,13
 695 628 695 628 754 575 c 1,14,15
 770 559 770 559 770 537 c 2,16,-1
 770 90 l 1,0,1
1288 1423 m 256,17,18
 1397.66666667 1423 1397.66666667 1423 1518 1442 c 1,19,-1
 1526 1442 l 2,20,21
 1547 1442 1547 1442 1563 1425.5 c 128,-1,22
 1579 1409 1579 1409 1579 1389.5 c 128,-1,23
 1579 1370 1579 1370 1566 1355 c 128,-1,24
 1553 1340 1553 1340 1534 1337 c 0,25,26
 1435 1322 1435 1322 1337 1319 c 1,27,28
 1260.63616236 1047.48413284 1260.63616236 1047.48413284 1146.5 830.5 c 0,29,30
 1079.23201439 702.616906475 1079.23201439 702.616906475 1010 618 c 1,31,-1
 1010 92 l 1,32,33
 1096 89 1096 89 1184 80 c 0,34,35
 1204 77 1204 77 1217.5 62 c 128,-1,36
 1231 47 1231 47 1231 24.5 c 128,-1,37
 1231 2 1231 2 1213 -11.5 c 128,-1,38
 1195 -25 1195 -25 1178 -25 c 2,39,-1
 1171 -25 l 1,40,41
 1056.625 -10 1056.625 -10 888.8125 -10 c 128,-1,42
 721 -10 721 -10 516 -51 c 1,43,-1
 506 -51 l 2,44,45
 484 -51 484 -51 468.5 -35.5 c 128,-1,46
 453 -20 453 -20 453 -0.5 c 0,47,48
 453 41.6842105263 453 41.6842105263 496 53 c 1,49,50
 595.971830986 72.0422535211 595.971830986 72.0422535211 666 80 c 1,51,-1
 666 514 l 1,52,53
 387.164383562 776.671232877 387.164383562 776.671232877 115 1321 c 1,54,55
 16.3333333333 1329 16.3333333333 1329 -18.3333333333 1334.5 c 0,56,57
 -78 1343.96634615 -78 1343.96634615 -78 1389 c 0,58,59
 -78 1415 -78 1415 -60 1428.5 c 128,-1,60
 -42 1442 -42 1442 -25 1442 c 2,61,-1
 -18 1442 l 1,62,63
 151.714285714 1415 151.714285714 1415 326 1415 c 256,64,65
 500 1415 500 1415 662 1442 c 1,66,-1
 668 1442 l 2,67,68
 691 1442 691 1442 706 1426 c 128,-1,69
 721 1410 721 1410 721 1390 c 128,-1,70
 721 1370 721 1370 708.5 1355 c 128,-1,71
 696 1340 696 1340 667 1335.5 c 0,72,73
 600.580645161 1325.19354839 600.580645161 1325.19354839 518 1319 c 1,74,75
 648.361829026 1078.33200795 648.361829026 1078.33200795 811 872 c 0,76,77
 878 787 878 787 952 715 c 1,78,79
 1051.20310982 845.767735666 1051.20310982 845.767735666 1152 1096.5 c 0,80,81
 1192 1196 1192 1196 1229 1321 c 1,82,83
 1103.20689655 1326.24137931 1103.20689655 1326.24137931 1061.60344828 1333.12068966 c 0,84,85
 995 1344.13385827 995 1344.13385827 995 1389 c 0,86,87
 995 1413 995 1413 1012.5 1427.5 c 128,-1,88
 1030 1442 1030 1442 1047 1442 c 2,89,-1
 1055 1442 l 1,90,91
 1179.55555556 1423 1179.55555556 1423 1288 1423 c 256,17,18
EndSplineSet
EndChar

StartChar: Z
Encoding: 90 90 63
Width: 1372
Flags: HW
LayerCount: 2
Fore
SplineSet
397 98 m 1,0,-1
 1110 1346 l 1,1,2
 1070 1344 1070 1344 1030.5 1342.5 c 128,-1,3
 991 1341 991 1341 950 1339 c 1,4,-1
 217 88 l 1,5,6
 307 94 307 94 397 98 c 1,0,-1
520 104 m 1,7,8
 612.5 109 612.5 109 779.25 109 c 128,-1,9
 946 109 946 109 1135 102 c 1,10,11
 1139.31828979 326.551068884 1139.31828979 326.551068884 1171 492 c 0,12,13
 1175 510 1175 510 1189.5 522.5 c 128,-1,14
 1204 535 1204 535 1224 535 c 128,-1,15
 1244 535 1244 535 1260 518 c 128,-1,16
 1276 501 1276 501 1276 488 c 128,-1,17
 1276 475 1276 475 1266.5 426 c 0,18,19
 1239 284.157894737 1239 284.157894737 1239 74 c 2,20,-1
 1239 49 l 2,21,22
 1239 27 1239 27 1223.5 11.5 c 128,-1,23
 1208 -4 1208 -4 1188 -4 c 2,24,-1
 1184 -4 l 1,25,26
 699.598052851 22.0431154381 699.598052851 22.0431154381 125 -25 c 1,27,-1
 121 -25 l 2,28,29
 99 -25 99 -25 83.5 -9 c 128,-1,30
 68 7 68 7 68 21 c 0,31,32
 68 37 68 37 76 53 c 1,33,-1
 825 1335 l 1,34,-1
 700 1335 l 2,35,36
 470.285714286 1335 470.285714286 1335 279 1348 c 1,37,38
 260.954751131 1194.61538462 260.954751131 1194.61538462 211 1010 c 1,39,40
 197.941176471 973 197.941176471 973 167.470588235 973 c 128,-1,41
 137 973 137 973 121.5 989 c 128,-1,42
 106 1005 106 1005 106 1024 c 1,43,-1
 109 1040 l 1,44,45
 161.470555244 1216.84520471 161.470555244 1216.84520471 178 1409 c 1,46,47
 181 1429 181 1429 196 1442.5 c 128,-1,48
 211 1456 211 1456 231 1456 c 2,49,-1
 236 1456 l 1,50,51
 464 1440 464 1440 702 1440 c 128,-1,52
 940 1440 940 1440 1202 1456 c 1,53,-1
 1204 1456 l 1,54,55
 1227 1454 1227 1454 1242 1439.5 c 128,-1,56
 1257 1425 1257 1425 1257 1411 c 0,57,58
 1257 1385.6 1257 1385.6 1249 1376 c 1,59,-1
 520 104 l 1,7,8
EndSplineSet
EndChar

StartChar: bracketleft
Encoding: 91 91 64
Width: 762
Flags: HW
LayerCount: 2
Fore
SplineSet
262 -381 m 1,0,1
 332 -371 332 -371 401 -371 c 1,2,-1
 401 1849 l 1,3,4
 279.472222222 1855.94444444 279.472222222 1855.94444444 262 1858 c 1,5,-1
 262 -381 l 1,0,1
682 -498 m 1,6,7
 546.3 -475 546.3 -475 462.65 -475 c 0,8,9
 324.090909091 -475 324.090909091 -475 270.545454545 -486.5 c 128,-1,10
 217 -498 217 -498 202.5 -498 c 128,-1,11
 188 -498 188 -498 173 -482 c 128,-1,12
 158 -466 158 -466 158 -444 c 2,13,-1
 158 1917 l 2,14,15
 158 1939 158 1939 174.5 1954.5 c 128,-1,16
 191 1970 191 1970 203 1970 c 128,-1,17
 215 1970 215 1970 242.5 1966 c 0,18,19
 325 1954 325 1954 409 1954 c 0,20,21
 525.333333333 1954 525.333333333 1954 605.666666667 1962 c 128,-1,22
 686 1970 686 1970 699.5 1970 c 128,-1,23
 713 1970 713 1970 728 1953.5 c 128,-1,24
 743 1937 743 1937 743 1917 c 256,25,26
 743 1897 743 1897 729.5 1882.5 c 128,-1,27
 716 1868 716 1868 696 1866 c 0,28,29
 595 1854 595 1854 508 1851 c 1,30,-1
 508 -373 l 1,31,32
 586.518518519 -377.444444444 586.518518519 -377.444444444 698 -393 c 0,33,34
 718 -396 718 -396 730.5 -411 c 128,-1,35
 743 -426 743 -426 743 -448 c 128,-1,36
 743 -470 743 -470 725 -484 c 128,-1,37
 707 -498 707 -498 690 -498 c 2,38,-1
 682 -498 l 1,6,7
EndSplineSet
EndChar

StartChar: backslash
Encoding: 92 92 65
Width: 1233
Flags: HW
LayerCount: 2
Fore
SplineSet
618 768 m 1,0,1
 420.503717472 1140.02788104 420.503717472 1140.02788104 307 1395 c 1,2,-1
 197 1395 l 1,3,4
 363.350383632 1129.51150895 363.350383632 1129.51150895 618 768 c 1,0,1
1174 41 m 0,5,6
 1182 28 1182 28 1182 8.5 c 128,-1,7
 1182 -11 1182 -11 1165 -26 c 128,-1,8
 1148 -41 1148 -41 1126.5 -41 c 128,-1,9
 1105 -41 1105 -41 1087 -20 c 0,10,11
 490.693642569 720.380376676 490.693642569 720.380376676 57 1419 c 1,12,13
 49 1434 49 1434 49 1452 c 128,-1,14
 49 1470 49 1470 64.5 1485.5 c 128,-1,15
 80 1501 80 1501 100 1501 c 2,16,-1
 342 1501 l 2,17,18
 376.625 1501 376.625 1501 389 1468 c 1,19,20
 685.959145775 798.852058186 685.959145775 798.852058186 1174 41 c 0,5,6
EndSplineSet
EndChar

StartChar: bracketright
Encoding: 93 93 66
Width: 762
Flags: HW
LayerCount: 2
Fore
SplineSet
358 -371 m 1,0,1
 430 -371 430 -371 500 -381 c 1,2,-1
 500 1858 l 1,3,4
 476.523809524 1855.23809524 476.523809524 1855.23809524 358 1849 c 1,5,-1
 358 -371 l 1,0,1
588.5 -482.5 m 128,-1,7
 573 -498 573 -498 558 -498 c 128,-1,8
 543 -498 543 -498 490.409090909 -486.5 c 128,-1,9
 437.818181818 -475 437.818181818 -475 326.759090909 -475 c 128,-1,10
 215.7 -475 215.7 -475 80 -498 c 1,11,-1
 72 -498 l 2,12,13
 49 -498 49 -498 33.5 -482 c 128,-1,14
 18 -466 18 -466 18 -446 c 128,-1,15
 18 -426 18 -426 30.5 -411 c 128,-1,16
 43 -396 43 -396 75 -391.5 c 0,17,18
 174.592982456 -377.494736842 174.592982456 -377.494736842 254 -373 c 1,19,-1
 254 1851 l 1,20,21
 163 1854 163 1854 66 1866 c 0,22,23
 46 1868 46 1868 32 1882.5 c 128,-1,24
 18 1897 18 1897 18 1919.5 c 128,-1,25
 18 1942 18 1942 35.5 1956 c 128,-1,26
 53 1970 53 1970 63.5 1970 c 128,-1,27
 74 1970 74 1970 109 1966 c 0,28,29
 214 1954 214 1954 299 1954 c 0,30,31
 421.333333333 1954 421.333333333 1954 484.166666667 1962 c 128,-1,32
 547 1970 547 1970 560 1970 c 128,-1,33
 573 1970 573 1970 588.5 1953 c 128,-1,34
 604 1936 604 1936 604 1917 c 2,35,-1
 604 -444 l 2,36,6
 604 -467 604 -467 588.5 -482.5 c 128,-1,7
EndSplineSet
EndChar

StartChar: asciicircum
Encoding: 94 94 67
Width: 872
Flags: HW
LayerCount: 2
Fore
SplineSet
729 739 m 1,0,-1
 406 1311 l 1,1,-1
 334 1159 l 1,2,-1
 567 739 l 1,3,-1
 729 739 l 1,0,-1
866 713 m 2,4,5
 872 701 872 701 872 683 c 128,-1,6
 872 665 872 665 855 650 c 128,-1,7
 838 635 838 635 819 635 c 2,8,-1
 537 635 l 2,9,10
 506 635 506 635 489 662 c 1,11,-1
 279 1042 l 1,12,-1
 98 666 l 1,13,14
 86.375 635 86.375 635 57.1875 635 c 128,-1,15
 28 635 28 635 14 651.5 c 128,-1,16
 0 668 0 668 0 680.5 c 0,17,18
 0 701.666666667 0 701.666666667 4 711 c 2,19,-1
 354 1446 l 1,20,21
 367.285714286 1477 367.285714286 1477 399.642857143 1477 c 128,-1,22
 432 1477 432 1477 449 1450 c 1,23,-1
 866 713 l 2,4,5
EndSplineSet
EndChar

StartChar: a
Encoding: 97 97 68
Width: 1253
Flags: HW
LayerCount: 2
Fore
SplineSet
760 350 m 1,0,1
 756 384 756 384 756 422 c 1,2,-1
 719 422 l 2,3,4
 554.744186047 422 554.744186047 422 397 362.5 c 0,5,6
 195 286.307017544 195 286.307017544 195 145 c 0,7,8
 195 93.4634146341 195 93.4634146341 242.5 64.5 c 0,9,10
 281.04 41 281.04 41 344.02 41 c 128,-1,11
 407 41 407 41 470.5 68.5 c 128,-1,12
 534 96 534 96 588 140.5 c 0,13,14
 684.263906856 219.828589909 684.263906856 219.828589909 760 350 c 1,0,1
1001 102 m 1,15,16
 1004 132 1004 132 1004 222 c 128,-1,17
 1004 312 1004 312 1000.5 393.5 c 128,-1,18
 997 475 997 475 985 551 c 128,-1,19
 973 627 973 627 949 694 c 128,-1,20
 925 761 925 761 883.5 810.5 c 0,21,22
 793.373737374 918 793.373737374 918 631 918 c 0,23,24
 628 918 628 918 626 916.5 c 128,-1,25
 624 915 624 915 621 915 c 2,26,-1
 625 915 l 1,27,28
 785.725130039 827.827048114 785.725130039 827.827048114 834.5 626 c 0,29,30
 861.212863706 515.464012251 861.212863706 515.464012251 863.606431853 415.732006126 c 128,-1,31
 866 316 866 316 866 259 c 0,32,33
 866 168.666666667 866 168.666666667 858 78 c 1,34,35
 930 93 930 93 1001 102 c 1,15,16
1169 113 m 1,36,-1
 1241 111 l 1,37,38
 1263 109 1263 109 1276.5 94 c 128,-1,39
 1290 79 1290 79 1290 57.5 c 128,-1,40
 1290 36 1290 36 1275.5 20 c 128,-1,41
 1261 4 1261 4 1239 4 c 2,42,-1
 1235 4 l 1,43,44
 1218 6 1218 6 1200 6 c 2,45,-1
 1165 6 l 2,46,47
 981.52 6 981.52 6 811 -43 c 1,48,-1
 797 -45 l 1,49,50
 774 -45 774 -45 759.5 -27.5 c 128,-1,51
 745 -10 745 -10 745 8 c 2,52,-1
 745 16 l 2,53,54
 745 18 745 18 750 56.5 c 128,-1,55
 755 95 755 95 760 164 c 1,56,57
 556.645833333 -63 556.645833333 -63 338 -63 c 0,58,59
 237.055555556 -63 237.055555556 -63 165.5 -7 c 0,60,61
 90 52.0869565217 90 52.0869565217 90 136.043478261 c 128,-1,62
 90 220 90 220 122.5 277 c 128,-1,63
 155 334 155 334 208 376.5 c 128,-1,64
 261 419 261 419 328.5 447.5 c 128,-1,65
 396 476 396 476 466 493.5 c 0,66,67
 596 526 596 526 719 526 c 2,68,-1
 743 526 l 1,69,70
 743 652.74025974 743 652.74025974 661.5 748 c 0,71,72
 575.944444444 848 575.944444444 848 453 848 c 0,73,74
 361.243902439 848 361.243902439 848 281 754 c 0,75,76
 203 662.628571429 203 662.628571429 203 563 c 0,77,78
 203 543 203 543 186.5 529.5 c 128,-1,79
 170 516 170 516 149 516 c 128,-1,80
 128 516 128 516 112 532.5 c 128,-1,81
 96 549 96 549 96 583 c 128,-1,82
 96 617 96 617 113 669.5 c 128,-1,83
 130 722 130 722 162.5 772.5 c 128,-1,84
 195 823 195 823 241.5 868 c 128,-1,85
 288 913 288 913 347.5 947.5 c 0,86,87
 475.985507246 1022 475.985507246 1022 608.492753623 1022 c 128,-1,88
 741 1022 741 1022 820.5 987 c 128,-1,89
 900 952 900 952 953.5 892 c 128,-1,90
 1007 832 1007 832 1038 753 c 128,-1,91
 1069 674 1069 674 1085 586 c 0,92,93
 1110 448.5 1110 448.5 1110 233 c 1,94,-1
 1108 111 l 1,95,-1
 1169 113 l 1,36,-1
EndSplineSet
Substitution2: "Single Substitution lookup 5 subtable" ordfeminine
Substitution2: "'aalt' Access All Alternates in Latin lookup 0 subtable" ordfeminine
EndChar

StartChar: b
Encoding: 98 98 69
Width: 1233
Flags: HW
LayerCount: 2
Fore
SplineSet
238 1315 m 1,0,-1
 233 737 l 1,1,2
 233 482 233 482 237.5 393.5 c 128,-1,3
 242 305 242 305 267 242 c 128,-1,4
 292 179 292 179 335.5 132.5 c 0,5,6
 428.622815087 32.9549218031 428.622815087 32.9549218031 571 29 c 1,7,8
 393.114963504 136.558394161 393.114963504 136.558394161 387 426 c 1,9,10
 383 540 383 540 383 696.5 c 128,-1,11
 383 853 383 853 384 1019 c 128,-1,12
 385 1185 385 1185 385 1337 c 1,13,14
 322.800995025 1322.26865672 322.800995025 1322.26865672 238 1315 c 1,0,-1
1044 535.5 m 0,15,16
 1044 615 1044 615 1030 683.5 c 128,-1,17
 1016 752 1016 752 984.5 803 c 0,18,19
 916.558823529 913 916.558823529 913 776 913 c 0,20,21
 664.392857143 913 664.392857143 913 571.5 811 c 0,22,23
 495.468606432 727.514548239 495.468606432 727.514548239 487 664 c 1,24,25
 487 382.225806452 487 382.225806452 506 305.612903226 c 128,-1,26
 525 229 525 229 555 184 c 0,27,28
 619 88 619 88 739 88 c 0,29,30
 888.75 88 888.75 88 972 232 c 0,31,32
 1044 356.540540541 1044 356.540540541 1044 535.5 c 0,15,16
133 386 m 0,33,34
 129 497 129 497 129 824 c 128,-1,35
 129 1151 129 1151 133 1311 c 1,36,37
 50 1311 50 1311 -2 1318 c 128,-1,38
 -54 1325 -54 1325 -66 1327.5 c 128,-1,39
 -78 1330 -78 1330 -90 1345 c 128,-1,40
 -102 1360 -102 1360 -102 1375.5 c 128,-1,41
 -102 1391 -102 1391 -96.5 1401 c 128,-1,42
 -91 1411 -91 1411 -83 1418 c 0,43,44
 -67 1432 -67 1432 -57 1432 c 2,45,-1
 -45 1432 l 2,46,47
 -43 1432 -43 1432 -41.5 1431 c 128,-1,48
 -40 1430 -40 1430 -26 1428 c 128,-1,49
 -12 1426 -12 1426 12 1423.5 c 0,50,51
 74.4 1417 74.4 1417 137.7 1417 c 0,52,53
 297.863636364 1417 297.863636364 1417 424 1454 c 1,54,55
 432 1458 432 1458 446.5 1458 c 128,-1,56
 461 1458 461 1458 476.5 1441.5 c 128,-1,57
 492 1425 492 1425 492 1405 c 2,58,-1
 492 1403 l 2,59,60
 492 1402 492 1402 491 1358.5 c 128,-1,61
 490 1315 490 1315 489.5 1242.5 c 128,-1,62
 489 1170 489 1170 488 1075 c 128,-1,63
 487 980 487 980 487 877 c 1,64,65
 558.205175601 977.334565619 558.205175601 977.334565619 687 1008 c 0,66,67
 729 1018 729 1018 800.5 1018 c 128,-1,68
 872 1018 872 1018 943 980.5 c 128,-1,69
 1014 943 1014 943 1059.5 878 c 0,70,71
 1149 750.142857143 1149 750.142857143 1149 537 c 0,72,73
 1149 272.507042254 1149 272.507042254 1004 103 c 0,74,75
 850.879518072 -76 850.879518072 -76 594 -76 c 0,76,77
 401.675 -76 401.675 -76 271.5 51 c 0,78,79
 140.46526987 178.838761102 140.46526987 178.838761102 133 386 c 0,33,34
EndSplineSet
EndChar

StartChar: c
Encoding: 99 99 70
Width: 1176
Flags: HW
LayerCount: 2
Fore
SplineSet
467 72 m 1,0,1
 334 211.138461538 334 211.138461538 334 463 c 0,2,3
 334 620.787234043 334 620.787234043 386.5 766 c 0,4,5
 436.840214308 905.23889064 436.840214308 905.23889064 502 948 c 1,6,7
 184 870.43902439 184 870.43902439 184 475 c 0,8,9
 184 242.094339623 184 242.094339623 346 129 c 0,10,11
 399 92 399 92 467 72 c 1,0,1
1051 664 m 2,12,13
 1048 644 1048 644 1032.5 631 c 128,-1,14
 1017 618 1017 618 997 618 c 256,15,16
 977 618 977 618 962.5 632 c 128,-1,17
 948 646 948 646 947 678.5 c 128,-1,18
 946 711 946 711 928 758 c 128,-1,19
 910 805 910 805 879 844 c 0,20,21
 807.461538462 934 807.461538462 934 723 934 c 0,22,23
 619.564102564 934 619.564102564 934 549 848 c 0,24,25
 464.163315697 744.605291005 464.163315697 744.605291005 443.5 553 c 0,26,27
 438 502 438 502 438 446.5 c 128,-1,28
 438 391 438 391 453.5 321 c 128,-1,29
 469 251 469 251 501 195.5 c 0,30,31
 573.36036036 70 573.36036036 70 702 70 c 0,32,33
 798.260273973 70 798.260273973 70 878.5 152.5 c 0,34,35
 950.884809546 226.923818265 950.884809546 226.923818265 975 319 c 0,36,37
 986.315789474 362 986.315789474 362 1026 362 c 0,38,39
 1048 362 1048 362 1063.5 345.5 c 128,-1,40
 1079 329 1079 329 1079 316 c 128,-1,41
 1079 303 1079 303 1074.5 284.5 c 128,-1,42
 1070 266 1070 266 1053 227 c 128,-1,43
 1036 188 1036 188 1008.5 149 c 128,-1,44
 981 110 981 110 942 73.5 c 128,-1,45
 903 37 903 37 853 9 c 0,46,47
 742.285714286 -53 742.285714286 -53 617.642857143 -53 c 128,-1,48
 493 -53 493 -53 396 -14.5 c 128,-1,49
 299 24 299 24 229 93.5 c 0,50,51
 80 241.435714286 80 241.435714286 80 475 c 0,52,53
 80 735.030075188 80 735.030075188 215.5 896 c 0,54,55
 357.759493671 1065 357.759493671 1065 604 1065 c 0,56,57
 718 1065 718 1065 816 1019.5 c 128,-1,58
 914 974 914 974 977 883 c 1,59,-1
 1010 1087 l 2,60,61
 1013 1106 1013 1106 1027.5 1118 c 128,-1,62
 1042 1130 1042 1130 1064 1130 c 128,-1,63
 1086 1130 1086 1130 1100 1113 c 128,-1,64
 1114 1096 1114 1096 1114 1079 c 2,65,-1
 1114 1071 l 1,66,-1
 1051 664 l 2,12,13
EndSplineSet
EndChar

StartChar: d
Encoding: 100 100 71
Width: 1384
Flags: HW
LayerCount: 2
Fore
SplineSet
836 754 m 1,0,1
 807.941176471 838.176470588 807.941176471 838.176470588 722.5 887 c 0,2,3
 647.25 930 647.25 930 565.125 930 c 128,-1,4
 483 930 483 930 430 908.5 c 128,-1,5
 377 887 377 887 337 850.5 c 128,-1,6
 297 814 297 814 268.5 765.5 c 128,-1,7
 240 717 240 717 222 663.5 c 0,8,9
 188 562.444444444 188 562.444444444 188.5 467.722222222 c 128,-1,10
 189 373 189 373 208.5 305.5 c 128,-1,11
 228 238 228 238 266.5 185.5 c 0,12,13
 351.2 70 351.2 70 489 70 c 0,14,15
 608.15625 70 608.15625 70 699.5 181 c 0,16,17
 769.09955964 265.576680069 769.09955964 265.576680069 809 396.5 c 0,18,19
 841.920127796 504.519169329 841.920127796 504.519169329 836 543 c 1,20,-1
 836 754 l 1,0,1
942 86 m 1,21,22
 1012 101 1012 101 1087 106 c 1,23,-1
 1087 1343 l 1,24,25
 1035.8 1335 1035.8 1335 950 1335 c 2,26,-1
 942 1335 l 1,27,-1
 942 86 l 1,21,22
858 1442.5 m 128,-1,29
 904 1440 904 1440 982.222222222 1440 c 128,-1,30
 1060.44444444 1440 1060.44444444 1440 1128 1456 c 1,31,-1
 1141 1456 l 2,32,33
 1164 1456 1164 1456 1178 1440.5 c 128,-1,34
 1192 1425 1192 1425 1192 1405 c 2,35,-1
 1192 113 l 1,36,-1
 1212 113 l 2,37,38
 1282.33333333 113 1282.33333333 113 1310.66666667 110 c 128,-1,39
 1339 107 1339 107 1352.5 92 c 128,-1,40
 1366 77 1366 77 1366 55 c 128,-1,41
 1366 33 1366 33 1348.5 18.5 c 128,-1,42
 1331 4 1331 4 1313 4 c 2,43,-1
 1309 4 l 1,44,45
 1259 8 1259 8 1203.5 8 c 128,-1,46
 1148 8 1148 8 1092 2 c 128,-1,47
 1036 -4 1036 -4 994.5 -11.5 c 128,-1,48
 953 -19 953 -19 928.5 -25 c 128,-1,49
 904 -31 904 -31 902 -32 c 128,-1,50
 900 -33 900 -33 896 -33 c 2,51,-1
 889 -33 l 2,52,53
 866 -33 866 -33 851 -16.5 c 128,-1,54
 836 0 836 0 836 20 c 2,55,-1
 836 190 l 1,56,57
 762.247933884 36.0826446281 762.247933884 36.0826446281 601.5 -17.5 c 0,58,59
 549 -35 549 -35 472.5 -35 c 128,-1,60
 396 -35 396 -35 321 4 c 128,-1,61
 246 43 246 43 193.5 108.5 c 0,62,63
 86.0990049251 242.495527189 86.0990049251 242.495527189 84 444 c 1,64,65
 84 683 84 683 199.5 851 c 0,66,67
 325.3125 1034 325.3125 1034 551 1034 c 0,68,69
 720.956521739 1034 720.956521739 1034 836 936 c 1,70,-1
 836 1339 l 1,71,72
 684 1352 l 1,73,74
 664 1355 664 1355 650.5 1370 c 128,-1,75
 637 1385 637 1385 637 1406 c 128,-1,76
 637 1427 637 1427 653.5 1441.5 c 128,-1,77
 670 1456 670 1456 690 1456 c 2,78,-1
 696 1456 l 2,79,80
 697 1456 697 1456 719 1453.5 c 128,-1,81
 741 1451 741 1451 776.5 1448 c 128,-1,28
 812 1445 812 1445 858 1442.5 c 128,-1,29
EndSplineSet
EndChar

StartChar: e
Encoding: 101 101 72
Width: 1147
Flags: HW
LayerCount: 2
Fore
SplineSet
449 895 m 1,0,1
 186 800.027777778 186 800.027777778 186 496 c 0,2,3
 186 304.831325301 186 304.831325301 317.5 176.5 c 0,4,5
 359 136 359 136 412 109 c 1,6,7
 326 237 326 237 326 459 c 0,8,9
 326 615.677419355 326 615.677419355 349 692.838709677 c 0,10,11
 385.415384615 815.006451613 385.415384615 815.006451613 449 895 c 1,0,1
432 502 m 1,12,13
 544 467 544 467 689.137931034 467 c 128,-1,14
 834.275862069 467 834.275862069 467 971 528 c 1,15,-1
 971 545 l 2,16,17
 971 787.148148148 971 787.148148148 816 879 c 0,18,19
 762 911 762 911 686 922 c 1,20,21
 442.061135371 894.384279476 442.061135371 894.384279476 432 502 c 1,12,13
1075 547 m 1,22,-1
 1073 489 l 1,23,24
 1063.38721137 405.689165187 1063.38721137 405.689165187 809 371 c 0,25,26
 728.333333333 360 728.333333333 360 637.53030303 360 c 128,-1,27
 546.727272727 360 546.727272727 360 434 391 c 1,28,29
 455.924973205 164.441943551 455.924973205 164.441943551 586 84.5 c 0,30,31
 634 55 634 55 680.5 55 c 128,-1,32
 727 55 727 55 759 61.5 c 128,-1,33
 791 68 791 68 822 80.5 c 0,34,35
 891.804853387 108.647118301 891.804853387 108.647118301 920 150 c 1,36,37
 937 170 937 170 959.5 170 c 128,-1,38
 982 170 982 170 998 153.5 c 128,-1,39
 1014 137 1014 137 1014 116.5 c 128,-1,40
 1014 96 1014 96 1001 84 c 1,41,42
 957.506189821 16.947042641 957.506189821 16.947042641 841 -21.5 c 0,43,44
 624.115439927 -93.0719048242 624.115439927 -93.0719048242 424 -10.5 c 0,45,46
 214.212720012 76.0627126165 214.212720012 76.0627126165 125.5 280 c 0,47,48
 82 380 82 380 82 501.5 c 128,-1,49
 82 623 82 623 120 722.5 c 128,-1,50
 158 822 158 822 228 890.5 c 0,51,52
 370.554744526 1030 370.554744526 1030 623 1030 c 1,53,54
 1075 1010.84745763 1075 1010.84745763 1075 547 c 1,22,-1
EndSplineSet
EndChar

StartChar: f
Encoding: 102 102 73
Width: 889
Flags: HW
LayerCount: 2
Fore
SplineSet
637 1419 m 1,0,1
 504.698453608 1387.32216495 504.698453608 1387.32216495 433.5 1274.5 c 0,2,3
 371 1175.46153846 371 1175.46153846 371 1032 c 2,4,-1
 371 131 l 1,5,6
 389 133 389 133 407.5 133 c 0,7,8
 442.75 133 442.75 133 468.875 133 c 128,-1,9
 495 133 495 133 512 131 c 1,10,-1
 512 1001 l 2,11,12
 512 1294 512 1294 637 1419 c 1,0,1
772 -4 m 1,13,14
 607 29 607 29 446.5 29 c 128,-1,15
 286 29 286 29 121 -4 c 1,16,17
 98 -4 98 -4 83 12.5 c 128,-1,18
 68 29 68 29 68 48.5 c 0,19,20
 68 93.55 68 93.55 111 100 c 1,21,22
 194.932038835 117.669902913 194.932038835 117.669902913 266 123 c 1,23,-1
 266 891 l 1,24,25
 182 891 182 891 127 894 c 128,-1,26
 72 897 72 897 57.5 912 c 128,-1,27
 43 927 43 927 43 948.5 c 128,-1,28
 43 970 43 970 59 985.5 c 128,-1,29
 75 1001 75 1001 96 1001 c 2,30,-1
 98 1001 l 1,31,-1
 266 995 l 1,32,-1
 266 1032 l 2,33,34
 266 1255.52542373 266 1255.52542373 388 1392 c 0,35,36
 513.151515152 1532 513.151515152 1532 725 1532 c 0,37,38
 904.211538462 1532 904.211538462 1532 1017 1417 c 0,39,40
 1122.19541816 1309.74192658 1122.19541816 1309.74192658 1118 1165 c 1,41,-1
 1118 1163 l 2,42,43
 1118 1142 1118 1142 1102.5 1127 c 128,-1,44
 1087 1112 1087 1112 1065 1112 c 256,45,46
 1043 1112 1043 1112 1028.5 1127 c 128,-1,47
 1014 1142 1014 1142 1011.5 1172.5 c 128,-1,48
 1009 1203 1009 1203 996.5 1244 c 128,-1,49
 984 1285 984 1285 961 1318 c 0,50,51
 908.727272727 1393 908.727272727 1393 827 1393 c 0,52,53
 673.363636364 1393 673.363636364 1393 631 1160 c 0,54,55
 618 1088.5 618 1088.5 618 1001 c 2,56,-1
 618 995 l 1,57,-1
 786 1001 l 1,58,-1
 788 1001 l 2,59,60
 810 1001 810 1001 825 986.5 c 128,-1,61
 840 972 840 972 841 949.5 c 128,-1,62
 842 927 842 927 827 912 c 128,-1,63
 812 897 812 897 758 894 c 128,-1,64
 704 891 704 891 618 891 c 1,65,-1
 618 125 l 1,66,67
 709.033898305 113.898305085 709.033898305 113.898305085 755.016949153 105.449152542 c 128,-1,68
 801 97 801 97 812 82.5 c 128,-1,69
 823 68 823 68 823 45.5 c 128,-1,70
 823 23 823 23 806 9.5 c 128,-1,71
 789 -4 789 -4 772 -4 c 1,13,14
EndSplineSet
EndChar

StartChar: g
Encoding: 103 103 74
Width: 1354
Flags: HW
LayerCount: 2
Fore
SplineSet
827 470 m 0,0,1
 838 522 838 522 838 571 c 2,2,-1
 838 670.5 l 2,3,4
 838 721 838 721 836 766 c 1,5,6
 794.333333333 866 794.333333333 866 691 912.5 c 0,7,8
 641 935 641 935 552.5 936.5 c 128,-1,9
 464 938 464 938 393 899.5 c 128,-1,10
 322 861 322 861 276 795 c 0,11,12
 188 668.739130435 188 668.739130435 188 455 c 1,13,14
 190.156091371 297.605329949 190.156091371 297.605329949 266.5 193.5 c 0,15,16
 351.2 78 351.2 78 489 78 c 0,17,18
 587.814814815 78 587.814814815 78 674 167.5 c 0,19,20
 788.067298578 285.95450237 788.067298578 285.95450237 827 470 c 0,0,1
936 907 m 1,21,-1
 944 494 l 1,22,23
 944 385 944 385 944.5 272 c 128,-1,24
 945 159 945 159 937 49 c 0,25,26
 918.828117238 -200.863387978 918.828117238 -200.863387978 844 -354 c 1,27,28
 1045.69727047 -231.540942928 1045.69727047 -231.540942928 1067 88 c 1,29,30
 1083 353.6 1083 353.6 1083 692 c 2,31,-1
 1083 905 l 1,32,-1
 1067 905 l 1,33,-1
 936 907 l 1,21,-1
883 1016 m 1,34,-1
 1069 1010 l 1,35,36
 1196.33333333 1010 1196.33333333 1010 1225.66666667 1016 c 128,-1,37
 1255 1022 1255 1022 1257.5 1022 c 2,38,-1
 1262 1022 l 2,39,40
 1283 1022 1283 1022 1299 1005.5 c 128,-1,41
 1315 989 1315 989 1315 969.5 c 128,-1,42
 1315 950 1315 950 1302.5 935.5 c 128,-1,43
 1290 921 1290 921 1271.5 917.5 c 0,44,45
 1239.81609195 911.505747126 1239.81609195 911.505747126 1188 907 c 1,46,-1
 1190 692 l 1,47,48
 1190 348 1190 348 1171 82 c 1,49,50
 1154.27325723 -173.082827301 1154.27325723 -173.082827301 1004 -346 c 0,51,52
 844.095238095 -530 844.095238095 -530 606 -530 c 0,53,54
 437.571428571 -530 437.571428571 -530 324 -425 c 0,55,56
 211 -320.528301887 211 -320.528301887 211 -164 c 2,57,-1
 211 -162 l 2,58,59
 211 -140 211 -140 226 -124.5 c 128,-1,60
 241 -109 241 -109 263.5 -109 c 128,-1,61
 286 -109 286 -109 300.5 -124.5 c 128,-1,62
 315 -140 315 -140 315 -182 c 128,-1,63
 315 -224 315 -224 339 -272.5 c 128,-1,64
 363 -321 363 -321 403.5 -355.5 c 0,65,66
 486.260869565 -426 486.260869565 -426 604 -426 c 0,67,68
 762.685106383 -426 762.685106383 -426 810.5 -85.5 c 0,69,70
 827 32 827 32 834 195 c 1,71,72
 759.33924612 42.4323725055 759.33924612 42.4323725055 600.5 -10 c 0,73,74
 549 -27 549 -27 472.5 -27 c 128,-1,75
 396 -27 396 -27 321 12 c 128,-1,76
 246 51 246 51 193.5 117 c 0,77,78
 86.0934861279 252.025331725 86.0934861279 252.025331725 84 453 c 1,79,80
 84 708.661157025 84 708.661157025 204.5 868 c 0,81,82
 336.0875 1042 336.0875 1042 569 1042 c 1,83,84
 723.514578661 1036.73245755 723.514578661 1036.73245755 829 950 c 1,85,-1
 827 961 l 1,86,-1
 827 963 l 2,87,88
 827 984 827 984 844 1000 c 128,-1,89
 861 1016 861 1016 881 1016 c 2,90,-1
 883 1016 l 1,34,-1
EndSplineSet
EndChar

StartChar: h
Encoding: 104 104 75
Width: 1391
Flags: HW
LayerCount: 2
Fore
SplineSet
449 1313 m 1,0,1
 397.8 1305 397.8 1305 311 1305 c 2,2,-1
 303 1305 l 1,3,-1
 303 125 l 1,4,5
 322 127 322 127 340 127 c 0,6,7
 376.25 127 376.25 127 403.125 127 c 128,-1,8
 430 127 430 127 449 125 c 1,9,-1
 449 1313 l 1,0,1
555 866 m 1,10,11
 669 1042 669 1042 866 1042 c 0,12,13
 1060.13846154 1042 1060.13846154 1042 1154.5 901 c 0,14,15
 1235 780.712643678 1235 780.712643678 1235 581.356321839 c 128,-1,16
 1235 382 1235 382 1182 131 c 1,17,18
 1245 131 1245 131 1284 125 c 0,19,20
 1350 114.846153846 1350 114.846153846 1350 70 c 0,21,22
 1350 48 1350 48 1333 32 c 128,-1,23
 1316 16 1316 16 1304 16 c 128,-1,24
 1292 16 1292 16 1273.5 19.5 c 0,25,26
 1148.82608696 43.0869565217 1148.82608696 43.0869565217 950 8 c 1,27,28
 948 6 948 6 946 6 c 128,-1,29
 944 6 944 6 931.5 6 c 128,-1,30
 919 6 919 6 904 22.5 c 128,-1,31
 889 39 889 39 889 58.5 c 0,32,33
 889 101.947368421 889 101.947368421 932 111 c 0,34,35
 1003 126 1003 126 1075 129 c 1,36,37
 1130 382 1130 382 1130 561 c 0,38,39
 1130 829.764705882 1130 829.764705882 997 908 c 0,40,41
 946 938 946 938 883.5 938 c 128,-1,42
 821 938 821 938 780.5 921 c 128,-1,43
 740 904 740 904 705.5 875.5 c 128,-1,44
 671 847 671 847 643 809 c 128,-1,45
 615 771 615 771 595.5 729.5 c 0,46,47
 555 643.307692308 555 643.307692308 555 563 c 2,48,-1
 553 117 l 1,49,50
 613.680473373 111.798816568 613.680473373 111.798816568 664.340236686 101.399408284 c 128,-1,51
 715 91 715 91 727 76.5 c 128,-1,52
 739 62 739 62 739 41 c 128,-1,53
 739 20 739 20 722.5 6 c 128,-1,54
 706 -8 706 -8 686 -8 c 2,55,-1
 676 -8 l 1,56,57
 508.6 23 508.6 23 377 23 c 128,-1,58
 245.333333333 23 245.333333333 23 80 -8 c 1,59,-1
 70 -8 l 2,60,61
 47 -8 47 -8 32.5 7.5 c 128,-1,62
 18 23 18 23 18 42.5 c 128,-1,63
 18 62 18 62 29.5 76.5 c 128,-1,64
 41 91 41 91 67.5 96.5 c 128,-1,65
 94 102 94 102 129.5 107 c 128,-1,66
 165 112 165 112 199 117 c 1,67,-1
 199 1309 l 1,68,-1
 45 1321 l 1,69,70
 25 1324 25 1324 12.5 1339 c 128,-1,71
 0 1354 0 1354 0 1376.5 c 128,-1,72
 0 1399 0 1399 18 1412 c 128,-1,73
 36 1425 36 1425 53 1425 c 2,74,-1
 59 1425 l 2,75,76
 60 1425 60 1425 82 1422.5 c 128,-1,77
 104 1420 104 1420 139.5 1417 c 0,78,79
 234.166666667 1409 234.166666667 1409 313 1409 c 256,80,81
 422.666666667 1409 422.666666667 1409 492 1425 c 1,82,-1
 502 1425 l 2,83,84
 525 1425 525 1425 540 1409.5 c 128,-1,85
 555 1394 555 1394 555 1374 c 2,86,-1
 555 866 l 1,10,11
EndSplineSet
EndChar

StartChar: i
Encoding: 105 105 76
Width: 793
Flags: HW
LayerCount: 2
Fore
SplineSet
487 872 m 1,0,1
 435.8 864 435.8 864 350 864 c 2,2,-1
 342 864 l 1,3,-1
 342 111 l 1,4,5
 361 113 361 113 379 113 c 0,6,7
 415.25 113 415.25 113 442.125 113 c 128,-1,8
 469 113 469 113 487 111 c 1,9,-1
 487 872 l 1,0,1
475 1290 m 256,10,11
 475 1321 475 1321 453.5 1342.5 c 128,-1,12
 432 1364 432 1364 401 1364 c 256,13,14
 370 1364 370 1364 349 1342.5 c 128,-1,15
 328 1321 328 1321 328 1290 c 256,16,17
 328 1259 328 1259 349 1238 c 128,-1,18
 370 1217 370 1217 401 1217 c 256,19,20
 432 1217 432 1217 453.5 1238 c 128,-1,21
 475 1259 475 1259 475 1290 c 256,10,11
725 -25 m 1,22,23
 560 8 560 8 417 8 c 128,-1,24
 274 8 274 8 109 -25 c 1,25,26
 86 -25 86 -25 71.5 -8 c 128,-1,27
 57 9 57 9 57 28 c 128,-1,28
 57 47 57 47 68.5 62 c 128,-1,29
 80 77 80 77 106.5 82.5 c 128,-1,30
 133 88 133 88 168.5 92.5 c 128,-1,31
 204 97 204 97 238 102 c 1,32,-1
 238 868 l 1,33,-1
 84 881 l 1,34,35
 64 884 64 884 51.5 899 c 128,-1,36
 39 914 39 914 39 936.5 c 128,-1,37
 39 959 39 959 57 972 c 128,-1,38
 75 985 75 985 92 985 c 2,39,-1
 98 985 l 2,40,41
 99 985 99 985 121 982.5 c 128,-1,42
 143 980 143 980 178.5 977 c 0,43,44
 273.166666667 969 273.166666667 969 352 969 c 256,45,46
 462.444444444 969 462.444444444 969 530 985 c 1,47,-1
 541 985 l 2,48,49
 564 985 564 985 579 969.5 c 128,-1,50
 594 954 594 954 594 934 c 2,51,-1
 592 102 l 1,52,53
 627 97 627 97 662.5 92.5 c 128,-1,54
 698 88 698 88 726 82.5 c 0,55,56
 778 72.2857142857 778 72.2857142857 778 29 c 0,57,58
 778 6 778 6 761 -9.5 c 128,-1,59
 744 -25 744 -25 725 -25 c 1,22,23
580 1290 m 256,60,61
 580 1215.42857143 580 1215.42857143 527.5 1164 c 0,62,63
 474.416666667 1112 474.416666667 1112 401 1112 c 256,64,65
 327 1112 327 1112 275 1164 c 128,-1,66
 223 1216 223 1216 223 1290 c 256,67,68
 223 1364 223 1364 275 1416 c 128,-1,69
 327 1468 327 1468 401 1468 c 256,70,71
 474.416666667 1468 474.416666667 1468 527.5 1416 c 0,72,73
 580 1364.57142857 580 1364.57142857 580 1290 c 256,60,61
EndSplineSet
EndChar

StartChar: j
Encoding: 106 106 77
Width: 711
Flags: HW
LayerCount: 2
Fore
SplineSet
461 893 m 1,0,1
 406.6 885 406.6 885 322 885 c 2,2,-1
 311 885 l 1,3,-1
 311 106 l 2,4,5
 311 -244.612903226 311 -244.612903226 217 -375 c 1,6,7
 428.946360153 -290.844827586 428.946360153 -290.844827586 453 88 c 0,8,9
 467 310.25 467 310.25 467 492.125 c 0,10,11
 467 740 467 740 461 893 c 1,0,1
446 1311 m 256,12,13
 446 1342 446 1342 424 1363 c 128,-1,14
 402 1384 402 1384 372 1384 c 128,-1,15
 342 1384 342 1384 320.5 1363 c 128,-1,16
 299 1342 299 1342 299 1311 c 256,17,18
 299 1280 299 1280 320.5 1258.5 c 128,-1,19
 342 1237 342 1237 372 1237 c 128,-1,20
 402 1237 402 1237 424 1258.5 c 128,-1,21
 446 1280 446 1280 446 1311 c 256,12,13
322 989 m 256,22,23
 435.4 989 435.4 989 500 1006 c 1,24,-1
 512 1006 l 2,25,26
 534 1006 534 1006 548.5 990.5 c 128,-1,27
 563 975 563 975 563 956 c 2,28,-1
 571 567 l 1,29,30
 571 41.7333333333 571 41.7333333333 519 -142 c 0,31,32
 456.368490791 -363.297999205 456.368490791 -363.297999205 291.5 -455 c 0,33,34
 207 -502 207 -502 110.5 -502 c 128,-1,35
 14 -502 14 -502 -53 -477.5 c 128,-1,36
 -120 -453 -120 -453 -169.5 -408 c 0,37,38
 -276 -311.181818182 -276 -311.181818182 -276 -162 c 0,39,40
 -276 -140 -276 -140 -261 -124.5 c 128,-1,41
 -246 -109 -246 -109 -224 -109 c 128,-1,42
 -202 -109 -202 -109 -187 -124.5 c 128,-1,43
 -172 -140 -172 -140 -171.5 -165.5 c 128,-1,44
 -171 -191 -171 -191 -159 -228.5 c 128,-1,45
 -147 -266 -147 -266 -124.5 -299.5 c 0,46,47
 -71.1044776119 -379 -71.1044776119 -379 -8.05223880597 -379 c 128,-1,48
 55 -379 55 -379 91 -352 c 128,-1,49
 127 -325 127 -325 150 -282 c 128,-1,50
 173 -239 173 -239 184.5 -185 c 128,-1,51
 196 -131 196 -131 201 -77 c 0,52,53
 207 -12.2 207 -12.2 207 106 c 2,54,-1
 207 889 l 1,55,-1
 55 901 l 1,56,57
 35 904 35 904 21.5 919 c 128,-1,58
 8 934 8 934 8 955 c 128,-1,59
 8 976 8 976 24.5 991 c 128,-1,60
 41 1006 41 1006 61 1006 c 2,61,-1
 68 1006 l 2,62,63
 69 1006 69 1006 91 1003.5 c 128,-1,64
 113 1001 113 1001 148.5 997.5 c 0,65,66
 234.714285714 989 234.714285714 989 322 989 c 256,22,23
551 1311 m 256,67,68
 551 1237 551 1237 499 1185 c 128,-1,69
 447 1133 447 1133 373 1133 c 0,70,71
 297 1133 297 1133 245 1185 c 128,-1,72
 193 1237 193 1237 193 1311 c 256,73,74
 193 1385 193 1385 245 1437 c 128,-1,75
 297 1489 297 1489 373 1489 c 0,76,77
 447 1489 447 1489 499 1437 c 128,-1,78
 551 1385 551 1385 551 1311 c 256,67,68
EndSplineSet
EndChar

StartChar: k
Encoding: 107 107 78
Width: 1413
Flags: HW
LayerCount: 2
Fore
SplineSet
323.5 111 m 2,0,-1
 361.25 111 l 2,1,2
 386.5 111 386.5 111 444 106 c 1,3,-1
 444 1317 l 1,4,5
 379 1311 379 1311 307 1311 c 2,6,-1
 299 1311 l 1,7,-1
 299 109 l 1,8,9
 311 111 311 111 323.5 111 c 2,0,-1
831 520 m 1,10,11
 800.731707317 502.195121951 800.731707317 502.195121951 702 459 c 1,12,13
 774.227065172 216.826899128 774.227065172 216.826899128 905 128 c 0,14,15
 958 92 958 92 1026 92 c 0,16,17
 1048.66666667 92 1048.66666667 92 1094 100 c 1,18,19
 956.425658876 173.586275485 956.425658876 173.586275485 831 520 c 1,10,11
1163 188 m 0,20,21
 1219 188 1219 188 1219 293 c 2,22,-1
 1219 330 l 2,23,24
 1219 405.8 1219 405.8 1211 447.4 c 128,-1,25
 1203 489 1203 489 1202 489 c 1,26,-1
 1202 502 l 2,27,28
 1202 523 1202 523 1217.5 539 c 128,-1,29
 1233 555 1233 555 1252.5 555 c 0,30,31
 1296.36842105 555 1296.36842105 555 1305 514 c 1,32,33
 1325 454 1325 454 1325 357.5 c 128,-1,34
 1325 261 1325 261 1308 197.5 c 128,-1,35
 1291 134 1291 134 1254.5 87.5 c 0,36,37
 1176.39784946 -12 1176.39784946 -12 1026 -12 c 0,38,39
 817.755102041 -12 817.755102041 -12 682.5 229 c 0,40,41
 631.428571429 320 631.428571429 320 600 430 c 1,42,-1
 549 422 l 1,43,-1
 549 96 l 1,44,45
 601 90 601 90 633.5 85.5 c 0,46,47
 690 77.6769230769 690 77.6769230769 690 33 c 0,48,49
 690 8 690 8 673 -6 c 128,-1,50
 656 -20 656 -20 639 -20 c 2,51,-1
 631 -20 l 1,52,53
 463 4 463 4 337.642857143 4 c 128,-1,54
 212.285714286 4 212.285714286 4 94 -20 c 1,55,-1
 84 -20 l 2,56,57
 61 -20 61 -20 46 -3.5 c 128,-1,58
 31 13 31 13 31 32 c 0,59,60
 31 72.6842105263 31 72.6842105263 74 84 c 1,61,62
 134 96 134 96 195 102 c 1,63,-1
 195 1315 l 1,64,65
 41 1327 l 1,66,67
 21 1330 21 1330 8.5 1345 c 128,-1,68
 -4 1360 -4 1360 -4 1382.5 c 128,-1,69
 -4 1405 -4 1405 14 1418.5 c 128,-1,70
 32 1432 32 1432 49 1432 c 2,71,-1
 55 1432 l 2,72,73
 56 1432 56 1432 78 1429.5 c 128,-1,74
 100 1427 100 1427 135.5 1423.5 c 0,75,76
 221.714285714 1415 221.714285714 1415 309 1415 c 256,77,78
 422.4 1415 422.4 1415 487 1432 c 1,79,-1
 498 1432 l 2,80,81
 521 1432 521 1432 536 1416 c 128,-1,82
 551 1400 551 1400 551 1380 c 2,83,-1
 551 526 l 1,84,85
 709 557 709 557 822.5 639.5 c 128,-1,86
 936 722 936 722 1006 874 c 1,87,-1
 983 874 l 1,88,-1
 852 881 l 1,89,90
 832 884 832 884 819.5 899 c 128,-1,91
 807 914 807 914 807 936.5 c 128,-1,92
 807 959 807 959 825 972 c 128,-1,93
 843 985 843 985 860 985 c 2,94,-1
 866 985 l 1,95,-1
 983 979 l 1,96,97
 1137.07692308 979 1137.07692308 979 1233 1022 c 1,98,99
 1242 1028 1242 1028 1259 1028 c 128,-1,100
 1276 1028 1276 1028 1291.5 1011.5 c 128,-1,101
 1307 995 1307 995 1307 977 c 0,102,103
 1307 940.4 1307 940.4 1276 928 c 1,104,105
 1209.80903491 895.850102669 1209.80903491 895.850102669 1122 883 c 1,106,107
 1055.03387765 698.390689739 1055.03387765 698.390689739 922 586 c 1,108,109
 1015.35639284 312.599135269 1015.35639284 312.599135269 1105.5 219.5 c 0,110,111
 1136 188 1136 188 1163 188 c 0,20,21
EndSplineSet
EndChar

StartChar: l
Encoding: 108 108 79
Width: 735
Flags: HW
LayerCount: 2
Fore
SplineSet
446 1329 m 1,0,1
 381 1323 381 1323 309 1323 c 2,2,-1
 301 1323 l 1,3,-1
 301 115 l 1,4,-1
 446 115 l 1,5,-1
 446 1329 l 1,0,1
197 1325 m 1,6,-1
 74 1339 l 2,7,8
 54 1342 54 1342 41.5 1357 c 128,-1,9
 29 1372 29 1372 29 1394.5 c 128,-1,10
 29 1417 29 1417 47 1430.5 c 128,-1,11
 65 1444 65 1444 82 1444 c 2,12,-1
 88 1444 l 2,13,14
 89 1444 89 1444 106 1441.5 c 128,-1,15
 123 1439 123 1439 152.5 1435.5 c 0,16,17
 224.142857143 1427 224.142857143 1427 311 1427 c 256,18,19
 417.75 1427 417.75 1427 454.875 1435.5 c 128,-1,20
 492 1444 492 1444 507.5 1444 c 128,-1,21
 523 1444 523 1444 538 1427.5 c 128,-1,22
 553 1411 553 1411 553 1391 c 2,23,-1
 551 104 l 1,24,25
 579.333333333 100.666666667 579.333333333 100.666666667 595.666666667 98.3333333333 c 128,-1,26
 612 96 612 96 623.5 94.5 c 128,-1,27
 635 93 635 93 653.5 89 c 128,-1,28
 672 85 672 85 684 71 c 128,-1,29
 696 57 696 57 696 36.5 c 128,-1,30
 696 16 696 16 679.5 1 c 128,-1,31
 663 -14 663 -14 643 -14 c 2,32,-1
 633 -14 l 1,33,34
 355.586206897 34.5474137931 355.586206897 34.5474137931 86 -16 c 1,35,-1
 76 -16 l 2,36,37
 51 -16 51 -16 38 -0.5 c 128,-1,38
 25 15 25 15 25 35 c 0,39,40
 25 77.2105263158 25 77.2105263158 66 88 c 1,41,42
 126.075268817 97.7419354839 126.075268817 97.7419354839 197 104 c 1,43,-1
 197 1325 l 1,6,-1
EndSplineSet
EndChar

StartChar: m
Encoding: 109 109 80
Width: 1903
Flags: HW
LayerCount: 2
Fore
SplineSet
383 109 m 2,0,1
 442 109 442 109 475 106 c 1,2,-1
 475 852 l 1,3,4
 423.8 844 423.8 844 338 844 c 2,5,-1
 330 844 l 1,6,-1
 330 109 l 1,7,-1
 383 109 l 2,0,1
637 -14 m 1,8,9
 345.4 24.88 345.4 24.88 96 -25 c 1,10,11
 73 -25 73 -25 59 -8 c 128,-1,12
 45 9 45 9 45 28 c 128,-1,13
 45 47 45 47 56 62 c 128,-1,14
 67 77 67 77 95 82.5 c 0,15,16
 150.72815534 93.4466019417 150.72815534 93.4466019417 225 100 c 1,17,-1
 225 848 l 1,18,-1
 72 860 l 1,19,20
 52 863 52 863 39.5 878 c 128,-1,21
 27 893 27 893 27 915.5 c 128,-1,22
 27 938 27 938 45 951.5 c 128,-1,23
 63 965 63 965 80 965 c 2,24,-1
 86 965 l 2,25,26
 87 965 87 965 109 962.5 c 128,-1,27
 131 960 131 960 166.5 956.5 c 0,28,29
 252.714285714 948 252.714285714 948 340 948 c 256,30,31
 453.4 948 453.4 948 518 965 c 1,32,-1
 528 965 l 2,33,34
 551 965 551 965 566.5 949 c 128,-1,35
 582 933 582 933 582 913 c 2,36,-1
 582 782 l 1,37,38
 666.951578947 920.046315789 666.951578947 920.046315789 794 966 c 0,39,40
 841 983 841 983 892 983 c 128,-1,41
 943 983 943 983 982 969 c 128,-1,42
 1021 955 1021 955 1051.5 929.5 c 0,43,44
 1111.6702938 879.193688792 1111.6702938 879.193688792 1139 793 c 1,45,46
 1261.94117647 983 1261.94117647 983 1460 983 c 0,47,48
 1611.14285714 983 1611.14285714 983 1682 855 c 0,49,50
 1737 755.64516129 1737 755.64516129 1737 583.036866359 c 128,-1,51
 1737 410.428571429 1737 410.428571429 1686 119 c 1,52,53
 1834.2 119 1834.2 119 1858.5 92 c 0,54,55
 1872 77 1872 77 1872 56.5 c 128,-1,56
 1872 36 1872 36 1855.5 20 c 128,-1,57
 1839 4 1839 4 1819 4 c 2,58,-1
 1812 4 l 1,59,60
 1738 14 1738 14 1648.72727273 14 c 128,-1,61
 1559.45454545 14 1559.45454545 14 1434 -6 c 1,62,-1
 1425 -6 l 2,63,64
 1404 -6 1404 -6 1389 9.5 c 128,-1,65
 1374 25 1374 25 1374 45 c 256,66,67
 1374 65 1374 65 1386.5 80 c 128,-1,68
 1399 95 1399 95 1430.5 99.5 c 0,69,70
 1517 111.857142857 1517 111.857142857 1577 117 c 1,71,72
 1630 382 1630 382 1630 590 c 0,73,74
 1630 714 1630 714 1606 770 c 128,-1,75
 1582 826 1582 826 1548.5 852.5 c 128,-1,76
 1515 879 1515 879 1452.5 879 c 128,-1,77
 1390 879 1390 879 1339.5 850 c 128,-1,78
 1289 821 1289 821 1253 778.5 c 0,79,80
 1195.66366197 710.811267606 1195.66366197 710.811267606 1159 598 c 1,81,82
 1159 418 1159 418 1116 117 c 1,83,84
 1153.66666667 117 1153.66666667 117 1247 109 c 0,85,86
 1269 107 1269 107 1281.5 92 c 128,-1,87
 1294 77 1294 77 1294 55 c 128,-1,88
 1294 33 1294 33 1278 18.5 c 128,-1,89
 1262 4 1262 4 1243 4 c 2,90,-1
 1237 4 l 1,91,92
 1071.01453488 23.7601744186 1071.01453488 23.7601744186 866 -6 c 1,93,-1
 858 -6 l 2,94,95
 836 -6 836 -6 821.5 9.5 c 128,-1,96
 807 25 807 25 807 45 c 256,97,98
 807 65 807 65 819.5 80 c 128,-1,99
 832 95 832 95 863.5 99.5 c 0,100,101
 950.72 111.96 950.72 111.96 1010 115 c 1,102,103
 1055 396.25 1055 396.25 1055 602 c 0,104,105
 1055 724.470588235 1055 724.470588235 1033 776.235294118 c 128,-1,106
 1011 828 1011 828 979.5 853.5 c 128,-1,107
 948 879 948 879 896.5 879 c 128,-1,108
 845 879 845 879 803 856.5 c 128,-1,109
 761 834 761 834 727 799.5 c 128,-1,110
 693 765 693 765 667.5 723.5 c 128,-1,111
 642 682 642 682 624 643.5 c 0,112,113
 594.218181818 579.8 594.218181818 579.8 582 535 c 1,114,-1
 580 98 l 1,115,116
 598 96 598 96 615 94 c 128,-1,117
 632 92 632 92 650.5 89.5 c 128,-1,118
 669 87 669 87 682.5 72 c 128,-1,119
 696 57 696 57 696 36 c 128,-1,120
 696 15 696 15 679.5 0.5 c 128,-1,121
 663 -14 663 -14 643 -14 c 2,122,-1
 637 -14 l 1,8,9
EndSplineSet
EndChar

StartChar: n
Encoding: 110 110 81
Width: 1354
Flags: HW
LayerCount: 2
Fore
SplineSet
475 862 m 1,0,1
 423.8 854 423.8 854 338 854 c 2,2,-1
 330 854 l 1,3,-1
 330 102 l 1,4,5
 379.75 102 379.75 102 416.375 102 c 128,-1,6
 453 102 453 102 475 100 c 1,7,-1
 475 862 l 1,0,1
340 961 m 256,8,9
 448 961 448 961 528 977 c 1,10,11
 551 977 551 977 566.5 960.5 c 128,-1,12
 582 944 582 944 582 924 c 2,13,-1
 582 821 l 1,14,15
 699.364705882 993 699.364705882 993 903 993 c 0,16,17
 1107.5 993 1107.5 993 1170.5 741 c 0,18,19
 1192 655 1192 655 1192 574 c 128,-1,20
 1192 493 1192 493 1187 433.5 c 128,-1,21
 1182 374 1182 374 1174.5 315 c 0,22,23
 1159.5739645 197.581854043 1159.5739645 197.581854043 1139 113 c 1,24,25
 1177 111 1177 111 1217.5 109 c 128,-1,26
 1258 107 1258 107 1290.5 103.5 c 0,27,28
 1348 97.3076923077 1348 97.3076923077 1348 45 c 1,29,30
 1346 25 1346 25 1330 11.5 c 128,-1,31
 1314 -2 1314 -2 1294 -2 c 2,32,-1
 1290 -2 l 1,33,34
 1194 8 1194 8 1080.5 8 c 128,-1,35
 967 8 967 8 868 -14 c 1,36,37
 847 -14 847 -14 831 2.5 c 128,-1,38
 815 19 815 19 815 38 c 128,-1,39
 815 57 815 57 827.5 72 c 128,-1,40
 840 87 840 87 870 92.5 c 0,41,42
 915.294117647 100.803921569 915.294117647 100.803921569 1030 111 c 1,43,44
 1063.15483871 225.2 1063.15483871 225.2 1075.07741935 359.6 c 128,-1,45
 1087 494 1087 494 1087 543 c 0,46,47
 1087 889 1087 889 903 889 c 0,48,49
 771.047619048 889 771.047619048 889 673.5 768.5 c 0,50,51
 582 655.470588235 582 655.470588235 582 532 c 2,52,-1
 582 530 l 1,53,-1
 580 90 l 1,54,55
 598 88 598 88 615 86.5 c 128,-1,56
 632 85 632 85 650.5 82.5 c 128,-1,57
 669 80 669 80 682.5 65.5 c 128,-1,58
 696 51 696 51 696 30 c 128,-1,59
 696 9 696 9 679.5 -7 c 128,-1,60
 663 -23 663 -23 651 -23 c 128,-1,61
 639 -23 639 -23 637 -20 c 1,62,63
 457 -2 457 -2 389 -2 c 0,64,65
 256.428571429 -2 256.428571429 -2 179.214285714 -16.5 c 128,-1,66
 102 -31 102 -31 87.5 -31 c 128,-1,67
 73 -31 73 -31 59 -14 c 128,-1,68
 45 3 45 3 45 22 c 128,-1,69
 45 41 45 41 56 56 c 128,-1,70
 67 71 67 71 95 76.5 c 0,71,72
 150.72815534 87.4466019417 150.72815534 87.4466019417 225 94 c 1,73,-1
 225 858 l 1,74,75
 91.0540540541 864.378378378 91.0540540541 864.378378378 72 872 c 1,76,77
 52 874 52 874 39.5 889 c 128,-1,78
 27 904 27 904 27 926 c 128,-1,79
 27 948 27 948 44 962.5 c 128,-1,80
 61 977 61 977 72.5 977 c 128,-1,81
 84 977 84 977 85.5 976 c 128,-1,82
 87 975 87 975 109 973 c 128,-1,83
 131 971 131 971 166.5 968 c 0,84,85
 249.333333333 961 249.333333333 961 340 961 c 256,8,9
EndSplineSet
EndChar

StartChar: o
Encoding: 111 111 82
Width: 1231
Flags: HW
LayerCount: 2
Fore
SplineSet
442 901 m 1,0,1
 263.442748092 831.561068702 263.442748092 831.561068702 206 642 c 0,2,3
 186 576 186 576 186 493 c 128,-1,4
 186 410 186 410 205 344 c 128,-1,5
 224 278 224 278 256.5 228.5 c 0,6,7
 317.583061889 135.465798046 317.583061889 135.465798046 428 90 c 1,8,9
 328 229 328 229 328 498 c 128,-1,10
 328 767 328 767 442 901 c 1,0,1
1022.5 336 m 128,-1,12
 1047 413 1047 413 1047 478 c 128,-1,13
 1047 543 1047 543 1036 593 c 128,-1,14
 1025 643 1025 643 1004 690 c 128,-1,15
 983 737 983 737 953 778 c 128,-1,16
 923 819 923 819 885.5 849.5 c 0,17,18
 804.967213115 915 804.967213115 915 709 915 c 0,19,20
 515.47826087 915 515.47826087 915 456 687 c 0,21,22
 434 602.666666667 434 602.666666667 434 531.333333333 c 128,-1,23
 434 460 434 460 438 410.5 c 128,-1,24
 442 361 442 361 452 312.5 c 128,-1,25
 462 264 462 264 479 219 c 128,-1,26
 496 174 496 174 523 140 c 0,27,28
 581.764705882 66 581.764705882 66 674.382352941 66 c 128,-1,29
 767 66 767 66 835.5 102.5 c 128,-1,30
 904 139 904 139 951 199 c 128,-1,11
 998 259 998 259 1022.5 336 c 128,-1,12
1151 489 m 0,31,32
 1151 374 1151 374 1108 274 c 128,-1,33
 1065 174 1065 174 992 102.5 c 0,34,35
 837.321678322 -49 837.321678322 -49 616 -49 c 0,36,37
 372.915492958 -49 372.915492958 -49 227 99 c 0,38,39
 82 246.071428571 82 246.071428571 82 494 c 0,40,41
 82 729.430555556 82 729.430555556 236 884.5 c 0,42,43
 388.44137931 1038 388.44137931 1038 616 1038 c 0,44,45
 848.087248322 1038 848.087248322 1038 1002 876.5 c 0,46,47
 1151 720.154929577 1151 720.154929577 1151 489 c 0,31,32
EndSplineSet
Substitution2: "Single Substitution lookup 5 subtable" ordmasculine
Substitution2: "'aalt' Access All Alternates in Latin lookup 0 subtable" ordmasculine
EndChar

StartChar: p
Encoding: 112 112 83
Width: 1384
Flags: HW
LayerCount: 2
Fore
SplineSet
377 -414 m 1,0,-1
 442 -416 l 1,1,-1
 444 893 l 1,2,3
 379 887 379 887 313 887 c 2,4,-1
 297 887 l 1,5,-1
 297 -416 l 1,6,-1
 377 -414 l 1,0,-1
1187.5 431.5 m 128,-1,8
 1196 487 1196 487 1195.5 546.5 c 128,-1,9
 1195 606 1195 606 1175 673.5 c 128,-1,10
 1155 741 1155 741 1116.5 794 c 0,11,12
 1030.05660377 913 1030.05660377 913 895 913 c 0,13,14
 795.605263158 913 795.605263158 913 710.5 829 c 0,15,16
 598.227118644 718.185208012 598.227118644 718.185208012 560 534 c 0,17,18
 549 481 549 481 549 436 c 2,19,-1
 549 233 l 1,20,21
 570.913043478 147.173913043 570.913043478 147.173913043 661 96.5 c 0,22,23
 738.333333333 53 738.333333333 53 820.166666667 53 c 128,-1,24
 902 53 902 53 954.5 75 c 128,-1,25
 1007 97 1007 97 1047 134 c 128,-1,26
 1087 171 1087 171 1115 219.5 c 128,-1,27
 1143 268 1143 268 1161 322 c 128,-1,7
 1179 376 1179 376 1187.5 431.5 c 128,-1,8
193 891 m 1,28,-1
 66 903 l 1,29,30
 46 906 46 906 33 921 c 128,-1,31
 20 936 20 936 20 958 c 128,-1,32
 20 980 20 980 38.5 994 c 128,-1,33
 57 1008 57 1008 74 1008 c 2,34,-1
 80 1008 l 2,35,36
 81 1008 81 1008 101 1005.5 c 128,-1,37
 121 1003 121 1003 153.5 999.5 c 0,38,39
 232.428571429 991 232.428571429 991 295.714285714 991 c 0,40,41
 413.75 991 413.75 991 451.375 999.5 c 128,-1,42
 489 1008 489 1008 504 1008 c 128,-1,43
 519 1008 519 1008 534 991 c 128,-1,44
 549 974 549 974 549 954 c 2,45,-1
 549 791 l 1,46,47
 609 896 609 896 697.5 957 c 128,-1,48
 786 1018 786 1018 889.5 1018 c 128,-1,49
 993 1018 993 1018 1068 975 c 128,-1,50
 1143 932 1143 932 1194.5 863 c 0,51,52
 1296.30835631 726.596571155 1296.30835631 726.596571155 1303 537 c 1,53,54
 1303 306.897435897 1303 306.897435897 1184 134.5 c 0,55,56
 1103.85073387 18.3863195791 1103.85073387 18.3863195791 976.5 -29 c 0,57,58
 912 -53 912 -53 836 -53 c 0,59,60
 665.326530612 -53 665.326530612 -53 549 47 c 1,61,-1
 549 -424 l 1,62,63
 601 -428.52173913 601 -428.52173913 632 -432.760869565 c 0,64,65
 688 -440.418653576 688 -440.418653576 688 -485 c 0,66,67
 688 -511 688 -511 670 -525 c 128,-1,68
 652 -539 652 -539 635 -539 c 2,69,-1
 629 -539 l 1,70,71
 488.875 -520 488.875 -520 360.09375 -520 c 128,-1,72
 231.3125 -520 231.3125 -520 98 -547 c 1,73,-1
 90 -547 l 2,74,75
 67 -547 67 -547 52 -531.5 c 128,-1,76
 37 -516 37 -516 37 -496.5 c 0,77,78
 37 -452.6 37 -452.6 80 -444 c 0,79,80
 140 -432 140 -432 193 -426 c 1,81,-1
 193 891 l 1,28,-1
EndSplineSet
EndChar

StartChar: q
Encoding: 113 113 84
Width: 1393
Flags: HW
LayerCount: 2
Fore
SplineSet
838 733 m 1,0,1
 836 738 836 738 830.5 752.5 c 128,-1,2
 825 767 825 767 813 786 c 128,-1,3
 801 805 801 805 781 826.5 c 128,-1,4
 761 848 761 848 731.5 866.5 c 0,5,6
 663.03599374 909.435054773 663.03599374 909.435054773 581.01799687 911.217527387 c 128,-1,7
 499 913 499 913 445.5 894 c 128,-1,8
 392 875 392 875 350 841.5 c 128,-1,9
 308 808 308 808 277.5 763 c 128,-1,10
 247 718 247 718 227 665.5 c 0,11,12
 188 563.125 188 563.125 188 465.5625 c 128,-1,13
 188 368 188 368 207 298 c 128,-1,14
 226 228 226 228 263.5 173.5 c 0,15,16
 346.412844037 53 346.412844037 53 489 53 c 0,17,18
 590 53 590 53 676 139 c 0,19,20
 746.861538462 209.861538462 746.861538462 209.861538462 795 332.5 c 0,21,22
 835.757610569 436.33486502 835.757610569 436.33486502 838 535 c 1,23,-1
 838 733 l 1,0,1
942 -446 m 1,24,25
 1034.30985915 -436.450704225 1034.30985915 -436.450704225 1087 -434 c 1,26,-1
 1087 887 l 1,27,-1
 1073 887 l 2,28,29
 1006 887 1006 887 942 893 c 1,30,-1
 942 -446 l 1,24,25
1321 903 m 1,31,-1
 1194 891 l 1,32,-1
 1194 -432 l 1,33,34
 1228 -434 1228 -434 1262.5 -435.5 c 128,-1,35
 1297 -437 1297 -437 1323.5 -441 c 0,36,37
 1376 -448.924528302 1376 -448.924528302 1376 -496 c 256,38,39
 1376 -516 1376 -516 1359 -531.5 c 128,-1,40
 1342 -547 1342 -547 1323 -547 c 2,41,-1
 1315 -547 l 1,42,43
 1245 -537 1245 -537 1183 -537 c 128,-1,44
 1121 -537 1121 -537 1078 -539.5 c 128,-1,45
 1035 -542 1035 -542 999.5 -545.5 c 128,-1,46
 964 -549 964 -549 939 -552.5 c 128,-1,47
 914 -556 914 -556 906.5 -557.5 c 128,-1,48
 899 -559 899 -559 891 -559 c 2,49,-1
 889 -559 l 1,50,51
 838 -554.064516129 838 -554.064516129 838 -494 c 2,52,-1
 838 176 l 1,53,54
 790.485735187 78.9056327725 790.485735187 78.9056327725 699.5 14.5 c 0,55,56
 604.142857143 -53 604.142857143 -53 498.571428571 -53 c 128,-1,57
 393 -53 393 -53 316.5 -11.5 c 128,-1,58
 240 30 240 30 188.5 99 c 0,59,60
 84 239.009708738 84 239.009708738 84 444 c 0,61,62
 84 688.585365854 84 688.585365854 208.5 847.5 c 0,63,64
 342.076433121 1018 342.076433121 1018 569 1018 c 1,65,66
 735.575107296 1009.04434907 735.575107296 1009.04434907 838 918 c 1,67,-1
 838 954 l 2,68,69
 838 977 838 977 853.5 992.5 c 128,-1,70
 869 1008 869 1008 883 1008 c 128,-1,71
 897 1008 897 1008 918 1003 c 0,72,73
 968.4 991 968.4 991 1071 991 c 256,74,75
 1189.4 991 1189.4 991 1305 1008 c 1,76,-1
 1313 1008 l 2,77,78
 1336 1008 1336 1008 1351 991 c 128,-1,79
 1366 974 1366 974 1366 955 c 128,-1,80
 1366 936 1366 936 1353 921 c 128,-1,81
 1340 906 1340 906 1321 903 c 1,31,-1
EndSplineSet
EndChar

StartChar: r
Encoding: 114 114 85
Width: 1214
Flags: HW
LayerCount: 2
Fore
SplineSet
498 868 m 1,0,1
 459.6 862 459.6 862 360 862 c 2,2,-1
 352 862 l 1,3,-1
 352 127 l 1,4,5
 371 129 371 129 389 129 c 2,6,7
 498 129 l 1,8,-1
 498 868 l 1,0,1
1057 646 m 0,9,10
 1063 659 1063 659 1063 682 c 128,-1,11
 1063 705 1063 705 1041.5 726.5 c 128,-1,12
 1020 748 1020 748 989 748 c 256,13,14
 958 748 958 748 936.5 726.5 c 128,-1,15
 915 705 915 705 915 682 c 128,-1,16
 915 659 915 659 921 646 c 128,-1,17
 927 633 927 633 937 622.5 c 0,18,19
 958.428571429 600 958.428571429 600 989 600 c 256,20,21
 1035.76923077 600 1035.76923077 600 1057 646 c 0,9,10
604 858 m 1,22,23
 703.616666667 997 703.616666667 997 868 997 c 1,24,25
 1003.71081409 993.008505468 1003.71081409 993.008505468 1088.5 914.5 c 0,26,27
 1174 835.333333333 1174 835.333333333 1174 707 c 0,28,29
 1174 621.958333333 1174 621.958333333 1124 560.5 c 0,30,31
 1071.52542373 496 1071.52542373 496 989 496 c 0,32,33
 915 496 915 496 863 548 c 128,-1,34
 811 600 811 600 811 674 c 256,35,36
 811 747.416666667 811 747.416666667 863 800.5 c 0,37,38
 915.408163265 854 915.408163265 854 989 854 c 0,39,40
 994 854 994 854 998.5 853 c 128,-1,41
 1003 852 1003 852 1008 852 c 1,42,43
 954.7 893 954.7 893 882.85 893 c 128,-1,44
 811 893 811 893 769 869.5 c 128,-1,45
 727 846 727 846 697.5 810.5 c 128,-1,46
 668 775 668 775 650 733.5 c 128,-1,47
 632 692 632 692 621.5 655.5 c 0,48,49
 604 594.666666667 604 594.666666667 604 563 c 2,50,-1
 602 119 l 1,51,52
 637 116 637 116 672.5 110 c 128,-1,53
 708 104 708 104 736 98.5 c 0,54,55
 788 88.2857142857 788 88.2857142857 788 45 c 0,56,57
 788 23 788 23 771 8.5 c 128,-1,58
 754 -6 754 -6 735 -6 c 2,59,-1
 725 -6 l 1,60,61
 557.6 25 557.6 25 426 25 c 256,62,63
 296.4 25 296.4 25 129 -6 c 1,64,-1
 119 -6 l 2,65,66
 96 -6 96 -6 82 9.5 c 128,-1,67
 68 25 68 25 68 44.5 c 0,68,69
 68 87.2105263158 68 87.2105263158 109 98 c 1,70,71
 144 104 144 104 179 110 c 128,-1,72
 214 116 214 116 248 119 c 1,73,-1
 248 864 l 1,74,75
 115.756756757 870.297297297 115.756756757 870.297297297 94 879 c 1,76,77
 74 881 74 881 61.5 895.5 c 128,-1,78
 49 910 49 910 49 932.5 c 128,-1,79
 49 955 49 955 66.5 969 c 128,-1,80
 84 983 84 983 102 983 c 2,81,-1
 109 983 l 1,82,83
 116.264367816 975.735632184 116.264367816 975.735632184 215.632183908 971.367816092 c 128,-1,84
 315 967 315 967 362.5 967 c 0,85,86
 472.75 967 472.75 967 507.875 975 c 128,-1,87
 543 983 543 983 558.5 983 c 128,-1,88
 574 983 574 983 589 966.5 c 128,-1,89
 604 950 604 950 604 930 c 2,90,-1
 604 858 l 1,22,23
EndSplineSet
EndChar

StartChar: s
Encoding: 115 115 86
Width: 1171
Flags: HW
LayerCount: 2
Fore
SplineSet
975 221 m 1,0,1
 989 258.333333333 989 258.333333333 989 292.166666667 c 128,-1,2
 989 326 989 326 972.5 357 c 128,-1,3
 956 388 956 388 929 410.5 c 128,-1,4
 902 433 902 433 867 448.5 c 128,-1,5
 832 464 832 464 795 475 c 128,-1,6
 758 486 758 486 722 493.5 c 128,-1,7
 686 501 686 501 651.5 509 c 128,-1,8
 617 517 617 517 573.5 526 c 128,-1,9
 530 535 530 535 486.5 546.5 c 128,-1,10
 443 558 443 558 402.5 575 c 128,-1,11
 362 592 362 592 329 615.5 c 0,12,13
 256.586572438 667.067137809 256.586572438 667.067137809 240 750 c 1,14,15
 215 696.153846154 215 696.153846154 215 643.076923077 c 128,-1,16
 215 590 215 590 233.5 554 c 128,-1,17
 252 518 252 518 282.5 491 c 128,-1,18
 313 464 313 464 352 445.5 c 128,-1,19
 391 427 391 427 433 414.5 c 0,20,21
 506.886287625 392.510033445 506.886287625 392.510033445 562.443143813 386.755016722 c 128,-1,22
 618 381 618 381 654.5 375.5 c 128,-1,23
 691 370 691 370 731 361 c 128,-1,24
 771 352 771 352 811 339.5 c 128,-1,25
 851 327 851 327 885 310 c 0,26,27
 960.333333333 272.333333333 960.333333333 272.333333333 975 221 c 1,0,1
860 809 m 1,28,29
 731.157894737 911 731.157894737 911 530 911 c 0,30,31
 409.375 911 409.375 911 358.5 845 c 0,32,33
 340 821 340 821 340 788 c 128,-1,34
 340 755 340 755 360 731.5 c 128,-1,35
 380 708 380 708 411 690 c 128,-1,36
 442 672 442 672 480.5 659 c 128,-1,37
 519 646 519 646 556.5 637 c 128,-1,38
 594 628 594 628 626.5 622 c 128,-1,39
 659 616 659 616 703.5 607 c 128,-1,40
 748 598 748 598 821.5 575.5 c 128,-1,41
 895 553 895 553 955.5 515.5 c 0,42,43
 1094 429.652892562 1094 429.652892562 1094 285 c 0,44,45
 1094 125.168539326 1094 125.168539326 941.5 27.5 c 0,46,47
 806.438596491 -59 806.438596491 -59 649 -59 c 0,48,49
 385.5 -59 385.5 -59 207 94 c 1,50,-1
 207 60.5 l 2,51,52
 207 44 207 44 209 29 c 1,53,-1
 209 25 l 2,54,55
 209 5 209 5 195.5 -11 c 128,-1,56
 182 -27 182 -27 160.5 -27 c 128,-1,57
 139 -27 139 -27 122.5 -13.5 c 128,-1,58
 106 0 106 0 104 20 c 256,59,60
 102 40 102 40 102 60.5 c 2,61,-1
 102 102 l 2,62,63
 102 181.666666667 102 181.666666667 107 243.333333333 c 128,-1,64
 112 305 112 305 113.5 316 c 128,-1,65
 115 327 115 327 129.5 340.5 c 128,-1,66
 144 354 144 354 166.5 354 c 128,-1,67
 189 354 189 354 203 338 c 128,-1,68
 217 322 217 322 217 303 c 2,69,-1
 217 297 l 1,70,71
 213.666666667 270.333333333 213.666666667 270.333333333 211 233 c 1,72,73
 385.494845361 47 385.494845361 47 649 47 c 0,74,75
 766.652173913 47 766.652173913 47 840.5 86.5 c 0,76,77
 889 112.441860465 889 112.441860465 889 152 c 256,78,79
 889 235.945454545 889 235.945454545 620.5 275 c 0,80,81
 593 279 593 279 543.5 284.5 c 128,-1,82
 494 290 494 290 410.5 314.5 c 128,-1,83
 327 339 327 339 260 382 c 0,84,85
 111 477.626865672 111 477.626865672 111 637 c 0,86,87
 111 805.692307692 111 805.692307692 241.5 915 c 0,88,89
 362.081632653 1016 362.081632653 1016 530 1016 c 0,90,91
 747.333333333 1016 747.333333333 1016 899 911 c 1,92,93
 937.463800905 1005.02262443 937.463800905 1005.02262443 964.5 1018 c 0,94,95
 977 1024 977 1024 994.5 1024 c 128,-1,96
 1012 1024 1012 1024 1027 1008.5 c 128,-1,97
 1042 993 1042 993 1042 975 c 128,-1,98
 1042 957 1042 957 1019 917.5 c 0,99,100
 953.33072407 804.720156556 953.33072407 804.720156556 936 668 c 0,101,102
 933 649 933 649 918 636 c 128,-1,103
 903 623 903 623 882 623 c 128,-1,104
 861 623 861 623 846 639.5 c 128,-1,105
 831 656 831 656 831 676 c 2,106,-1
 831 684 l 1,107,108
 842 746 842 746 860 809 c 1,28,29
EndSplineSet
EndChar

StartChar: t
Encoding: 116 116 87
Width: 934
Flags: HW
LayerCount: 2
Fore
SplineSet
541 57 m 1,0,1
 473 116.5 473 116.5 473 205 c 2,2,-1
 473 1352 l 1,3,-1
 330 1311 l 1,4,-1
 330 324 l 2,5,6
 330 106.16 330 106.16 464.5 68.5 c 0,7,8
 502 58 502 58 541 57 c 1,0,1
578 1010 m 1,9,10
 701.703910615 1014.05586592 701.703910615 1014.05586592 827 1024 c 1,11,-1
 831 1024 l 2,12,13
 853 1024 853 1024 868 1008.5 c 128,-1,14
 883 993 883 993 883 973 c 256,15,16
 883 953 883 953 869.5 937.5 c 128,-1,17
 856 922 856 922 836 920 c 0,18,19
 683 908.230769231 683 908.230769231 578 905 c 1,20,-1
 578 205 l 2,21,22
 578 145.117647059 578 145.117647059 639 120 c 0,23,24
 656 113 656 113 678.5 113 c 128,-1,25
 701 113 701 113 718.5 127.5 c 128,-1,26
 736 142 736 142 748 163.5 c 0,27,28
 764.481327801 193.029045643 764.481327801 193.029045643 773.7406639 231.514522822 c 0,29,30
 788.533638814 293 788.533638814 293 831 293 c 0,31,32
 854 293 854 293 868.5 275.5 c 128,-1,33
 883 258 883 258 883 240 c 2,34,-1
 883 229 l 1,35,36
 854 96 854 96 769 23.5 c 128,-1,37
 684 -49 684 -49 559 -49 c 0,38,39
 332.889655172 -49 332.889655172 -49 254 135.5 c 0,40,41
 223 208 223 208 223 324 c 2,42,-1
 223 907 l 1,43,44
 178 910 178 910 132.5 913 c 128,-1,45
 87 916 87 916 54 919.5 c 0,46,47
 -6 925.863636364 -6 925.863636364 -6 973 c 0,48,49
 -6 996 -6 996 11.5 1010 c 128,-1,50
 29 1024 29 1024 47 1024 c 2,51,-1
 51 1024 l 1,52,-1
 223 1012 l 1,53,-1
 223 1352 l 2,54,55
 223 1369 223 1369 234 1383.5 c 128,-1,56
 245 1398 245 1398 262 1403 c 2,57,-1
 512 1470 l 1,58,59
 516.5 1473 516.5 1473 532.75 1473 c 128,-1,60
 549 1473 549 1473 563.5 1456 c 128,-1,61
 578 1439 578 1439 578 1419 c 2,62,-1
 578 1010 l 1,9,10
EndSplineSet
EndChar

StartChar: u
Encoding: 117 117 88
Width: 1411
Flags: HW
LayerCount: 2
Fore
SplineSet
1066 909 m 2,0,-1
 1026 909 l 2,1,2
 996 909 996 909 950 913 c 1,3,-1
 924 72 l 1,4,5
 998.5 84.0810810811 998.5 84.0810810811 1071 88 c 1,6,-1
 1087 911 l 1,7,8
 1076 909 1076 909 1066 909 c 2,0,-1
905 1024 m 1,9,10
 959.4 1016 959.4 1016 1084.2 1016 c 128,-1,11
 1209 1016 1209 1016 1321 1044 c 1,12,13
 1344 1044 1344 1044 1359 1027.5 c 128,-1,14
 1374 1011 1374 1011 1374 992 c 128,-1,15
 1374 973 1374 973 1362.5 958 c 128,-1,16
 1351 943 1351 943 1323.5 937.5 c 128,-1,17
 1296 932 1296 932 1261 927.5 c 128,-1,18
 1226 923 1226 923 1192 918 c 1,19,-1
 1176 90 l 1,20,21
 1263 90 1263 90 1302 85 c 0,22,23
 1366 76.7948717949 1366 76.7948717949 1366 31 c 0,24,25
 1366 6 1366 6 1349.5 -8.5 c 128,-1,26
 1333 -23 1333 -23 1315 -23 c 2,27,-1
 1309 -23 l 1,28,29
 1087.73015873 3.98412698413 1087.73015873 3.98412698413 881 -43 c 1,30,-1
 870 -43 l 2,31,32
 849 -43 849 -43 833 -27.5 c 128,-1,33
 817 -12 817 -12 817 8 c 2,34,-1
 817 10 l 1,35,-1
 823 193 l 1,36,37
 693.713043478 -43 693.713043478 -43 489 -43 c 0,38,39
 311.967741935 -43 311.967741935 -43 224.5 116.5 c 0,40,41
 154 245.058823529 154 245.058823529 154 420 c 0,42,43
 154 691 154 691 256 915 c 1,44,-1
 76 920 l 1,45,46
 54 922 54 922 39.5 936.5 c 128,-1,47
 25 951 25 951 25 972 c 128,-1,48
 25 993 25 993 40 1008.5 c 128,-1,49
 55 1024 55 1024 78 1024 c 2,50,-1
 342 1018 l 1,51,52
 364 1015 364 1015 378.5 1000.5 c 128,-1,53
 393 986 393 986 393 971.5 c 0,54,55
 393 954 393 954 385 938 c 1,56,57
 318.413793103 871.413793103 318.413793103 871.413793103 274 585.5 c 0,58,59
 258 482.5 258 482.5 258 419.25 c 128,-1,60
 258 356 258 356 268.5 292.5 c 128,-1,61
 279 229 279 229 305 177.5 c 0,62,63
 363.815533981 61 363.815533981 61 487 61 c 128,-1,64
 610.128787879 61 610.128787879 61 702.5 198 c 0,65,66
 793.71072821 333.278832851 793.71072821 333.278832851 834 573 c 1,67,-1
 846 975 l 2,68,69
 846 997 846 997 863 1010.5 c 128,-1,70
 880 1024 880 1024 899 1024 c 2,71,-1
 905 1024 l 1,9,10
EndSplineSet
EndChar

StartChar: v
Encoding: 118 118 89
Width: 1274
Flags: HW
LayerCount: 2
Fore
SplineSet
627 70 m 1,0,1
 635 82 635 82 698 180 c 1,2,3
 444.914893617 530.425531915 444.914893617 530.425531915 367 920 c 1,4,-1
 301 918 l 2,5,6
 282 918 282 918 264 919 c 128,-1,7
 246 920 246 920 229 920 c 1,8,9
 325.109165808 409.627188465 325.109165808 409.627188465 627 70 c 1,0,1
1073 1024 m 256,10,11
 1117 1024 1117 1024 1237 1044 c 1,12,13
 1259 1044 1259 1044 1274.5 1027.5 c 128,-1,14
 1290 1011 1290 1011 1290 992 c 0,15,16
 1290 950.789473684 1290 950.789473684 1252.5 941.394736842 c 0,17,18
 1196.00937808 927.242349457 1196.00937808 927.242349457 1126 920 c 1,19,20
 1053.1461837 592.157826649 1053.1461837 592.157826649 824.5 190 c 0,21,22
 754 66 754 66 712 6 c 128,-1,23
 670 -54 670 -54 659.5 -61 c 128,-1,24
 649 -68 649 -68 636 -68 c 0,25,26
 613 -68 613 -68 596 -51 c 0,27,28
 346.328499213 206.597580177 346.328499213 206.597580177 208.5 591 c 0,29,30
 154 743 154 743 121 928 c 1,31,32
 99 931 99 931 77.5 933 c 128,-1,33
 56 935 56 935 35.5 939 c 0,34,35
 -10 947.87804878 -10 947.87804878 -10 991 c 0,36,37
 -10 1017 -10 1017 8 1030.5 c 128,-1,38
 26 1044 26 1044 43 1044 c 1,39,40
 70.8481012658 1037.03797468 70.8481012658 1037.03797468 154.924050633 1029.51898734 c 128,-1,41
 239 1022 239 1022 301 1022 c 256,42,43
 409.888888889 1022 409.888888889 1022 541 1042 c 1,44,-1
 549 1044 l 1,45,46
 572 1044 572 1044 587 1028.5 c 128,-1,47
 602 1013 602 1013 602 993 c 128,-1,48
 602 973 602 973 590 958 c 0,49,50
 571.352112676 934.690140845 571.352112676 934.690140845 471 928 c 1,51,52
 530.692307692 629.538461538 530.692307692 629.538461538 713.5 346 c 0,53,54
 738 308 738 308 756 281 c 1,55,56
 941.909090909 615.636363636 941.909090909 615.636363636 1018 920 c 1,57,58
 946.615384615 927.384615385 946.615384615 927.384615385 910.307692308 935.192307692 c 0,59,60
 850 948.161016949 850 948.161016949 850 991 c 0,61,62
 850 1014 850 1014 867.5 1029 c 128,-1,63
 885 1044 885 1044 903 1044 c 1,64,65
 1003 1024 1003 1024 1073 1024 c 256,10,11
EndSplineSet
EndChar

StartChar: w
Encoding: 119 119 90
Width: 1647
Flags: HW
LayerCount: 2
Fore
SplineSet
549 94 m 1,0,1
 607.5 198 607.5 198 621 225 c 1,2,3
 508.847406225 400.026017558 508.847406225 400.026017558 435.5 632.5 c 0,4,5
 388.195759717 782.430388693 388.195759717 782.430388693 369 920 c 1,6,7
 340 918 340 918 309.5 918 c 2,8,-1
 236 918 l 1,9,10
 268.736560448 650.651423011 268.736560448 650.651423011 403.5 353 c 0,11,12
 461 226 461 226 549 94 c 1,0,1
1100 80 m 1,13,14
 1158.5 184 1158.5 184 1171 209 c 1,15,16
 1013.86803966 442.733790999 1013.86803966 442.733790999 909 696 c 1,17,18
 887.44 601.92 887.44 601.92 850 500 c 1,19,20
 924.285714286 314.285714286 924.285714286 314.285714286 1100 80 c 1,13,14
1235 1038 m 1,21,22
 1291 1024 1291 1024 1394.5 1024 c 128,-1,23
 1498 1024 1498 1024 1608 1044 c 1,24,25
 1629 1044 1629 1044 1645 1027.5 c 128,-1,26
 1661 1011 1661 1011 1661 992 c 128,-1,27
 1661 973 1661 973 1648.5 958 c 0,28,29
 1623.48366013 927.980392157 1623.48366013 927.980392157 1466 922 c 1,30,31
 1390.2 429.3 1390.2 429.3 1275 184.5 c 0,32,33
 1231.21621622 91.4594594595 1231.21621622 91.4594594595 1149 -41 c 1,34,35
 1130.81818182 -66 1130.81818182 -66 1106 -66 c 256,36,37
 1081.66666667 -66 1081.66666667 -66 1063 -45 c 1,38,39
 894.398230088 165.752212389 894.398230088 165.752212389 799 362 c 1,40,41
 686.047016275 114.464737794 686.047016275 114.464737794 596 -29 c 1,42,43
 578.545454545 -53 578.545454545 -53 551.272727273 -53 c 128,-1,44
 524 -53 524 -53 508 -31 c 0,45,46
 264.967541631 303.990685859 264.967541631 303.990685859 167.5 705 c 0,47,48
 136.840369393 831.142480211 136.840369393 831.142480211 129 920 c 1,49,50
 106 922 106 922 84.5 923 c 128,-1,51
 63 924 63 924 42 926.5 c 128,-1,52
 21 929 21 929 7.5 944 c 128,-1,53
 -6 959 -6 959 -6 980.5 c 128,-1,54
 -6 1002 -6 1002 11.5 1016 c 128,-1,55
 29 1030 29 1030 47 1030 c 2,56,-1
 51 1030 l 1,57,58
 176.333333333 1022 176.333333333 1022 293.666666667 1022 c 128,-1,59
 411 1022 411 1022 571 1042 c 1,60,-1
 580 1044 l 1,61,62
 603 1044 603 1044 617 1027.5 c 128,-1,63
 631 1011 631 1011 631 991 c 256,64,65
 631 971 631 971 618.5 956.5 c 128,-1,66
 606 942 606 942 583 938.5 c 128,-1,67
 560 935 560 935 531 932 c 128,-1,68
 502 929 502 929 473 926 c 1,69,70
 533.360215054 589.707373272 533.360215054 589.707373272 674 340 c 1,71,72
 818.374920026 658.474088292 818.374920026 658.474088292 840 905 c 0,73,74
 842 928 842 928 858 940 c 128,-1,75
 874 952 874 952 892 952 c 0,76,77
 931.117647059 952 931.117647059 952 942 915 c 1,78,79
 1044.5284599 599.373172463 1044.5284599 599.373172463 1221 324 c 1,80,81
 1278.95221445 473.455710956 1278.95221445 473.455710956 1311.47610723 643.727855478 c 128,-1,82
 1344 814 1344 814 1362 922 c 1,83,84
 1294 922 1294 922 1251 929 c 128,-1,85
 1208 936 1208 936 1195 950.5 c 128,-1,86
 1182 965 1182 965 1182 986 c 128,-1,87
 1182 1007 1182 1007 1198.5 1022.5 c 128,-1,88
 1215 1038 1215 1038 1235 1038 c 1,21,22
EndSplineSet
EndChar

StartChar: x
Encoding: 120 120 91
Width: 1391
Flags: HW
LayerCount: 2
Fore
SplineSet
319 932 m 1,0,1
 614.261477046 469.157684631 614.261477046 469.157684631 911 127 c 1,2,3
 995 133 995 133 1079 133 c 1,4,5
 828.272727273 419.545454545 828.272727273 419.545454545 469 936 c 1,6,7
 395 932 395 932 319 932 c 1,0,1
864 569 m 1,8,9
 1087.80540541 279.07027027 1087.80540541 279.07027027 1223 131 c 1,10,11
 1333.6 131 1333.6 131 1349.8 113 c 128,-1,12
 1366 95 1366 95 1366 73.5 c 128,-1,13
 1366 52 1366 52 1351 37.5 c 128,-1,14
 1336 23 1336 23 1315 23 c 2,15,-1
 1311 23 l 1,16,17
 1215 29 1215 29 1113 29 c 0,18,19
 921.5 29 921.5 29 818.25 14.5 c 128,-1,20
 715 0 715 0 701.5 0 c 128,-1,21
 688 0 688 0 672.5 16 c 128,-1,22
 657 32 657 32 657 52 c 128,-1,23
 657 72 657 72 669.5 86.5 c 128,-1,24
 682 101 682 101 702 104.5 c 0,25,26
 735.731343284 110.402985075 735.731343284 110.402985075 784 115 c 1,27,28
 673.15936255 249.039840637 673.15936255 249.039840637 618 324 c 1,29,30
 484.601694915 198.686440678 484.601694915 198.686440678 391 125 c 1,31,32
 411 122 411 122 431 120.5 c 128,-1,33
 451 119 451 119 471 116.5 c 128,-1,34
 491 114 491 114 504.5 98.5 c 128,-1,35
 518 83 518 83 518 62.5 c 128,-1,36
 518 42 518 42 501.5 26 c 128,-1,37
 485 10 485 10 465 10 c 1,38,39
 420 25 420 25 268 25 c 256,40,41
 179.666666667 25 179.666666667 25 80 12 c 1,42,-1
 74 10 l 1,43,44
 51 10 51 10 35.5 26.5 c 128,-1,45
 20 43 20 43 20 63 c 256,46,47
 20 83 20 83 33 98.5 c 128,-1,48
 46 114 46 114 66 117 c 0,49,50
 148 126 148 126 229 129 c 1,51,52
 244 141 244 141 275.5 166 c 128,-1,53
 307 191 307 191 350 227 c 0,54,55
 453.806167401 313.907488987 453.806167401 313.907488987 555 408 c 1,56,57
 352.658536585 675.804878049 352.658536585 675.804878049 195 932 c 1,58,59
 170 934 170 934 145.5 935 c 128,-1,60
 121 936 121 936 99 938 c 128,-1,61
 77 940 77 940 63 954.5 c 128,-1,62
 49 969 49 969 49 990.5 c 128,-1,63
 49 1012 49 1012 65.5 1027 c 128,-1,64
 82 1042 82 1042 102 1042 c 2,65,-1
 106 1042 l 1,66,67
 193 1036 193 1036 342.884615385 1036 c 128,-1,68
 492.769230769 1036 492.769230769 1036 662 1061 c 1,69,-1
 668 1061 l 2,70,71
 691 1061 691 1061 706 1045 c 128,-1,72
 721 1029 721 1029 721 1009 c 0,73,74
 721 965 721 965 676 956 c 1,75,76
 632 950 632 950 590 946 c 1,77,78
 625 897 625 897 679 821 c 128,-1,79
 733 745 733 745 801 655 c 1,80,81
 926 796 926 796 1020 942 c 1,82,83
 897.217446271 950.467762326 897.217446271 950.467762326 880.608723135 969.733881163 c 128,-1,84
 864 989 864 989 864 1010 c 128,-1,85
 864 1031 864 1031 881.5 1046 c 128,-1,86
 899 1061 899 1061 909.5 1061 c 2,87,-1
 922 1061 l 2,88,89
 924 1061 924 1061 967.5 1052.5 c 128,-1,90
 1011 1044 1011 1044 1107.22222222 1044 c 128,-1,91
 1203.44444444 1044 1203.44444444 1044 1296 1061 c 1,92,-1
 1305 1061 l 2,93,94
 1328 1061 1328 1061 1343 1045 c 128,-1,95
 1358 1029 1358 1029 1358 1009 c 0,96,97
 1358 965 1358 965 1313.5 956.5 c 0,98,99
 1254.83725136 945.294755877 1254.83725136 945.294755877 1141 940 c 1,100,101
 1021.86 740.015 1021.86 740.015 864 569 c 1,8,9
EndSplineSet
EndChar

